<?xml version="1.0" encoding="UTF-8"?>
<svg id="Ebene_1" data-name="Ebene 1" xmlns="http://www.w3.org/2000/svg" xmlns:xlink="http://www.w3.org/1999/xlink" viewBox="0 0 137.55 135.97">
  <defs>
    <style>
      .cls-1 {
        fill: none;
      }

      .cls-2 {
        fill: #fe5200;
      }

      .cls-3 {
        clip-path: url(#clippath);
      }
    </style>
    <clipPath id="clippath">
      <rect class="cls-1" x="5.28" y="2.97" width="129" height="130.84"/>
    </clipPath>
  </defs>
  <g class="cls-3">
    <path class="cls-2" d="M71.86,63.91c.51.4,2.2-4.44,2.44-4.9,13.27-25.53,42.42-27.95,55.11-.54,8.02,17.32,6.12,38.93-5.47,54.16-11.93,15.68-31.7,17.95-44.91,2.35-2.06-2.44-3.34-5.27-5.38-7.7-6.04,20.05-23.8,33.78-44.42,22.41C1.82,114.57-3.43,61.85,20.63,41.5c19.99-16.9,44.62,1.74,51.23,22.41M34.88,37.83c-20.76,2.61-27.1,31.71-25.34,48.83,1.93,18.79,15.57,48.04,38.7,43.39,19.51-3.93,25.4-30.06,24.33-46.97-1.2-19.03-14.67-48.15-37.69-45.25M117.57,114.68c14.26-14.27,16.68-42.38,6.5-59.48-11.2-18.83-31.72-18.18-43.56-.36-1.85,2.78-6.5,12.3-6.52,15.34-.01,1.82,1.42,6.33,1.73,8.67.73,5.34.78,10.69.41,16.07-.45,6.56-1.7,6.24,1.73,12.61,8.6,15.99,26.17,20.7,39.69,7.16"/>
    <path class="cls-2" d="M13.83,28.7c.89-7.01,9.13-19.88,15.67-22.68,1.57-.67,11.8-3.71,12.61-2.93,1.06,6.3,3.66,12.51,3.07,18.99-5.58,2.02-11.76,2.19-17.37,4.48-4.7,1.91-9.16,5.39-13.24,8.26l-.73-.38c.16-1.82-.22-3.96,0-5.74"/>
    <path class="cls-2" d="M115.55,34.26c-3.47-1.44-6.1-4.18-9.58-5.65-5.81-2.46-12.07-2.18-17.85-4.38l3.52-11.93c.43-.93,1.37-3.44,2.53-3.42.68.01,8.63,4.18,9.8,4.89,7.48,4.51,11.83,11.62,11.58,20.49"/>
    <path class="cls-2" d="M39.16,74.49c6.77-1.41,9.67,9.44,9.78,14.45.1,5.05-2.78,16.28-9.93,12.07-6.97-4.1-7.75-24.87.15-26.52M36.85,80.96c-2.2,1.82-1.59,8.22,2.51,6.99,3.72-1.12.97-9.88-2.51-6.99"/>
    <path class="cls-2" d="M87.38,73.82c5.91-5.77,10.24,4.86,10.61,9.73.33,4.32-1.41,15.26-7.78,13.16-6.68-2.21-7.54-18.3-2.83-22.89M88.59,77.34c-3.88.8-2.6,9.3,1.66,7.06,2.91-1.53,1.78-7.76-1.66-7.06"/>
  </g>
</svg>