<?xml version="1.0" encoding="UTF-8"?>
<svg id="Ebene_1" data-name="Ebene 1" xmlns="http://www.w3.org/2000/svg" viewBox="0 0 119.62 116">
  <defs>
    <style>
      .cls-1 {
        fill: #fe5200;
      }
    </style>
  </defs>
  <path class="cls-1" d="M35.74,75.63c2.41,3.78,4.96,8.35,7.22,12.26,1,1.72,2.44,5.49,3.43,6.74,1.5,1.9,5.16,2.18,7.03.71.68-.53,1.71-2.21,2.23-3.03.91-1.41,1.82-3.53,2.71-5,10.87-17.9,21.61-35.46,31.91-53.61,1.35-2.39,3.7-4.09,2.17-7.22-1.99-4.08-5.3-2.6-9.07-2.84l-55.03-.69c-4.82-.06-9.84-.77-14.72-.38-3.65.29-4.92,4.29-3.49,7.38,8.18,14.2,16.14,28.73,24.35,42.66.7,1.2.74,2.2,1.26,3.02M99.3,3.31l-1.4,102.41h-2.8l.7-70.16-1.9.73c-3.58,7.23-7.98,13.76-12.06,20.54-6.47,10.74-12.82,21.63-19.33,32.27-2.47,4.03-4.99,10.94-10.37,11.64-8.97,1.17-11.17-7.24-14.79-13.54-10.34-17.97-20.37-35.91-30.21-54.19-.11-.2-.51-.21-.67-.52-1.94-3.93-2-8.42,1.17-11.65,3.69-3.77,8.42-3.16,13.35-3.16l57.78,1.08c4.3.22,9.01-.73,13.05.96,1.11.47,1.57,1.27,2.57,1.68,2.4-.48,1.57-2.78,1.73-4.59.06-.7.33-1.33.37-2.09.16-3.43-.15-6.92-.01-10.36"/>
  <path class="cls-1" d="M105.25,101.28c1.08.48,2.27.58,3.3-.13l.23-24.73c-1.35-1.12-3.61-1.23-3.6,1.11.34,7.25-.79,14.77-.32,21.98.04.62.06,1.24.39,1.77M107.7,106c-3.32.6-6.45-2.14-6.79-5.83-.32-3.36.28-6.82.32-10.12.05-3.44-.58-12.42.47-15.02.54-1.33,2.27-3.26,3.62-3.42,3.88-.46,7.41,1.62,7.49,6.27.01.81-.33,1.52-.33,2.33-.06,6.96.13,13.92-.06,20.88-.55,2.61-2.32,4.46-4.73,4.9"/>
  <path class="cls-1" d="M106.17,57.92c-2.05,1.77.06,4.61,2.35,3.58,2.66-1.2.11-5.7-2.35-3.58M104.44,65.4c-.08-.04-.1-.35-.24-.44-.4-.25-.85-.26-1.3-.63-1.87-1.51-1.98-5.35-1.1-7.45.82-1.98,3.04-3.65,5.18-3.93,3.68-.49,7.11,2.8,7.18,6.46.1,4.92-5.35,8.3-9.72,6"/>
</svg>