<?xml version="1.0" encoding="UTF-8"?>
<svg id="Ebene_1" xmlns="http://www.w3.org/2000/svg" version="1.1" viewBox="0 0 133.45 132.58">
  <!-- Generator: Adobe Illustrator 29.5.0, SVG Export Plug-In . SVG Version: 2.1.0 Build 137)  -->
  <defs>
    <style>
      .st0 {
        fill: #fe5200;
      }
    </style>
  </defs>
  <path class="st0" d="M104.43,122.43c-.79.41-1.94-.55-2.68-.2-.29.14-.29,1.63-1.44,2.04-8.27,2.94-24.31,3.24-30.93-3.2,4.11-2.43,8.93-4.91,10.69-9.29l7.8-1.46c1-3.74-4.69-1.1-5.84-1.94-.06-2.26,3.32-3.53,3.66-4.06.21-.34-.61-1.77-.3-2.74,1.46-4.6,2.96-8.63,2.48-13.65,7.22.48,14.6-1.51,20.45-5.84v23.86c-.87,3.3-7.53,2.37-9.26-.33l-4.34,4.28,4.31,3.4c2.16-3.84,8.12-1.54,11.99-6.06l-.6-25.41,9.59-11.44c2.04.93,3.59,2.97,4.24,5.08,5.62,18.02-3.12,38.34-19.84,46.94M66.95,120.74l-5.32-2.7.95-2.82c-3.6.83-9.38-3.76-3.04-4.29,3.21-.27,7.57.93,9.9.91,1.96-.02,4.62-2.58,7.73-.51.68.88-8.46,9.43-10.22,9.41M21.69,118.12l1.93-1.92c-5.24,1.08-3.89-2.36-5.15-3.67-.44-.46-1.97-.01-2.69-.88-8.55-10.27-11.39-31.43-2.88-42.21,2.83,6.95,12.18,9.34,10.73,18.5,3.49,1.12,1.02-3.8,2.46-3.91,6.87,1.29,12.54,5.17,19.93,3.91-1.09,7.19,1.75,14.59,5.84,20.44l-24.2-.08-2.07-8.68,2.89-.49-4.23-3.34-2.46,2.51c2.79,2.67,1.06,8.11,2.05,9.89,2.4,4.31,23.24,3.25,28.15,2.65,4.51,1.46,3.27,6.63,8.19,7.24l4.33,4.91c-15.32,4.7-29.23,4.77-42.82-4.88M23.63,60.68v17.53c-2.07.03-4.18-2.42-5.42-3.85-1.77-2.04-2.98-6.2-5.28-7.34l6.81-7.87s3.89,1.53,3.89,1.53ZM7.96,40.64c.22-1.79,1.67-1.35,1.78-1.57.71-1.55.29-4.01,2.85-8.81.6-1.13-.88-5.42,3.25-3.67-2.06-3.33,1.65-4.06,3.86-6.33,1.11-1.13,1.63-2.82,2.92-3.94,6.07-5.27,18.89-8.68,26.8-8.22,5.18.3,10.3,2.11,15.1,3.89.9,1.2-12.39,8.15-10.74,11.63l-8.73.05c.68,3.19,5.94,1.36,6.82,1.95-2.85,4.15-3.58,8.35-4.94,12.9-.24.82-1.76.72-1.74,1.16.08,1.63,1.66,4.15.79,6.34-7.14.67-14.16,2.22-20.4,5.89.35-6.53-.47-13.49,0-19.96.48-6.53,2.01-6.43,8.76-6.32-.83,1.51-.64,2.94,1.45,2.91,3.04-1.86,2.8-6.88-.96-6.84-.58,0-.32,1.78-1.13,1.97-1.79.43-4-.31-6.25.41-2.22.71-5.7,4.35-3.82,6.4l-2.91.97,2.99.54-.23,21.22c-2.69,2.19-5.12,4.62-7.68,6.94-1.95,1.78-1.18,3.77-4.65,3.23-2.88-6.71-4.07-15.49-3.18-22.75M70.96,16.26c2.21,1.73,5.35,5.14,7.18,7.4h-20.44c1.67-5.96,7.06-12.26,13.26-7.4M47.96,87.94l13.45-1.23c5.54-7.97,15.92,4.08,24.52,1.24,1.07,1.07-3.12,18.5-6.27,20.06l-25.87-.09c-3.29-6.16-6.15-12.84-5.84-19.98M85.94,46.07c-4.85-2.06-16.76,5.48-18.99,5.48s-14.13-7.54-18.98-5.49c-.1-7.11,2.39-14.2,6.03-20.19,5.56.53,22.62-2.08,26.15,1.15,2.17,1.99,6.91,17.97,5.8,19.04M81.55,64.55l-12.16-12.16c5.35-2.82,10.96-2.88,16.54-4.37.49,2.41-2.64,16.56-4.38,16.53M81.56,69.45l4.38,16.55c-2.57.97-16.59-2.32-16.53-4.38l12.16-12.17h0ZM53.77,66.18c3.44-4.77,8.17-8.21,12.2-12.3.83,1.02,2.11,1.46,3.07,2.28.74.63,1,2.13,1.8,2.57l1.44-1.94c0,.85.45,1.77,1.05,2.34,1.58,1.48,4.71,4.4,5.85,5.85,2.23,2.84-1.23,8.78-4.9,6.44.35,3.09-4.76,9.24-7.35,9.39-2.66.16-13.86-10.6-13.18-14.63M47.97,48.02l16.54,3.9c.68.9-8.21,6.52-9.37,8.02-.23.3-1.15,5.5-3.27,5.6l-3.9-17.52ZM64.52,81.14c1.43,2.04-14.41,6.14-16.55,4.85l3.91-16.55c.7-.52,9.51,12.29,12.64,11.7M50.74,67.84c-.2,1-2.07,1.84-2.53,3.31-1.37,4.37-2.22,10.3-2.18,14.86-3.13.18-6.27-.15-9.3-.89-1.55-.38-1.51-1.71-1.7-1.77-2.43-.76-7.19-.13-9.29-3.83l-.21-25.05c6.45-3.95,13.01-5.74,20.5-6.45-2.39,4.3,5.07,18.15,4.73,19.83M83.08,67.01c0-3.24,6.88-13.62,4.8-18.99,3.89.38,7.59,1.29,11.34,2.39.27.08.36,1.14.55,1.2,1.73.57,6.52.13,8.59,2.91l-.19,25c-1.13,3.29-16.56,7.53-20.29,6.49,1.84-5.53-4.79-15.06-4.8-19M116.61,71.97c-1.63,2.52-2.76,4.71-6.32,6.24v-21.42c1.21-1.47,9.2,7.87,9.59,9.49.54,2.23-2.16,3.99-3.27,5.69M71.91,10.91c5.74-2.03,11.3-3.1,17.42-2.81,7.52.36,19.31,5.21,24.86,11.16,12.13,13.02,15.67,30.09,7.28,46.3-3.04-8.47-13.74-9.28-11.2-19.48l-3.43,4.87c-6-2.81-12.3-4.34-18.9-4.92-.15-1.68.05-3.37-.3-5.05-.73-3.42-2.61-10.94-3.85-13.92-.39-.93-2.13.2-1.74-1.43h23.85c4.87,1.5-1.21,10.48,2.45,13.63l3.87-4.88-1.95.49c1.23-5.27-.11-8.9-4.82-11.6l-24.68.22c-1.42-2.71-12.36-10.04-8.85-12.58M122.98,67c.04-1.34,2.71-5.19,3.33-7.33C134.87,30.33,110.15.68,79.83,6.37c-3.39.64-10.66,4.56-12.88,4.57-1.74,0-9.99-4.05-13.88-4.55C24.42,2.72,1.54,26.49,6.36,55.07c.65,3.84,3.54,9.6,3.49,12.93-.05,3.06-3.02,8.15-3.66,11.75-2.83,15.9,4.35,33.49,18.11,42.1,3.82,2.39,9.8,3.43,11.02,7l1.05-1.83c6.55,2.45,13.69,1.96,20.4.42,3.09-.71,7.51-3.52,10.18-3.52s7.14,2.76,10.19,3.5c29.95,7.23,54.44-17.66,50.4-47.5-.51-3.75-4.62-11.4-4.57-12.92"/>
  <path class="st0" d="M112.7,33.72l-8.51-1.55c-.83-.15-1.48.7-1.11,1.46l5.78,12.01c.21.44.84.42,1.03-.03l4.01-9.72c.39-.94-.19-1.99-1.19-2.17"/>
  <path class="st0" d="M32.44,21.77l-1.55,8.51c-.15.83.7,1.48,1.46,1.11l12.01-5.78c.44-.21.42-.84-.03-1.03l-9.72-4.01c-.94-.39-1.99.19-2.17,1.19"/>
  <path class="st0" d="M20.58,99.15l8.51,1.34c.83.13,1.48-.61,1.11-1.27l-5.78-10.4c-.21-.38-.84-.36-1.03.03l-4.01,8.43c-.39.81.19,1.72,1.19,1.88"/>
  <path class="st0" d="M102.02,112.34l.44-8.61c.04-.84-.76-1.41-1.38-.97l-9.74,6.83c-.36.25-.27.88.13,1.02l8.8,3.1c.85.3,1.69-.37,1.75-1.38"/>
</svg>