<?xml version="1.0" encoding="UTF-8"?>
<svg id="Ebene_1" data-name="Ebene 1" xmlns="http://www.w3.org/2000/svg" viewBox="0 0 142.3 138.74">
  <defs>
    <style>
      .cls-1 {
        fill: #fe5200;
        stroke: #fe5200;
        stroke-miterlimit: 10;
      }
    </style>
  </defs>
  <path class="cls-1" d="M23.06,90.26c.15.23.36.16.56.21-.06-.22.09-.62-.1-.89-.15-.23-.36-.16-.56-.21.06.22-.1.62.1.89Z"/>
  <path class="cls-1" d="M25.37,92.66c-.11-.3-1.04-2.08-1.13-2.16-.15-.13-.45,0-.62-.03.22.81,1.12,1.82,1.75,2.19Z"/>
  <path class="cls-1" d="M29.98,110.21c.08-.7-.07-.73-.66-.88.12.32-.1.96.66.88Z"/>
  <path class="cls-1" d="M27.57,107.3c.21.34.92,1.8,1.13,2,.15.14.45,0,.62.04-.35-.94-.97-1.6-1.54-2.35-.35-.46,0-.72-.87-.94.33,1.2.27.62.66,1.26Z"/>
  <path class="cls-1" d="M30.93,28.02c.47-.61,1.36-1.27,1.45-2.05-.67-.14-.51.64-.72.82-.64.56-1.25,1.01-1.69,2.03,1.1-.32.45-.15.96-.8Z"/>
  <path class="cls-1" d="M117.67,93.21c.77.78.72.05.87-.55-.29.15-.66.13-.87.55Z"/>
  <path class="cls-1" d="M115.47,108.02l-.03.86-.57.07-1.16,1.93.66-.16.02-.7c.7.03,1.53-1.35,1.73-1.99-.18.05-.45-.04-.66,0Z"/>
  <path class="cls-1" d="M118.64,91.99c-.16.2-.05.49-.1.67.13-.06.39.03.56-.21.16-.23.05-.52.1-.66-.18.05-.42-.02-.56.21Z"/>
  <path class="cls-1" d="M26.03,93.54c.16-.87-.29-.66-.66-.88.12.33-.1.96.66.88Z"/>
  <path class="cls-1" d="M114.6,29.04c-.17.85.41.94.74,1.33.36.43-.04.64.8.86-.09-.26.02-.69-.25-.97l-1.29-1.23Z"/>
  <path class="cls-1" d="M117.93,48.85c.12.21.81,1.38.88,1.43.17.13.46,0,.62.03-.38-1.03-.93-1.22-1.43-2.19-.44.33-.28.34-.07.72Z"/>
  <path class="cls-1" d="M29.98,28.82c-.18.05-.42-.02-.56.21-.16.19-.05.51-.1.66.93-.47.39-.24.66-.88Z"/>
  <path class="cls-1" d="M119.42,50.32c.05.15-.06.48.1.66.14.23.36.17.56.21-.16-.6.2-.67-.66-.88Z"/>
  <path class="cls-1" d="M130.66,59.14l-2.46-1.05c0-.7-.72-1.54-.84-2.01-1.07-4.2-1.75-8.1-3.49-12.07-1.28-2.93-2.85-5.76-4.54-8.39-.35-.55.16-.85-.79-1.09.26,1.02.21.7.58,1.39,2.96,5.57,5.62,11.4,7.26,17.63.19.73.06,1.6.33,2.53.26.93,1.3,1.58-.75,2.01-1.87.39-1.57-.6-2.09-1.57-.84-1.57-1.92-2.91-2.91-4.39-.49-.73.36-.63-.88-.92.44,1.61,1.55,2.5,2.35,3.79.15.24.07.67.23.98.35.7,1.08.96.68,2.11-.04.12-1.31,1.01-1.51,1.12-.3.16-.72.1-1.07.24-.31.13-.67.86-1.29.49-.21-.99-1.29-.95-.7-.07.2.29.57.29.34.76-.08.17-2.11,2.34-2.25,2.43-.9.54-1.39-.33-2.24-.57-3.45-.98-7.52-1.85-11.09-2.5-5.77-1.06-12.12-1.46-17.99-1.97-2.46-.21-4.84-.07-7.23-.22-.46-.03-2.08-.17-2.37-.26-.8-.25.14-2.19-.9-2.52-.62.16-1.25.29-1.87.47-1.54.47-3.96,1.84-5.39,2.07-3.3.53-7.45.12-10.94.46-2.19.21-4.34.27-6.58.43-3,.22-6.89,1.02-9.88,1.52-4.2.7-8.56,1.24-12.61,2.52-1.16.36-1.77,1.32-3.05.45-.72-.49-.63-1.35-.34-2.08.12-.3,1.37-1.42.66-1.53-.55-.09-1.06,2.53-2.67,1.46-.14-.09-.2-.43-.42-.56-.74-.43-1.68-.67-2.28-1.46.22-.22.47-.41.61-.71.64-1.38,1.47-2.8,1.8-4.23-.98.51-1.21,1.68-1.65,2.63-.13.29-.57.41-.72.83-.11.3.09.73-.18.96-.64.53-2.06.71-2.27-.36-.29-1.52.31-1.78.64-2.86.46-1.49.58-3.36,1.12-5.03.99-3.11,2.2-6.13,3.68-8.82.36-.65.72-1.97,1.14-2.77.87-1.64,2.54-3.74,3.06-5.42-.17.04-.58-.07-.64.01-.06.08.04.56-.13.86-.08.15-.43.2-.55.38-2.62,4.04-4.66,8.75-6.47,13.21-.92,2.28-1.88,6.02-2.47,8.5-.28,1.16.36,2.33-1.3,2.65-2.55.48-3.52.67-5.55,2.12-4.92,3.52-6.65,9.68-3.36,15.03.43.71,2.18,2.46,2.94,2.65-.24-1.23-.35-.42-.83-.94-.08-.09-.02-.39-.12-.51-2.89-3.28-3.56-7.01-2.11-11.33.05-.14,1.31-2.12,1.53-2.41.69-.93,2.95-2.6,3.89-3,9.6-4.08,18.6,6.59,13.42,15.19-2.59,4.31-7.62,5.43-12.38,4.54-.67-.13-2.24-1.24-3.4-1.53.03.18-.09.45.04.62.22.3,1.95.84,2.36,1.05.14.07.18.4.4.52.87.48,3.46-.04,4.2,1.01.3.42.18,1.14.33,1.64,1.44,4.75,2.62,9.51,4.7,13.94,1.34,2.85,3.03,5.27,4.59,7.91.17.29.21.86.28.93.11.12.46-.01.63.03-.42-1.51-2.29-3.95-3.06-5.42-2.26-4.28-3.85-8.6-5.16-13.22-.34-1.21-.45-2.33-.78-3.39-.33-1.08-1.22-1.73-.21-3.09,1.14.25,1.04,1.42,1.37,2.14.95,2.06,1.78,3.42,2.98,5.35.18.29.2.86.28.93.11.11.47-.02.63.03-.53-1.89-2.38-4.28-3.17-6.15-.29-.68-.03-1.54-.78-2.18.28-.03.6-.2.83-.37.92-.72,1.86-1.08,2.88-1.74.18-.12.2-.51.38-.54,1.2-.21,1.71,1.53,1.94,1.55.77-.55-.55-1.31-.57-1.63-.02-.31,0-.88.37-.97,1.23-.09,2.08.66,2.98.92,6.53,1.95,15.34,3.35,22.21,4.1,2.06.22,4.47-.17,6.58,0,3.83.3,7.7.91,11.6.9l6.61,2.4c1.59,0-.11-2.23,1.57-2.6,2.62-.07,5.25-.03,7.85-.26,3.12-.27,6.46-.32,9.62-.69,6.56-.76,14.22-2.01,20.53-3.8,1.19-.34,4.21-2.15,4.76.04.24.94-.66.66-.61,1.59.62.12.58-.69,1.02-.84,1.19-.41,1.55.57,2.21.79.35.12.8,0,1.16.15.3.13,1.4.66,1.61.8.91.62-.12,1.02-.36,1.57-.85,1.93-1.45,3.93-2.49,5.64-.73,1.2-1.98,2.33-2.5,3.74.24-.07.46.12.76-.22.27-.31.79-1.47,1.07-1.9,1.03-1.52,3.06-4.3,3.72-6.05.25-.66.41-2.62,1.35-2.81,2.12-.44.78,1.5.56,2.32-1.84,6.9-3.3,12.28-6.66,18.46-1.06,1.94-3.26,4.39-3.87,6.43.83-.21.44-.42.8-.86,4.73-5.87,8.05-14.15,10.1-21.47.39-1.38.28-2.08.84-3.55.39-1.03.08-1.45,1.48-2.03,2.94-1.22,4.19-1.87,5.97-4.33,4.53-6.27,1.74-13.37-4.66-16.64ZM26.01,64.69c0-1.39,2.25-1.4,3.19-1.66,1.23-.34,1.85-.42,3.04-.69,3.79-.86,7.67-1.92,11.67-2.37,1.23-.14,2.89.13,4.11-.23,2.31-.69,5.13-.41,7.72-.65,3.76-.35,8.18-1.19,12.04-.64,1.46.21,4.28,1.79,5.83,2.29,2.04.66,2.03,0,2.01-1.95l.33-.33c2.22.18,5.08-.34,7.22-.04,2.23.31,4.45.72,6.78.9,5.58.43,10.84.87,16.29,2.12.85.19,2.62.17,3.06.35,1.17.5,2.61.88,3.91,1.24.96.27,2.36.06,2.85,1.11.28.61-.38.91-.59,1.6-.31,1.03-.3,2.52-.65,3.62l-1.16.27h-37.5s-.45-.22-.45-.22c-.19-1.97.19-2.79-2.07-2.1-2.04.63-4.13,1.79-6.25,2.3l-39.57-.11-.32-.34c-.39-.9-.38-2.25-.65-3.08-.17-.53-.8-.72-.81-1.41ZM115.3,77.02c-4.15,1.79-9.6,2.49-14.33,3.21-6.4.97-12.89,1.38-19.36,2.13-.71.08-5.19.08-5.6-.12-.89-.44.01-2.37-.98-2.94l-7.94,3c-1.93-.11-4.46.32-6.32.06-4.06-.57-8.26-.82-12.28-1.31-2.18-.26-3.99-.27-6.14-.66-5.03-.89-10.78-1.44-15.26-3.38-.48-.2-1.19-.18-1.71-.37-.06-.09.6-1.81.71-2.04.15-.3.48-.32.6-.54.34-.62.34-2.54.76-3.35l.45-.21h39.91c1.87.54,3.76,1.56,5.54,2.13,2.04.65,2.4.45,2.27-1.77l.52-.36,39.1.25c.07.72-.05,1.41.17,2.13.22.71,1.28,2.04,1.46,2.49.72,1.81-.56,1.21-1.56,1.64ZM128.46,79.66c-5.81,1.2-12.11-2.69-12.55-8.82-.31-4.24.96-8.41,4.85-10.52,3.35-1.81,8.82-1.8,11.96.61.45.35,2.06,2.07,2.37,2.57,1.08,1.77,2.1,5.56,1.6,7.71-.97,4.23-3.72,7.51-8.22,8.44Z"/>
  <path class="cls-1" d="M116.75,31.26c-.16-.12-.46.01-.62-.03.39,1.21.9,1.43,1.53,2.37.14.21.1.77.26.9.15.12.46-.01.62.03-.26-1-.94-1.8-1.55-2.57-.14-.17-.11-.59-.24-.69Z"/>
  <path class="cls-1" d="M22.75,53.51l1.74-2.97c-.7-.15-.96.52-1.31.99-.59.8-.89,1.39-1.1,2.3.17-.09.53-.02.67-.32Z"/>
  <path class="cls-1" d="M29.32,29.7c-.19.1-.45.02-.68.31-.25.32-.13.55-.2.78.19-.1.44-.02.68-.31.26-.32.13-.56.2-.79Z"/>
  <path class="cls-1" d="M27.46,32.78c-.08-1.16.58-.75.78-1.02.18-.24.12-.71.2-.97-.91.48-1.23,1.22-1.53,2.19.19-.05.42.03.55-.21Z"/>
  <path class="cls-1" d="M112.05,53.56c-5.19-3.8-11.61-5.69-17.71-7.21-3.49-.88-7.04-1.45-10.57-2.16l-7.62-.28c-.92-.31-.25-2.29-1.13-2.8l-7.91,2.82c-8.85,0-17.4,2.02-25.49,4.8-2.97,1.02-7.43,2.92-9.93,4.99-.43.36-.64-.03-.86.8,2.65-.82,6.57-3.58,9.6-4.79,5.22-2.09,14.77-4.37,20.56-4.9,5.25-.49,7.45.34,12.17,1.87.69.22,1.35,1.06,2.32.34l.3-2.12c.31-.22,6.73-.17,7.55-.07,2.94.37,7.14,1.12,10.06,1.79,1.08.25,3.28,1.26,4.27,1.44,2.03.36,3.93.9,5.97,1.72,2.55,1.03,4.77,2.33,7.27,3.71.76.42,1.33.82,2.17,1.01-.51-.98-.37-.48-1.02-.96Z"/>
  <path class="cls-1" d="M114.36,54.78c-.38-.28-.9-.17-1.29-.26.46.88.39.59,1.32.88-.04-.16.09-.46-.03-.62Z"/>
  <path class="cls-1" d="M27.77,56.95c.94-.41,1.66-1.35,2.2-1.64.31-.17.79-.07.86-.13.08-.07-.03-.48,0-.65-1.32.41-1.23.64-2.27,1.46-.64.5-.49-.15-.8.96Z"/>
  <path class="cls-1" d="M117.02,57.61c.1-.77-.6-.54-.88-.66.16.58.16.75.88.66Z"/>
  <path class="cls-1" d="M116.14,56.95c-.06-.23.09-.56-.21-.78-.2-.16-.49-.05-.67-.1.1.2.02.44.31.68.21.18.41.13.56.2Z"/>
  <path class="cls-1" d="M26.89,57.61c.72.09.72-.08.88-.66-.28.12-.98-.11-.88.66Z"/>
  <path class="cls-1" d="M114.6,55.96c.2.16.49.05.66.1-.06-.13.03-.39-.21-.56-.23-.16-.5-.05-.66-.1.05.19-.01.42.21.56Z"/>
  <path class="cls-1" d="M29.16,83.08c-.32-.25-1.98-1.98-2.27-1.68-.27.28.11.62.4.81.94.64,1.62,1.27,2.67,1.61-.22-.83-.39-.42-.8-.74Z"/>
  <path class="cls-1" d="M112.86,84.7c-.42.1-.88.1-1.29.25-.1.19.02.46-.02.63.95-.25.88-.05,1.32-.88Z"/>
  <path class="cls-1" d="M95.15,91.92c-3.72,1.03-8.11,1.64-12.03,2.24-1.48.22-5.36.42-6.79.24-.18-.02-.39,0-.55-.11l-.3-2.12-.89-.23-6.46,2.34c-3.29.58-6.42-.39-9.56-.78-2.06-.26-5.2-.41-7.18-.94-6.27-1.66-12.17-3.49-17.95-6.86-1.13-.66-2.29-1.51-3.49-1.9.04.16-.09.48.03.63.13.16.69.12.9.26,3.22,2.17,6.34,4.03,9.99,5.45,3.1,1.2,6.27,1.82,9.41,2.66,3.31.89,8.15,1.92,11.59,2.23,1.49.14,3.64-.26,4.99.05.74.17,2.55,1.13,3.4,1.43,1.58.55,3.2,1,4.76,1.62.83.05.42-2.05.58-2.52.32-.97,5.31-.48,6.44-.58,2.42-.21,4.93-1.09,7.25-1.53.84-.16,1.88.11,2.79-.06,2.22-.42,5.34-1.61,7.56-2.32,4.04-1.3,7.19-2.44,10.81-4.77.55-.36.84.16,1.09-.79-.69.18-1.87.51-2.51.9-3.93,2.44-9.07,4.1-13.88,5.44Z"/>
  <path class="cls-1" d="M114.93,83.58c.12-.14.06-.51.16-.6.2-.18,1.18.11,1.05-.71-.86.05-1.61.96-2.28,1.45-.65.48-.51,0-1.01.97.61-.15,1.69-.65,2.08-1.12Z"/>
  <path class="cls-1" d="M62.5,31.22c1.84-.26,3.47-1.03,5.47-.59,2.31,1.11,4.76,2.03,7.26,2.61.76-.68-.17-2.46.9-2.66.54-.1,2.49-.08,3.06.01.29.05.53.33.74.36,3.25.47,6.68.71,9.64,1.77.83.3,2.02.56,2.76.76,5.46,1.46,10.91,3.9,15.56,6.78.58.36-.05.4,1.25.67-.49-.95-.31-.48-1.02-.96-6.63-4.48-15.64-8.06-23.71-9.34-1.57-.25-2.12,0-3.72-.49-1.26-.38-3.39-.32-4.75-.48l-.33-.33c-.22-.69.35-1.82-.57-2.2-1.18.37-2.47.72-3.63,1.13-3.05,1.07-3.64,1.2-6.88,1.68-4.16.62-7.97,1.33-11.99,2.27-2.44.57-4.8,1.72-7.07,2.37-.36.1-.52.58-.82.72-2.34,1.12-4.93,2.01-7.32,3.45-.29.18-1.43,1.27-1.67,1.4-.31.17-.79.07-.86.13-.08.07.03.48,0,.65,1.52-.37,4.63-2.59,6.34-3.44,7.21-3.57,13.22-5.14,21.38-6.29Z"/>
  <path class="cls-1" d="M110.45,41.83c-.04-.17.09-.52-.02-.63-.11-.11-1.02-.19-1.29-.25.46.89.39.59,1.32.88Z"/>
  <path class="cls-1" d="M111.32,42.49c.08-.75-.51-.55-.88-.66.14.6.18.74.88.66Z"/>
  <path class="cls-1" d="M34.78,40.95c-.28.07-1.18.13-1.29.25-.11.11.01.47-.02.63.72-.23,1.1-.02,1.32-.88Z"/>
  <path class="cls-1" d="M33.47,41.83c-.36.11-.95-.09-.88.66.69.08.74-.06.88-.66Z"/>
  <path class="cls-1" d="M114.61,96.74c-.69-.08-.74.06-.88.66.34-.12.96.09.88-.66Z"/>
  <path class="cls-1" d="M113.73,97.4c-.28.09-.59.09-.85.26-.12.17,0,.46-.03.62.22-.08.74-.12.85-.26.12-.17,0-.46.03-.62Z"/>
  <path class="cls-1" d="M33.28,99.74c-.42-.29-1.09-.58-1.14-.63-.11-.1.01-1.08-1.13-.84l1.16,1.25c1.3.76,2.81,2.35,4.32,2.71-.69-1.32-2.01-1.68-3.22-2.5Z"/>
  <path class="cls-1" d="M107.39,101.61c-.11.11.02.47-.02.63,1.51-.32,3.45-2.11,4.68-3.23.33-.3.58.12.8-.74-1.66.64-3.08,2.12-4.54,3.09-.27.18-.82.15-.92.25Z"/>
  <path class="cls-1" d="M81.17,111.07c-1.61.18-3.6-.13-5.25-.05l-.33-.33-.13-1.86-.67-.23-7.02,2.44c-3.49.15-6.89-.29-10.3-.89-4.28-.76-10.78-3.05-14.66-4.89-2.05-.97-4.14-2.52-6.3-3.03.36.7,3.64,2.53,4.58,3,6.57,3.3,15.64,5.89,23.18,6.7,4.02.43,4.72.88,8.4,2.14.83.28,1.73.42,2.56.73l.59-2.84c1.93-.04,3.84.01,5.75-.28,2.56-.4,5.98-.97,8.46-1.65,5.22-1.43,10.05-3.45,14.74-6.12.76-.43,2.41-.82,2.62-1.67-2.23.47-4.27,2.14-6.31,3.07-5.35,2.45-13.81,5.08-19.89,5.76Z"/>
  <path class="cls-1" d="M105.58,118.42c-7.27,5.87-16.73,10.4-26.15,11.7-.46.06-3.43.04-3.64-.11-.5-.73.21-1.87-.78-2.29-3.79,1.14-7.7,3.69-11.65,1.77-8.21-1.02-15.57-4.68-22.16-8.93-.3-.19-.53-1.07-1.38-.82v.66c.9-.27.94.49,1.25.68,5.14,3.17,9.68,6,15.48,7.53,2.63.69,5.05,1.53,7.79,2.1,1.6.33,2.18.34,3.73.88,2.32.81,4.68,1.48,6.94,2.46.99-.48.25-2.61.78-2.97,1.52-.11,2.9-.11,4.41-.42,4.53-.94,8.78-2.07,12.9-3.79,4.21-1.75,8.2-4.51,11.69-7.22.68-.53,1.59-1.17,2.32-1.62.32-.2.49-.5.29-.72l-1.81,1.1Z"/>
  <path class="cls-1" d="M39.6,20.14v-.66c-.11.08-1.04-.1-.88.66h.88Z"/>
  <path class="cls-1" d="M101.27,17.69c.07.07.64.1.93.28.92.55,1.93,1.39,2.77,2.07.21.17.58.53.66,0,.06-.4-2.06-1.37-2.22-1.96-.85-.49-1.22-.77-2.17-1.02.04.16-.09.52.03.63Z"/>
  <path class="cls-1" d="M54.24,11.56c2.86-.96,6.41-1.76,9.2-2.43,2.2-.53,4.18-.06,6.16.59,1.75.58,3.48,1.15,5.19,1.83,1.23-.25.57-1.55.81-2.29l.33-.33,5.19.2c4.87,1.36,9.84,2.58,14.47,4.85,1.72.84,3.81,2.59,5.65,3.07-.21-.84-1.61-1.37-2.31-1.75-2.65-1.45-5.12-2.8-8.12-3.97-3.14-1.23-7.6-2.7-10.99-3.07-.94-.1-2.93.18-3.59-.14-.87-.41-.64-2.73-1-2.76-.74.2-1.52.36-2.25.6-3.86,1.29-6.27,2.13-10.3,2.87-3.49.64-6.02,1.13-9.26,2.6-2.4,1.09-5.06,2-7.41,3.36-2.4,1.38-4.6,3.29-6.42,4.68,2.03-.95,3.98-2.35,5.98-3.53,2.38-1.41,6.07-3.52,8.67-4.39Z"/>
  <path class="cls-1" d="M106.75,20.88c-.16-.13-.82-1.31-.99-.26l2.5,1.95c.34-.35-1.28-1.5-1.51-1.69Z"/>
  <path class="cls-1" d="M37.08,117.31c-.31-.35.03-.19-.71-.76-.18-.14-.23-.43-.31-.48-.16-.1-.91-.24-.85.17.9-.21.58.46.91.79.16.15,1.67,1.42,1.8,1.26.25-.97-.62-.72-.85-.98Z"/>
  <path class="cls-1" d="M113.56,44.12c-.34-.28-.53-.96-1.22-.84-.11.79,0,.49.34.71.65.42.86,1.02,1.72.9.12-.68-.55-.54-.83-.78Z"/>
  <path class="cls-1" d="M25.95,49.25l1.06-1.81c-.89.05-.41,1.01-1.42,1.06l-1.15,1.91.7-.16c-.25-1.02.41-.59.81-.99Z"/>
  <path class="cls-1" d="M33.86,114.32c-.11-.13-.06-.46-.19-.6-.12-.13-.49-.09-.71-.3-.28-.26-.86-2.14-1.47-1.57-.25.24,1.21,1.74,1.43,1.96.14.13,1.36.93,1.45,1.02.12.12.04.44.05.62,1.31-.24-.4-.95-.55-1.14Z"/>
  <path class="cls-1" d="M31.58,43.28c-.09-.11-1.51.93-1.77,1.1-.32.21-.49.49-.29.75.6-.35,1.27-.28,1.16-1.13l.73-.03.16-.7Z"/>
  <path class="cls-1" d="M38.99,118.9s-.04.79.35.93l.35-.58c-.06-.28-.63-.29-.7-.35Z"/>
  <path class="cls-1" d="M38.64,118.21l-.8.34c.18.47,1.08.29,1.16.35-.06-.06-.04-.6-.35-.69Z"/>
  <path class="cls-1" d="M37.89,20.98c-.32.1-.66.18-1,.23l-.15.71c.92-.22.81-.35,1.15-.93Z"/>
  <path class="cls-1" d="M38.81,20.28c-.92-.17-.69.3-.92.7.39-.12,1,.09.92-.7Z"/>
  <path class="cls-1" d="M112.72,27.37l.37-.36-.61-.6h-.36c-.08.48.03.94.61.96Z"/>
  <path class="cls-1" d="M30.23,98.14h.93c-.13-.54-.58-.55-.93-.7.04.2-.04.48,0,.7Z"/>
  <path class="cls-1" d="M30.23,97.44c-.14-.64-.2-.78-.93-.7-.11.82.63.57.93.7Z"/>
  <path class="cls-1" d="M30.32,110.09c-.54.35-.17.45-.12.97h.73s0-.36,0-.36l-.61-.61Z"/>
  <path class="cls-1" d="M31.72,43.36c.3.31,1.04-.62.73-.95-.3-.31-1.04.62-.73.95Z"/>
  <path class="cls-1" d="M114.39,29.12v-.92c-.22-.04-.5.04-.7,0,.1.3.16.62.24.92h.46Z"/>
  <path class="cls-1" d="M113.69,28.2c-.12-.37.1-1.01-.7-.92-.09.72.06.78.7.92Z"/>
  <path class="cls-1" d="M111.24,42.76l.6.61c.22-.14.51-.54.36-.74-.09-.11-.89-.3-.96.12Z"/>
</svg>