<?xml version="1.0" encoding="UTF-8"?>
<svg id="Ebene_1" xmlns="http://www.w3.org/2000/svg" version="1.1" viewBox="0 0 93.2 141.18">
  <!-- Generator: Adobe Illustrator 29.5.0, SVG Export Plug-In . SVG Version: 2.1.0 Build 137)  -->
  <defs>
    <style>
      .st0 {
        fill: #fe5200;
      }
    </style>
  </defs>
  <path class="st0" d="M26.83,48.68c-.25.13-.55.16-.85.07-.58-.19-.91-.81-.71-1.41l7.58-23.43c.19-.58.81-.91,1.41-.71.58.19.91.81.71,1.41l-7.58,23.43c-.1.29-.3.52-.55.65h0Z"/>
  <path class="st0" d="M37.11,48.82c-.07.04-.15.07-.23.09-1.22.31-2.4.66-3.49,1.05-.58.2-1.22-.1-1.42-.68s.1-1.22.68-1.42c1.16-.41,2.4-.78,3.69-1.11.6-.15,1.2.21,1.35.8.13.51-.12,1.03-.57,1.26h0Z"/>
  <path class="st0" d="M37.04,19.26c-.33.17-.74.16-1.08-.04-.52-.32-.68-1-.37-1.53.88-1.44,1.86-2.79,2.92-4.01,1.8-2.09,3.87-3.87,6.15-5.28,1.84-1.15,3.84-2.06,5.93-2.71.59-.18,1.21.14,1.4.73.18.59-.14,1.21-.73,1.4-1.91.6-3.73,1.44-5.42,2.49-2.08,1.29-3.98,2.92-5.64,4.84-.98,1.13-1.88,2.37-2.7,3.71-.11.18-.27.32-.44.41h-.01Z"/>
  <path class="st0" d="M78.61,14.4c-.42.21-.94.14-1.28-.19-3.52-3.46-8-5.85-12.96-6.92-2.29-.5-4.62-.69-6.94-.58-.62.03-1.14-.44-1.17-1.06s.44-1.14,1.06-1.17c2.5-.12,5.04.09,7.52.62,5.37,1.16,10.22,3.77,14.04,7.51.44.43.45,1.13.01,1.58-.09.09-.18.16-.29.21Z"/>
  <path class="st0" d="M83.94,44.81c-.24.12-.52.16-.81.08-.59-.17-.93-.78-.76-1.37.47-1.69.9-3.26,1.25-4.68,1.19-4.82,1.22-9.42.1-13.68-.32-1.23-.75-2.45-1.26-3.6-.25-.56,0-1.22.56-1.47.56-.25,1.22,0,1.47.56.56,1.27,1.03,2.6,1.38,3.95,1.21,4.62,1.18,9.59-.09,14.77-.36,1.44-.78,3.04-1.27,4.76-.09.31-.3.55-.57.68h-.01Z"/>
  <path class="st0" d="M75.23,70.58c-.28.14-.61.16-.91.04-.57-.23-.85-.87-.62-1.44,1.16-2.91,2.46-6.45,3.79-10.26.62-1.77,1.22-3.58,1.82-5.4.25-.78.5-1.56.75-2.32.19-.59.81-.91,1.4-.72s.91.81.72,1.4c-.25.78-.5,1.56-.75,2.34-.6,1.83-1.21,3.65-1.83,5.43-1.33,3.84-2.65,7.42-3.82,10.36-.1.26-.3.46-.53.58h-.01Z"/>
  <path class="st0" d="M69.99,78.88c-.4.2-.89.15-1.25-.16-.46-.41-.49-1.11-.08-1.57.35-.39.69-.79,1.02-1.19.39-.48,1.09-.55,1.57-.16.48.39.55,1.09.16,1.57-.35.43-.72.86-1.09,1.28-.09.11-.2.19-.32.25h-.02Z"/>
  <path class="st0" d="M41.87,47.83c-.1.05-.2.08-.32.1-.36.06-.71.13-1.07.19l-.77.15c-.6.12-1.19-.27-1.31-.87s.27-1.19.87-1.31l.8-.15c.14-.02.29-.05.44-.08l2.82-8.63c.19-.58.82-.9,1.41-.71.58.19.9.82.71,1.41l-3.03,9.27c-.09.28-.29.52-.55.65h0Z"/>
  <path class="st0" d="M46.9,32.41c-.25.13-.56.17-.85.06-.58-.19-.9-.82-.71-1.41l1.57-4.83c.02-.07.05-.14.09-.2.79-1.39,1.74-2.62,2.81-3.66,2.21-2.14,4.95-3.45,7.91-3.79.61-.07,1.16.37,1.23.98s-.37,1.16-.98,1.23c-2.47.28-4.76,1.38-6.62,3.17-.89.86-1.69,1.9-2.36,3.06l-1.54,4.71c-.1.29-.3.52-.55.65h.02Z"/>
  <path class="st0" d="M71.07,37.07c-.26.13-.58.16-.88.06-.58-.21-.88-.85-.67-1.43.24-.67.49-1.33.75-1.98.22-2.36-.1-4.54-.95-6.47-.67-1.51-1.64-2.82-2.9-3.88-.44-.38-.92-.72-1.43-1.02-.3-.18-.6-.35-.92-.49-.55-.26-.79-.93-.52-1.48.26-.55.93-.79,1.48-.52.37.18.75.38,1.11.6.6.36,1.18.78,1.72,1.23,1.51,1.28,2.69,2.85,3.5,4.67,1.04,2.33,1.41,4.94,1.12,7.75,0,.1-.03.2-.07.3-.27.67-.53,1.35-.78,2.06-.1.28-.3.49-.54.62h-.02Z"/>
  <path class="st0" d="M65.47,56.04c-.25.13-.53.15-.82.07-.59-.17-.93-.79-.75-1.39.24-.82.49-1.66.73-2.49.38-1.35.75-2.71,1.13-4.07l.24-.88c.35-1.26.69-2.52,1.05-3.77.17-.59.78-.93,1.37-.76s.93.78.76,1.37c-.35,1.24-.7,2.49-1.04,3.74l-.24.88c-.38,1.37-.75,2.73-1.13,4.09-.24.85-.49,1.68-.73,2.52-.09.31-.3.54-.56.67h0Z"/>
  <path class="st0" d="M63.1,63.14c-.27.14-.6.17-.91.04-.57-.23-.86-.87-.63-1.44.25-.65.5-1.32.74-1.99.2-.58.84-.88,1.42-.68s.88.84.68,1.42c-.25.7-.5,1.38-.75,2.05-.11.27-.3.47-.53.59h0Z"/>
  <path class="st0" d="M61.08,85.73c-.66.34-1.33.65-2.02.93-.57.24-1.22-.03-1.45-.6s.04-1.23.6-1.45c1.29-.54,2.58-1.19,3.81-1.94.87-.53,1.72-1.12,2.55-1.75.55-.41,1.09-.86,1.62-1.33.47-.4,1.17-.36,1.57.1.41.46.36,1.17-.1,1.57-.56.5-1.15.97-1.73,1.42-.89.68-1.81,1.31-2.75,1.88-.69.42-1.39.81-2.1,1.17h0Z"/>
  <path class="st0" d="M41.03,86.58c-.3.15-.66.17-.99,0-1.4-.68-2.52-1.65-3.31-2.89-.8-1.25-1.23-2.71-1.25-4.24-.01-1.16.21-2.34.67-3.42.47-1.14,1.19-2.17,2.09-2.97,1.24-1.12,2.81-1.82,4.54-2.03,1.34-.16,2.64.17,3.91.5,1.1.29,2.13.55,3.14.5,1.52-.08,2.97-.43,4.32-1.02.97-.44,1.88-.99,2.72-1.67.48-.39,1.18-.32,1.57.16s.32,1.18-.16,1.57c-.98.81-2.07,1.48-3.23,1.99-1.6.7-3.31,1.12-5.1,1.21-1.34.07-2.6-.26-3.81-.56-1.12-.29-2.17-.56-3.08-.45-1.3.16-2.42.65-3.32,1.48-.65.58-1.18,1.34-1.53,2.17-.33.8-.5,1.67-.49,2.53.01,1.12.33,2.17.9,3.07.57.9,1.38,1.6,2.41,2.1.55.26.78.93.52,1.48-.11.23-.29.4-.5.51h0Z"/>
  <path class="st0" d="M52.93,88.4c-.12.06-.26.1-.4.11-1,.09-2,.12-2.99.08-.96-.04-1.93-.14-2.85-.3-.6-.1-1.01-.68-.91-1.29.1-.6.68-1.01,1.29-.91.83.15,1.69.24,2.56.28.88.04,1.79.01,2.69-.07.61-.06,1.15.4,1.21,1.01.04.46-.21.89-.6,1.09Z"/>
  <path class="st0" d="M58.97,116.59c-.25.13-.55.16-.85.07-.58-.19-.91-.81-.71-1.41l7.58-23.43c.19-.58.82-.9,1.41-.71.58.19.91.81.71,1.41l-7.58,23.43c-.1.29-.3.52-.55.65h0Z"/>
  <path class="st0" d="M67.28,87.77c-.14-.16-3.13,2.36-3.48,2.44-1.04.23-1.84-.83-1.05-1.62.6-.61,3.57-2.75,4.35-3.17.86-.45,1.35-.12,1.7.7.22.54,1.23,3.89,1.26,4.31.04.88-.56,1.39-1.41,1.03-.68-.29-1.17-2.93-1.36-3.7"/>
  <path class="st0" d="M29.34,119.64c-.29-.83-1.86-3.75-1.39-4.42.49-.72,1.32-.66,1.76.08.36.59,1.74,4.25,1.89,4.95.18.8-.03,1.24-.87,1.42-.51.11-3.89.24-4.44.18-.52-.05-1.02-.13-1.13-.74-.36-1.93,3.17-.97,4.19-1.46"/>
  <path class="st0" d="M57.42,119.75c-2.23.19-.83-3.67.66-2.34.72.65,0,2.27-.66,2.34"/>
  <path class="st0" d="M47.56,53.19c-.34-.75-2.17-2.88-1.85-3.59.52-1.19,1.43-.66,2.01.14.54.74,1.89,2.82,2.23,3.61.38.87-.2,1.33-.95,1.57-.83.28-4.04,1.04-4.84,1.09-1.26.08-1.64-1.24-.78-1.8.5-.33,4.18-.8,4.18-1.02"/>
  <path class="st0" d="M10.28,93.5c-.52.62-1.73.18-1.75-.73,0-.1.6-1.81.67-1.91.66-.92,1.84-.82,1.89.32.01.29-.63,2.11-.81,2.31"/>
  <path class="st0" d="M36.94,52.07c1.41-.21,1.71,1.25.61,1.84-2.51,1.33-3.37-1.42-.61-1.84"/>
  <path class="st0" d="M39.16,133.41c.3,1.16-1.48,1.77-1.88.54-.44-1.35,1.58-1.71,1.88-.54"/>
  <path class="st0" d="M20.61,64.4c1.84.8-.37,2.92-1.17,1.29-.38-.77.5-1.58,1.17-1.29"/>
  <path class="st0" d="M25.11,51.53c1.84.8-.37,2.92-1.17,1.29-.38-.77.5-1.58,1.17-1.29"/>
  <path class="st0" d="M69.5,38.78c1.84.8-.37,2.92-1.17,1.29-.38-.77.5-1.58,1.17-1.29"/>
  <path class="st0" d="M81.48,16.15c1.84.8-.37,2.92-1.17,1.29-.38-.77.5-1.58,1.17-1.29"/>
  <path class="st0" d="M61.2,65.25c1.84.8-.37,2.92-1.17,1.29-.38-.77.5-1.58,1.17-1.29"/>
  <path class="st0" d="M32.23,72.48c1.53.82-.32,2.79-1.24,1.3-.45-.73.47-1.72,1.24-1.3"/>
  <path class="st0" d="M9.86,121.75c.21-.85,1.13-.85,1.74-.38.11.09,1.52,2.21,1.57,2.34.3.91-.78,1.73-1.51,1.18-.4-.3-1.92-2.65-1.8-3.15"/>
  <path class="st0" d="M59.86,91.93s-.08.04-.14.06c-1.15.41-2.39.78-3.69,1.11-.6.15-1.2-.21-1.35-.8-.15-.6.21-1.2.8-1.35,1.23-.31,2.41-.67,3.49-1.05.58-.2,1.22.1,1.42.68.19.53-.06,1.12-.54,1.36h0Z"/>
  <path class="st0" d="M45.77,132.55c-1.27.65-2.61,1.19-3.98,1.62-.59.18-1.21-.14-1.4-.73-.18-.59.14-1.21.73-1.4,1.9-.6,3.73-1.44,5.42-2.49,2.08-1.29,3.98-2.92,5.64-4.84.98-1.13,1.89-2.38,2.7-3.71.32-.52,1.01-.69,1.53-.37s.69,1,.37,1.53c-.87,1.43-1.85,2.78-2.92,4.01-1.81,2.09-3.88,3.87-6.15,5.28-.64.39-1.29.76-1.95,1.1h0Z"/>
  <path class="st0" d="M35.49,135.26c-.13.07-.29.11-.44.12-2.5.12-5.03-.08-7.52-.62-5.37-1.16-10.22-3.77-14.04-7.51-.44-.43-.45-1.13-.01-1.58.43-.44,1.13-.45,1.58-.01,3.52,3.46,8,5.85,12.96,6.92,2.29.5,4.62.69,6.93.57.62-.03,1.14.44,1.17,1.06.03.45-.23.85-.61,1.05h0Z"/>
  <path class="st0" d="M9.41,119.75l-.05.03c-.56.25-1.22,0-1.47-.56-.56-1.27-1.03-2.6-1.38-3.95-1.21-4.62-1.18-9.59.1-14.77.36-1.44.78-3.04,1.27-4.75.17-.59.78-.93,1.37-.76s.93.78.76,1.37c-.48,1.69-.9,3.27-1.25,4.68-1.19,4.82-1.22,9.42-.1,13.68.32,1.23.75,2.45,1.26,3.6.25.54.01,1.18-.51,1.44Z"/>
  <path class="st0" d="M11.77,89.32c-.25.13-.55.16-.84.07-.59-.19-.91-.81-.72-1.4.25-.78.5-1.56.75-2.34.6-1.83,1.21-3.65,1.83-5.43,1.33-3.82,2.64-7.4,3.82-10.36.23-.57.87-.85,1.44-.62s.85.87.62,1.44c-1.17,2.92-2.48,6.47-3.79,10.26-.62,1.77-1.22,3.58-1.82,5.4-.25.78-.5,1.56-.75,2.33-.09.3-.3.52-.56.65Z"/>
  <path class="st0" d="M22.33,64.2c-.38.19-.85.16-1.2-.13-.48-.39-.55-1.09-.16-1.57.35-.43.72-.86,1.09-1.28.41-.45,1.11-.49,1.57-.08s.49,1.11.08,1.57c-.35.39-.69.79-1.02,1.19-.1.13-.23.22-.36.29h0Z"/>
  <path class="st0" d="M48.48,103.28c-.25.13-.56.16-.85.06-.58-.19-.9-.82-.71-1.41l3.03-9.27c.13-.4.46-.68.87-.75.36-.06.71-.13,1.07-.19l.77-.15c.6-.12,1.19.27,1.31.87s-.27,1.19-.87,1.31l-.8.15c-.15.03-.29.05-.44.08l-2.82,8.63c-.1.29-.3.52-.55.65h0Z"/>
  <path class="st0" d="M39.16,119.9c-1.41.72-2.93,1.17-4.52,1.35-.61.07-1.16-.37-1.23-.98-.07-.62.37-1.16.98-1.23,2.47-.28,4.76-1.38,6.62-3.17.89-.86,1.69-1.9,2.36-3.06l1.54-4.71c.19-.58.82-.9,1.41-.71.58.19.9.82.71,1.41l-1.57,4.83c-.02.07-.05.14-.09.2-.79,1.39-1.73,2.62-2.81,3.66-1.03,1-2.17,1.81-3.4,2.43h0Z"/>
  <path class="st0" d="M28.34,120c-.3.15-.66.17-.98.01-.37-.18-.75-.38-1.11-.59-.61-.37-1.19-.79-1.72-1.23-1.51-1.28-2.69-2.85-3.5-4.67-1.04-2.33-1.41-4.94-1.12-7.75,0-.1.03-.2.07-.3.27-.67.53-1.35.78-2.06.21-.57.85-.88,1.42-.66.58.21.88.85.67,1.43-.24.67-.49,1.33-.76,1.98-.22,2.36.1,4.54.95,6.47.67,1.51,1.64,2.82,2.9,3.88.44.38.92.72,1.43,1.02.3.18.6.35.92.49.55.26.79.93.52,1.48-.11.23-.29.41-.5.51h.02Z"/>
  <path class="st0" d="M24.76,97.02c-.24.12-.52.16-.81.08-.59-.17-.93-.78-.76-1.37.35-1.24.7-2.49,1.04-3.74l.21-.77c.39-1.4.77-2.8,1.16-4.19.24-.85.48-1.69.73-2.52.18-.59.8-.92,1.38-.75.59.18.93.79.75,1.39-.24.82-.49,1.66-.72,2.49-.39,1.38-.77,2.78-1.16,4.17l-.21.77c-.35,1.26-.69,2.52-1.05,3.77-.09.31-.3.55-.57.68h-.01Z"/>
  <path class="st0" d="M29.53,80.72c-.26.13-.58.17-.87.06-.58-.2-.88-.84-.68-1.42.25-.7.5-1.38.76-2.06.23-.57.87-.86,1.44-.63s.86.87.63,1.44c-.25.65-.5,1.32-.74,1.99-.1.28-.3.5-.55.63h0Z"/>
  <path class="st0" d="M25.95,60.43c-.44.22-.99.13-1.33-.26-.41-.46-.36-1.17.1-1.57.56-.5,1.15-.97,1.73-1.42.89-.68,1.81-1.31,2.75-1.88,1.33-.81,2.71-1.52,4.11-2.1.57-.24,1.22.03,1.45.6s-.03,1.23-.6,1.45c-1.29.54-2.58,1.19-3.81,1.94-.87.53-1.73,1.12-2.55,1.74-.55.41-1.09.86-1.61,1.32-.07.07-.15.12-.23.16Z"/>
  <path class="st0" d="M52.41,67.98c-.86.44-1.81.72-2.81.85-1.34.16-2.64-.17-3.91-.5-1.1-.29-2.14-.56-3.14-.5-1.52.08-2.97.43-4.32,1.02-.98.43-1.89.99-2.72,1.67-.47.39-1.18.32-1.57-.16s-.32-1.18.16-1.57c.98-.81,2.07-1.48,3.23-1.99,1.6-.7,3.31-1.12,5.1-1.21,1.34-.07,2.6.26,3.81.56,1.12.29,2.17.56,3.08.45,1.3-.16,2.42-.65,3.32-1.48.65-.58,1.18-1.34,1.53-2.17.33-.8.5-1.67.49-2.53-.01-1.12-.33-2.17-.9-3.07s-1.38-1.6-2.41-2.1c-.55-.26-.78-.93-.52-1.48s.93-.78,1.48-.52c1.4.68,2.52,1.65,3.31,2.89.8,1.25,1.23,2.71,1.25,4.24.01,1.16-.21,2.34-.67,3.42-.47,1.14-1.19,2.17-2.09,2.97-.52.47-1.1.87-1.73,1.19v.02Z"/>
  <path class="st0" d="M45.99,53.66c-.21.11-.45.15-.7.1-.83-.14-1.69-.24-2.56-.28-.88-.03-1.78,0-2.69.07-.61.06-1.15-.4-1.21-1.01s.4-1.15,1.01-1.21c1-.09,2.01-.12,2.98-.08s1.93.14,2.85.3c.6.1,1.01.68.91,1.29-.06.36-.29.65-.59.81Z"/>
</svg>