<?xml version="1.0" encoding="UTF-8"?>
<svg id="Ebene_1" data-name="Ebene 1" xmlns="http://www.w3.org/2000/svg" viewBox="0 0 142.3 144.58">
  <defs>
    <style>
      .cls-1 {
        fill: #fe5200;
      }
    </style>
  </defs>
  <path class="cls-1" d="M96.96,122.25c-.19-3.51,4.98-6.62,6.05-2.86,1.02,3.58-4.3,3.26-6.05,2.86M84.23,113.96c-3.48-.28-5.09-2.08-5.46-6.31,5.86-2.58,10.92-6.91,14.06-13.51,4.7,1.95,3.93,8.81,1.51,12.71-2.17,3.49-6.33,7.42-10.11,7.11M92.6,112.33l2.92-3.62c3.38-4.75,4.11-14.51-1.99-16.52l1.48-6.28c5.22,1.93,10.24,6.32,9.74,13.64-.43,6.26-7.66,11.21-12.15,12.78M95.98,56.12c1.92-1.54,3.45-3.55,4.99-5.59l1.99-3.44c9.61,8.35,5.58,26.38-4.24,31.62-.13-.17.69-2.13.82-2.6,1.84-6.98.99-14.76-3.56-20M101.76,43.56c-4.32-2.71-9.46-3.07-14.1-1.72,3.44-4.02,5.53-8.91,6.03-14.74.39-.36,3.06,1.26,3.58,1.62.74.51,1.96,1.53,2.54,2.23,2.66,3.23,3.35,8.52,1.94,12.61M87.67,38.59l-2.3,2.24c-.14-1.62.01-3.42-.16-5.02-.19-1.75-.89-3.73-1.24-5.47l-2.04-5.7c3.27-.01,6.55.49,9.72,1.48.17,4.65-1.65,8.98-3.99,12.48M91.57,23.79c-3.67-1.32-7.51-1.2-11.29-1.68-1.7-2.74-3.7-5.23-5.97-7.27-1.37-1.23-2.91-2.14-4.26-3.4,8.25-.95,19.61.33,21.51,12.35M66.36,12.1c1.21.06,5.61,3.52,6.76,4.55,1.83,1.63,3.51,3.5,4.92,5.65-2.62.47-5.27.71-7.86,1.42-2.99.83-7.35,2.55-10.01,4.35-.57.39-3.22,2.95-3.42,2.79-1.45-3.66-4.13-6.43-7.08-8.24l-3.13-1.75c4.18-2.86,8.59-5.21,13.21-6.87,1.42-.51,5.34-1.96,6.6-1.91M62.61,10.58l-10.26,4.2c-2.52.64-6.32,4.75-8.48,5.32-.83.22-3.55-.56-4.68-.62-1.67-.08-3.38.2-5.05.16l2.41-2.36c7.47-6.24,16.99-9.35,26.05-6.69M31.69,22.22c3.2-.66,6.5-.67,9.72-.1l-4.68,4.5c-4.2,4.52-7.36,9.57-9.54,15.87-.84,2.44-.89,6.38-3.08,2.09-3.78-7.42,3.33-17.57,7.58-22.37M28.4,22.82c-4.91,6.8-10.98,17.04-4.36,25.4-6.09,5.03-11.76,11.92-13.15,21.07-.93-1.15-1.84-2.39-2.57-3.74-4.24-7.83-3.91-17.16-.65-25.28,3.84-9.56,12.33-15.33,20.72-17.45M11.38,73.89c1.29,8.37,7.78,14.58,14.41,16.45,1.2,3.76,3.08,7.12,5.32,10.09-6.32.09-17.52-3.7-21.05-10.55-2.47-4.78-1.87-12.04,1.33-15.99M28.34,91.29c5.42,1.13,10.95,1.62,16.44,1.38-.27,1.98-.21,4.02.19,5.97-2.05.46-4.06,1.21-6.13,1.55-1.2.2-3.61.63-4.7.42-1.19-.23-6.34-8.63-5.81-9.32M36.35,102.85l9.35-2.04c.93,3.4,3.39,5.57,5.44,7.95-5.24-.35-10.52-2.1-14.79-5.91M49.76,104.19c-.49-.62-2.57-3.57-2.17-4.29.14-.26,2.63-1.36,3.15-1.67,7.02-4.21,11.03-8.33,15-16.48.13-.27-.04-.48.49-.36-.09,2.44.89,4.48,1.75,6.57-.06.49-2.41,2.19-2.91,2.71-3.02,3.19-4.87,8.56-3.07,13.28.18.48,1.6,2.61,1.44,2.8-1.36.18-2.63.82-3.96,1.14-1.12.26-3.12.73-4.18.76-1.23.04-4.61-3.29-5.53-4.45M87.45,98.78c-2.49,2.87-5.54,4.99-8.79,6.39.84-6.82,6.46-11.52,11.99-11.52.43.42-2.84,4.72-3.2,5.13M94.33,57.45c4.5,4.61,5.18,12.32,3.15,18.68-.19.59-1.45,3.76-1.7,3.96-.22.18-.75.1-1.05.38-.68-6.18-3.71-11.2-8.28-13.99l1.23-4.46,6.65-4.56ZM85.11,44.97c.28-.36,5.12-1.52,5.86-1.6,3.54-.38,6.81.45,10.05,2.14.18.29-.2,1.2-.34,1.54-.6,1.42-5.02,7.34-6.22,7.34-2.41-1.79-5-2.69-7.84-2.59-.17-.12-1.89-3.79-1.92-4.04-.04-.35.3-2.65.41-2.79M82.13,55.6l3.22-1.17c.2,1.34,1.15,5.34.34,6.25-.19.21-1.64.99-1.99,1.14-1.78.79-3.6,1.16-5.49.71l3.93-6.93ZM82.36,47.98c.33,1.18-1.02,4.22-1.43,5.48l-6.46,4.84c-.65-4.31,1.76-7.74,4.56-9.87.98-.74,2.78-2.41,3.33-.44M57.83,33.29c2.11-2.93,5.31-4.53,8.3-5.78,4.3-1.79,8.95-2.84,13.52-2.75,2.35,4.49,4.05,10.37,3.93,15.72-.05,2-.15,2.48-1.69,3.33-1.45-1.28-2.78-2.66-4.39-3.69-5.92-3.79-12.55-3.91-18.94-2.25l-.72-4.58ZM54.1,49.33c.67-.74,1.29-1.6,1.92-2.39.92,1.61,2.97,2.07,4.02,3,1.61,1.44,2.55,5.11,3.38,7.22l-3.39-2.97c-2.26-1.42-4.59-2.79-7.14-3.21-.61-.38,1.02-1.44,1.21-1.65M54.42,44.33c.68.75-.64,2.15-1.09,2.69-3.29,3.9-7.29,4.2-11.64,4.98,1.22-2.5,3.32-4.56,5.35-6.09.75-.57,4.16-2.82,4.81-2.81.21,0,2.41,1.06,2.57,1.23M28.76,44.53c1.75-6.96,5.91-12.86,10.47-17.44.77-.77,4.15-4,4.86-4.19,1.76-.47,6.31,2.62,7.72,4.04.93.94,3.75,4.64,3.68,5.99-.01.22-1.32,3.04-1.55,4.01-.4,1.69.18,2.82-1.41,3.38-1.44.5-4.22-.78-5.95-.98-6.03-.7-12.67,1.5-17.81,5.18M27.89,48.47c.09-1.23,2.07-2.26,2.99-2.84,5.42-3.42,11.8-4.84,17.91-3.64l-3.71,2.72c-2.24,1.91-4.25,4.15-5.57,7.09-1.61.47-11.21-1.88-11.62-3.33M13.01,68.28c1.72-8.2,7.19-13.88,12.54-18.74-.09,4.82-.04,9.52,1.46,14.08-3.96.14-7.96.94-11.52,3.03-.84.49-1.53,1.39-2.48,1.63M13.11,71.66c1.45-2.04,4.01-3.62,6.15-4.41.66-.24,3.15-1.05,3.68-1.07l4.83-.15c-1.69,3.6-2.72,6.99-3.25,11.11-.05.39.19.44-.32.42-1.06-.02-3.44-1.27-4.52-1.8-2.29-1.13-4.44-2.6-6.57-4.11M25.08,87.86c-5.2-2.17-10.09-6.6-11.65-13.21l5.8,3.39,4.83,1.96,1.03,7.86ZM46.87,86.26c-.74,1.35-1.14,2.66-1.76,4.04-3.62.32-7.64.14-11.28-.31-1.09-.14-5.88-.88-6.48-1.53-.87-.95-1.18-6.46-1.15-7.98,7.42,2.27,15.14,3.82,22.77,2.54-.6,1.1-1.51,2.15-2.11,3.24M63.54,81.74l-2.44,4.43c-3.86,5.27-8.88,9.14-14.35,11.59-.42-1.73-.39-3.43-.06-5.17,4.79-1.3,9.33-4.58,10.14-10.88l6.71.02ZM65.58,75.94l-5.35.74c.88-.89,1.82-2.93,2.72-3.58.85-.61,2.02-.49,2.86-1.21.39,1.32-.14,2.73-.23,4.05M40.13,55.86c.16-.28,2.91-1.56,3.37-1.68,1.36-.36,4.07-1.07,5.36-1.27,3.41-.5,8.27,1.55,11.07,3.94.9.77,3.64,3.73,3.86,4.91.37,2.01-.69,7.92-2.04,9.17-.37.34-2.75.83-3.36.9-1.11.13-4.14.35-5.12.11-.66-.16-3.74-2.76-5.06-3.36-1.34-.61-5.44-1.47-6.17-2.21-.99-1.01-2.16-4.5-2.31-6.06-.08-.84.05-3.85.39-4.46M37.83,57.56l.13,3.94c.03,1.03,1,3.22,1.48,4.16l-7.92-1.65c1.74-2.47,3.88-5.06,6.31-6.45M28.46,61.6c-.28-.95-.95-3.53-.98-4.39-.05-1.57-.31-3.99-.17-5.43,0-.08.23-.7.33-.7,3.4,1.74,7.07,2.76,10.75,2.93-.44.87-1.45,1.26-2.17,1.86-1.63,1.34-3.31,2.93-4.71,4.6-.43.51-2,2.98-2.15,3.06-.41.23-.78-1.53-.9-1.93M48.23,80.87c-7.34,1.16-14.7-.61-21.85-2.6-.39-.63.74-5.04,1.02-5.97.24-.8,1.07-3.3,1.45-3.84.18-.25.22-.37.54-.3,3.38,6,9.23,9.62,14.92,11.4,1.11.35,2.24.49,3.35.78.38.1.65-.29.56.53M55,74.54l4.47-.55c-.36.78-2.54,3.08-3.15,3.09l-1.32-2.55ZM54.99,81.47c-.77,4.48-3.96,7.59-7.6,8.39,1.43-3.71,4.23-7.43,7.6-8.39M43.67,77.01c-5.1-1.75-10.21-5.41-13.2-10.79,1.61.08,3.2.39,4.78.74,1.58.35,4.33.92,5.75,1.62.75.36,1.96,1.89,2.85,2.54,1.31.96,3.07,1.84,4.55,2.32,1.04.34,3.47.54,4.12.9.43.24,2.23,3.51,1.91,4.13-.68,1.28-9.28-.95-10.76-1.46M69.32,67.63c-.13.21-1.3.8-1.49.66-.26-1.14-.41-2.31-.73-3.44-.32-1.13-1.02-2.53-1.24-3.48-.36-1.54-.36-3.51-.78-5.22-.46-1.91-1.29-3.64-2.08-5.36,4.07.74,8.11-.67,12.09-1.47-1.49,1.99-2.77,5.06-2.67,7.83.03.94.72,2.28.44,3.1-.13.37-.9,1.08-1.18,1.55-.39.64-.84,1.4-1.16,2.09-.41.91-1,3.44-1.19,3.75M68.01,81.05l5.19-1.21c.66-.04,3.91,3.6,3.66,3.91-2.42.74-4.81,1.7-6.98,3.18-1.23-1.54-1.7-3.8-1.87-5.89M71.18,88.7c.73-.66,6.25-3.17,6.64-2.78.5,2.14.43,4.39-.02,6.51-2.44-.38-4.86-1.62-6.62-3.72M92.18,85.18c-3.05,4.26-7.7,6.87-12.34,7.45.13-2.42.31-4.95-.24-7.32,4.11-1.08,8.43-1,12.58-.13M87.76,59.23c-.04-1.74-.02-3.51-.61-5.14,1.91-.21,3.69.68,5.44,1.46.08.37-.03.45-.2.69-.2.3-4.45,3.22-4.63,2.99M88,70.37c2.77,2.53,4.29,6.4,4.94,10.43-5.35,1.07-11.11.29-16.04-2.61,2.59-2.07,5.06-3.98,7.08-6.88,1.7-2.44,1.1-3.59,4.01-.94M80.98,65.15l4.44-1.64-.96,2.31c-1.13-.37-2.3-.78-3.48-.67M71.55,70.94c3.36-3.39,7.72-4.31,11.98-3.15.16.2-.77,1.66-.95,1.93-.76,1.17-1.98,2.53-2.94,3.46-.84.81-4.13,3.61-5.03,3.18-.93-.45-3.6-4.21-3.06-5.42M58.29,40.61c6.13-2.39,13.81-1.95,19.45,2.31.31.23,2.25,1.73,1.93,2.17-2.49.93-4.94,1.98-7.51,2.61-2.64.64-8.46,1.85-10.81.27-.64-.43-.96-1.31-1.44-1.81-.61-.62-2.33-1.74-2.31-2.65.01-.69.74-2,.7-2.9M77.09,102.99c-.28,1.22.07,3.5-1.32,3.24-1.96-4.82,2.25-7.27,3.28-11.36l3.1-.41c-2.23,2.46-4.22,4.87-5.06,8.52M73.43,103.16l.35,3.79c-1.76.23-3.22.38-5,.09-.2-.03-.68-.1-.63-.45,1.87-.68,3.68-2.07,5.28-3.43M67.79,104.48c-1.81,1-2.51,1.64-3.82-.82-2.47-4.66,1.27-11.53,4.85-13.45,1.06-.57,1.41.79,2.25,1.46,1.78,1.45,3.85,2.36,5.92,2.96-1.45,4.54-5.65,7.88-9.2,9.85M57.94,110.45c1.2-.14,2.41-.42,3.57-.79.89-.28,3.31-1.48,3.88-1.5.52-.02,1.33.62,1.93.77,2.56.66,4.67.74,7.27.21.25.09,1.72,2.64,2.16,3.16,1.1,1.31,2.63,1.98,3.38,3.69-6.31,1.13-12.69-.92-18.6-3.54l-3.6-1.99ZM131.96,142.51c-.1-.36-.55-.57-.83-.64-1.44-.33-4.14,0-5.8-.15-6.87-.63-22.78-4.8-26.88-11.94-.91-1.58-1.51-3.44-1.65-5.36,2.02.58,3.89.67,5.83-.33,4.49-2.31,2.05-9.3-2.41-8.76-2.64.32-4.78,3.34-5.08,6.42-3.7-.84-7.55-1.76-10.7-4.42,2.24-1.25,4.75-1.34,7.12-2.12,7.51-2.48,18.1-10.1,14.37-21.39-1.76-5.34-5.7-8.13-9.98-10,.9-2.32,2.99-2.58,4.74-3.77,6.67-4.53,10.41-13.44,9.46-22.76-.53-5.2-3.16-9.42-6.43-12.63-.04-1.12.4-2.13.51-3.26.88-9.17-3.7-14.49-10.57-16.94-.74-5.43-3.01-9.61-6.98-12.33-4.12-2.82-9.49-3.53-14.14-3.25-1.76.1-4.34.93-6.02.72-1.61-.2-3.95-1.47-5.8-1.84-8.78-1.76-17.72,1.49-24.92,7.35-1.31,1.06-3.91,4.11-4.87,4.68-1.36.8-4.94,1.28-6.79,1.98-3.55,1.35-7.42,3.57-10.39,6.27-11.31,10.28-14.78,30.94-3.63,43.56-2.68,4.2-3.86,8.59-3.33,13.98,1.23,12.55,17.83,17.66,26.47,17.27,4.5,4.67,10.57,7.7,16.51,8.08,1.38.09,3.15-.31,4.41-.05.88.19,3.12,1.93,4.21,2.48,5.04,2.55,11.52,5.01,16.98,5.21,1.63.06,5.6-.74,6.68-.43.54.16,2.14,1.76,2.86,2.23,3.01,1.95,6.7,2.96,10.06,3.55-.02,2.42.77,5.26,1.94,7.25,4.77,8.11,22.24,12.53,30.06,12.91.63.03,4.38.06,4.65-.14.35-.26.4-1,.33-1.46"/>
</svg>