<?xml version="1.0" encoding="UTF-8"?>
<svg id="Ebene_1" data-name="Ebene 1" xmlns="http://www.w3.org/2000/svg" viewBox="0 0 142.3 171.27">
  <defs>
    <style>
      .cls-1 {
        fill: #fe5200;
      }
    </style>
  </defs>
  <path class="cls-1" d="M97,42.4c-.49,3.02,4.98,4.64,5.54,1.97.49-2.32-3.51-4.38-5.13-2.7-.17.18-.37.48-.41.72M98.27,30.19c-.67.34-2.57,1.66-2.75,2.38-.04.16-.03.32.01.48l.16.15c1.13.32,4.26-1.73,4.63-2.83.05-.14.11-.27.05-.42-.22-.59-1.71.05-2.1.25M104.14,23.35c-.33-.45-2.3.61-2.7.86-.41.26-1.14.81-1.43,1.19-1.55,2.03,1.81.42,2.48-.03.38-.25,2-1.54,1.64-2.02M107.61,24.75c.05-.24,0-.42-.26-.49-1.02-.26-4.47,1.9-4.57,2.97-.08.84,1.5.19,1.89.02.78-.33,2.78-1.66,2.95-2.51M109.2,25.91c-.61.3-3.4,2.07-2.81,2.94.48.27.76.17,1.26.03.96-.26,2.25-1,2.98-1.67,2-1.86.44-2.23-1.43-1.31M114.52,19.8c.4-.65.03-.81-.61-.76-.97.08-3.97,1.73-4.08,2.77-.11.94,1.97.02,2.34-.16.7-.34,1.95-1.19,2.35-1.84M120.77,50.86c.52-3.12-5.41-4.22-5.73-1.44-.35,2.96,5.29,4.07,5.73,1.44M121.78,30.11c-.24-.72-1.65-2.09-1.97-.8-.25,1,.14,2.48.57,3.41.24.53,1.37,2.38,2.08,1.66.6-.61,0-2.87-.35-3.61l-.2.11c-.13-.25-.05-.53-.13-.78M123.48,27.79c-.24-.68-1.14-2.74-2.04-2.48-.86.25-.09,2.89.19,3.52.22.5,1.32,2.53,2.01,1.84.48-.48.06-2.26-.16-2.88M124.75,27.15c.5-.74-.1-2.49-.46-3.25l-.2.11c.33-.73-1.44-2.85-1.79-1.49-.22.86.29,2.58.71,3.38.22.42,1.23,1.99,1.73,1.25M128.72,43.25c-.08-.83-.87-3.07-1.51-3.59-1.02-.82-1.25.64-1.2,1.41.06.92.78,2.97,1.45,3.61,1.14,1.07,1.33-.58,1.25-1.43M127.17,36.04c-.32.76.08,2.27.38,3.03.2.52.97,2.26,1.7,1.86.73-.95.09-2.33-.15-3.39l-.2.11c.22-.69-1.2-2.83-1.72-1.62M130.34,35.47c-.11-.75-.42-.97-.61-1.42-.07-.18.02-.35-.04-.49-.17-.45-1.21-1.99-1.59-1.05-.42,1.03.51,4.01,1.41,4.67,1.01.74.9-1.19.82-1.71M129.94,30.66c2.83,5.91,2.94,8.64,1.57,15.04-1.12,5.22-2.59,7.68-7.67,9.76-3.66,1.49-10.68,3.43-14.58,3.74-6.02.47-8.11-2.86-11.3-7.08-2.7-3.57-7.83-9.67-7.52-14.31.18-2.74,2.3-5.85,3.84-8.07,2.95-4.26,5.58-6.38,10.3-8.55,3.18-1.47,7.15-3.2,10.45-4.33,4.83-1.65,6.64-.56,9.31,3.46,2.03,3.06,4.02,7.02,5.61,10.35M143.02,38.75L110.31,5.55l-30.37,29.92,32.71,33.2,30.37-29.92Z"/>
  <path class="cls-1" d="M54.86,60.08c-.49,3.02,4.98,4.64,5.54,1.97.49-2.32-3.51-4.38-5.13-2.7-.17.18-.37.49-.41.72M56.12,47.86c-.67.33-2.57,1.66-2.75,2.38-.04.16-.03.32.01.48l.16.15c1.13.32,4.26-1.74,4.63-2.83.05-.14.11-.27.05-.42-.22-.59-1.71.05-2.1.25M62,41.02c-.33-.45-2.3.61-2.7.86-.41.26-1.14.81-1.43,1.19-1.55,2.03,1.81.42,2.48-.03.38-.25,2-1.54,1.64-2.02M65.47,42.42c.05-.24,0-.42-.26-.49-1.02-.26-4.47,1.9-4.57,2.97-.08.84,1.5.19,1.89.02.78-.34,2.78-1.66,2.94-2.51M67.06,43.58c-.61.3-3.4,2.07-2.81,2.94.48.27.76.17,1.26.03.96-.26,2.25-1,2.98-1.67,2-1.86.44-2.23-1.43-1.31M72.38,37.47c.4-.65.03-.81-.61-.76-.97.08-3.97,1.73-4.08,2.77-.11.94,1.97.02,2.34-.16.7-.34,1.95-1.19,2.35-1.84M78.63,68.53c.52-3.12-5.41-4.22-5.73-1.44-.34,2.96,5.29,4.07,5.73,1.44M79.63,47.78c-.24-.72-1.65-2.09-1.97-.8-.25,1,.14,2.48.57,3.41.24.53,1.37,2.38,2.08,1.65.6-.61,0-2.87-.35-3.61l-.2.11c-.13-.25-.05-.53-.13-.78M81.34,45.47c-.24-.68-1.14-2.74-2.04-2.48-.86.25-.09,2.89.19,3.52.22.5,1.32,2.53,2.01,1.84.48-.48.06-2.26-.16-2.88M82.61,44.82c.5-.75-.1-2.49-.46-3.25l-.19.11c.33-.73-1.44-2.85-1.79-1.49-.22.86.29,2.58.71,3.38.22.41,1.23,1.99,1.73,1.25M86.57,60.92c-.08-.83-.87-3.07-1.51-3.59-1.02-.82-1.25.64-1.2,1.41.06.92.78,2.97,1.45,3.61,1.14,1.07,1.33-.58,1.25-1.43M85.02,53.72c-.32.76.08,2.27.38,3.03.2.52.97,2.26,1.7,1.86.73-.96.09-2.33-.15-3.39l-.2.12c.22-.69-1.2-2.83-1.72-1.62M88.19,53.14c-.11-.75-.42-.97-.61-1.42-.07-.18.02-.35-.04-.49-.17-.45-1.21-1.99-1.59-1.05-.42,1.03.51,4.01,1.41,4.68,1.01.74.9-1.19.82-1.71M87.8,48.33c2.83,5.91,2.94,8.64,1.57,15.04-1.12,5.22-2.59,7.68-7.67,9.76-3.66,1.49-10.68,3.43-14.58,3.74-6.03.47-8.11-2.86-11.3-7.08-2.7-3.57-7.83-9.67-7.52-14.31.18-2.74,2.3-5.85,3.84-8.07,2.95-4.26,5.58-6.38,10.3-8.55,3.18-1.47,7.15-3.2,10.45-4.33,4.83-1.64,6.64-.56,9.31,3.46,2.03,3.06,4.02,7.02,5.61,10.35M102.82,58.4l-30.93-31.4-30.37,29.92,30.93,31.4,30.37-29.92Z"/>
  <path class="cls-1" d="M47.62,131.89c-.07-.18.02-.35-.04-.49-.17-.45-1.21-1.98-1.59-1.05-.42,1.03.51,4.01,1.41,4.67,1.01.74.9-1.19.82-1.71-.11-.75-.42-.97-.61-1.42M47.13,138.77c.73-.95.09-2.33-.15-3.39l-.2.11c.22-.69-1.2-2.83-1.72-1.62-.32.76.08,2.27.38,3.03.2.52.97,2.26,1.69,1.86M46.61,141.09c-.08-.83-.87-3.07-1.51-3.59-1.02-.82-1.24.64-1.2,1.41.06.92.78,2.97,1.45,3.61,1.14,1.07,1.33-.58,1.25-1.43M42.19,121.74l-.2.11c.33-.73-1.44-2.85-1.79-1.49-.22.86.3,2.58.71,3.38.22.41,1.24,1.99,1.73,1.25.5-.74-.1-2.49-.46-3.25M39.52,126.68c.22.5,1.32,2.53,2.01,1.83.48-.48.06-2.26-.16-2.88-.24-.68-1.14-2.74-2.04-2.48-.86.25-.09,2.89.19,3.52M39.67,127.95c-.24-.72-1.65-2.09-1.97-.8-.25,1,.14,2.48.57,3.42.24.53,1.37,2.38,2.08,1.66.6-.61,0-2.87-.35-3.61l-.2.11c-.13-.25-.05-.53-.13-.78M60.4,136.07l-31.94-32.41L-1.9,133.57l31.94,32.41,14.09-13.88c-.7.42-1.47.81-2.39,1.19-3.66,1.49-10.68,3.43-14.58,3.74-6.03.47-8.11-2.86-11.3-7.08-2.7-3.57-7.83-9.67-7.52-14.31.18-2.74,2.3-5.85,3.84-8.07,2.95-4.26,5.58-6.38,10.3-8.55,3.18-1.47,7.15-3.2,10.45-4.33,4.83-1.64,6.64-.56,9.31,3.46,2.03,3.06,4.02,7.02,5.61,10.35,2.83,5.91,2.94,8.64,1.57,15.04-.45,2.08-.96,3.71-1.73,5.07l12.73-12.54ZM18.21,128.21c.05-.14.11-.27.05-.42-.22-.59-1.71.05-2.1.25-.67.33-2.58,1.66-2.75,2.38-.04.16-.03.32.01.48l.16.15c1.13.32,4.26-1.74,4.63-2.83M15.3,139.52c-.17.18-.37.49-.41.72-.49,3.02,4.98,4.64,5.54,1.97.49-2.32-3.51-4.38-5.13-2.7M17.91,123.24c-1.55,2.03,1.81.42,2.48-.03.38-.25,2-1.54,1.64-2.02-.33-.45-2.3.61-2.7.86-.41.26-1.14.82-1.43,1.19M20.67,125.07c-.08.84,1.5.19,1.89.02.78-.34,2.78-1.66,2.95-2.51.05-.24,0-.42-.26-.49-1.02-.26-4.47,1.9-4.57,2.97M27.1,123.75c-.61.3-3.4,2.07-2.81,2.94.48.27.77.17,1.26.03.96-.26,2.25-1,2.98-1.67,2-1.86.44-2.23-1.43-1.31M27.72,119.65c-.11.94,1.97.02,2.34-.16.7-.34,1.95-1.19,2.35-1.84.4-.65.03-.81-.61-.76-.97.08-3.97,1.73-4.08,2.77M32.94,147.26c-.35,2.96,5.29,4.07,5.73,1.44.52-3.12-5.41-4.22-5.73-1.44"/>
  <path class="cls-1" d="M76.08,100.47c-.07-.18.02-.35-.04-.49-.17-.45-1.21-1.98-1.59-1.05-.42,1.03.51,4.01,1.41,4.67,1.01.74.9-1.19.82-1.71-.11-.75-.42-.97-.61-1.42M75.59,107.35c.73-.95.09-2.33-.15-3.39l-.2.12c.22-.7-1.2-2.83-1.72-1.62-.32.76.08,2.27.38,3.03.2.52.97,2.26,1.69,1.86M75.07,109.67c-.08-.83-.87-3.07-1.51-3.59-1.02-.82-1.24.64-1.2,1.41.06.92.78,2.97,1.45,3.61,1.14,1.07,1.33-.58,1.25-1.43M70.65,90.32l-.2.11c.33-.73-1.44-2.85-1.79-1.49-.22.86.3,2.58.71,3.38.22.41,1.24,1.99,1.73,1.25.5-.75-.1-2.49-.46-3.25M67.98,95.26c.22.5,1.32,2.53,2.01,1.83.48-.48.06-2.26-.16-2.88-.24-.68-1.14-2.74-2.04-2.48-.86.25-.08,2.89.19,3.52M68.13,96.53c-.24-.72-1.65-2.09-1.97-.8-.25,1,.14,2.48.57,3.41.24.53,1.37,2.38,2.08,1.66.6-.61,0-2.87-.35-3.61l-.2.11c-.13-.25-.05-.53-.13-.78M88.86,104.65l-31.94-32.41-30.36,29.92,31.94,32.42,14.09-13.88c-.7.42-1.47.81-2.39,1.19-3.66,1.49-10.68,3.43-14.58,3.74-6.03.47-8.11-2.86-11.3-7.08-2.7-3.57-7.83-9.67-7.52-14.31.18-2.74,2.3-5.85,3.84-8.07,2.95-4.26,5.58-6.38,10.3-8.55,3.18-1.47,7.15-3.2,10.45-4.33,4.83-1.64,6.64-.56,9.31,3.46,2.03,3.06,4.02,7.02,5.61,10.35,2.83,5.91,2.94,8.64,1.57,15.04-.45,2.08-.96,3.71-1.73,5.07l12.73-12.54ZM46.67,96.78c.05-.14.11-.27.05-.42-.22-.59-1.71.05-2.1.25-.67.33-2.58,1.66-2.75,2.38-.04.16-.03.32.01.48l.16.15c1.13.32,4.26-1.74,4.63-2.83M43.76,108.1c-.17.18-.37.49-.41.72-.49,3.02,4.98,4.64,5.54,1.97.49-2.32-3.51-4.38-5.13-2.7M46.37,91.82c-1.55,2.03,1.81.42,2.48-.03.38-.25,2-1.54,1.64-2.02-.33-.45-2.3.61-2.7.86-.41.26-1.14.82-1.43,1.19M49.13,93.65c-.08.84,1.5.19,1.89.02.78-.34,2.78-1.66,2.95-2.51.05-.24,0-.42-.26-.49-1.02-.26-4.47,1.9-4.57,2.97M55.55,92.33c-.61.3-3.4,2.07-2.81,2.94.48.27.77.17,1.26.03.96-.26,2.25-1,2.98-1.67,2-1.86.44-2.23-1.43-1.31M56.18,88.22c-.11.94,1.97.02,2.34-.16.7-.34,1.95-1.19,2.35-1.84.4-.65.03-.81-.61-.76-.97.08-3.97,1.73-4.08,2.77M61.4,115.83c-.34,2.96,5.29,4.07,5.73,1.44.52-3.12-5.41-4.22-5.73-1.44"/>
</svg>