<?xml version="1.0" encoding="UTF-8"?>
<svg id="Ebene_1" data-name="Ebene 1" xmlns="http://www.w3.org/2000/svg" viewBox="0 0 142.3 141.43">
  <defs>
    <style>
      .cls-1 {
        fill: #fe5200;
      }
    </style>
  </defs>
  <path class="cls-1" d="M116.73,27.05l.37,2.96c7.29,11.5,12.17,31.6,12.92,49.44.03.75.01,8.74-.01,9.14-.02.29-1.24.37-1.22,3.49.01,1.92.95,3.85.93,3.96-.08.43-1.37.19-1.82,1.24-1.22,2.86-2.11,7.98-3.45,10.77-7,14.63-19.43,14.61-29.73,16.74-4.95,1.02-13.72-1.06-17.56,2.12-.79.66.69,1.7-1.54,2.2-8.92,2-18.68,6.41-27.83,6.53-8.09.1-26.69-8.44-37.54-40.74-6.62-19.7-6.63-35.88-5.21-46.92,3.88-30.26,21.81-29.33,33.91-32.22,9.84-2.35,19.57-4.59,29.44-6.8,14.69-3.29,27.84-10.73,48.33,18.09M32.39,20.78c-5.84,1.14-11.72,1.9-16.49,7.26-4.58,5.14-12.04,19.19-10.23,40.56,3.02,35.61,20.71,53.95,28.36,59,8.39,5.54,15.57,4.87,22.36,2.53-.9-4.8-.88-2.58-1.72-3.24-2.46-1.93-6.7-6.29-8.67-7.32-.74-.39-.86.94-1.39,1.26l-.34-3.21c-6.01-5.31-14.64-20.76-19.11-42.92-2.75-13.62-2.09-31.28.25-35.21l-1.14-3.11,8.12-15.6ZM51.47,16.36l-12.72,2.94,8,6.56,4.72-9.5ZM70.15,12.07l-12.14,3.64,8.08,5.32,4.06-8.96ZM117.04,33.16c-9.46-17.8-21.71-25.08-28.8-25.37-3.99-.16-7.26,3.18-11.33,2.72l12.34,10.8c7.05,8.01,17.46,25.03,20.79,51.06,1.62,12.68-.21,18.44-.05,28.32l-7.9,18.88c5.92-1.12,11.87-2.29,16.71-7.77,4.16-4.71,10.4-18.87,9.8-36.05-.66-18.82-4.92-30.09-11.56-42.6M45.78,27.99c-2.65-1.12-7.66-6.28-9.83-5.73-3.95,1.02-10.16,17.57-11.12,27.99-3.35,36.19,16.26,64.14,26.7,71.94,7.02,5.25,11.2,4.24,14.91-4.69-.66-3.12-1.38-.82-2.09-1.24-.37-.22-.95-2.68-1.63-3.54-3.17-4.02-7.81-9.76-10.97-17.08-8.22-19.04-10.7-41.86-8.94-54.8l2.96-12.85ZM63.68,22.13c-2.23.4-6.62-4.79-8.66-4.27-1.17.3-4.64,5.49-5.42,7.58-.27.74-.78.95-.28,3.4,3.73,3.18,7.83,9.11,11.89,16.23.61-2.87.56-7.02,1.07-10.29.23-1.48,2.9-9.49,1.39-12.66M102.6,46.26c-7.63-19.89-24.69-34.76-29.8-31.12-1.97,1.41-3.42,5.52-5.16,7.8l9.75,12.02c4.59,9.45,7.91,15.23,11.71,30.17.73,2.88.94,6.78,2.3,10.34l.42,20.18-3.51,16.8c7.3,6.33,11.37,5.46,15.46-2.32,4.39-8.34,11.11-31.87-1.17-63.88M49.31,30.6c-2.01-2.18-2.48,1.01-3.25,3.64-.62,2.13-1.88,7.74-2.18,11.61-2.56,33.21,12.78,59.85,23.39,68.93,2.42-4.6,3.74-12.41,4.4-21.75-5.35-12.41-10.14-29.71-10.14-42.97l-.69-2.77c-3.91-6.91-8.32-14.84-11.19-13.38l-.34-3.32ZM86.16,108.32c.03-.37,1,.79,1.39-.34,6.02-17.48,3.34-51.93-13.5-74.86-1.41-1.92-6.42-7.73-7.26-7.53-2.63.61-3.09,16.34-4.59,20.92,6.1,14.12,10.42,29.76,10.41,44.75,4.82,9.86,9.34,14.05,13.94,19.91.46.37-.43-2.32-.38-2.84M63.17,57.22c.14,2.23.27,4.62.76,7.26.92,4.98,6.11,25.5,7.43,22.72-.24-4.97-1.05-12.71-2.52-18.68-.89-3.62-5.08-17.57-5.86-15.14.53,2.16.12,2.85.19,3.85M85.16,111.51c-3.82-2.03-8.26-8.8-12.66-17.65l-1.05,12.46,1.05,2.93c-2.48-2.44-1.72,6-3.46,6.81,7,7.51,12.44,6.5,15.87-1.99.26-.64.87-.41.25-2.57M75.46,125.72c-.89-3.22-1.46-2.4-2.14-2.97-4.66-3.88-5.59-4.18-8.05,1.68-.35.84-1.1.76-.54,3.77l10.73-2.48ZM94.54,121.33c-.94-3.38-1.45-2.38-2.14-2.9-.93-.7-5.24-4.25-5.48-4.01-.22.22.37,2.7.33,2.9-.24,1.16-4.26.96-3.44,6.48l10.73-2.48Z"/>
</svg>