<?xml version="1.0" encoding="UTF-8"?>
<svg id="Ebene_1" xmlns="http://www.w3.org/2000/svg" version="1.1" viewBox="0 0 2817.68 2141.04">
  <!-- Generator: Adobe Illustrator 29.5.0, SVG Export Plug-In . SVG Version: 2.1.0 Build 137)  -->
  <defs>
    <style>
      .st0 {
        fill: #c1b09c;
      }
    </style>
  </defs>
  <path class="st0" d="M1421.84,1195.23h42.11v-6.11h47.52v-150.04h-50.89v38.05h-41.4v38.67h-32.75v32.37h-34.75v31.7h-21.39v4.5h-27.06v22.86h-37.09v24.99h-39.43v25.38h-41.43v8.68h-30.87v9.51h-33.15v33.74h-26.2v-6.71h-26.73v9.97h-16.71v-4.62h-33.68v3.82h-46.48v22.86h-9.12v-15.89h-37.69v-1.57h-35.82v-5.4h-44.38v59.39h-15.04v-63.66h-35.42v-4.45h-31.08v-11.74h-39.76v-14.25h-43.78v-8.29h-46.11v40.8h-43.44v10.83h-9.49v-110.87h-46.01v-71.27h-57.43v-21.39h-44.21v-23.97h-51.5v33.85h-14.58v-60.65h-44.66v-16.92h-49.96v-18.51h-56.51v-18.79h-50.13v-6.43h-52.5v-7.05h-43.39v-12.51H23.52v63.16H7.66v-67.58H-28.08v-7.05h-21.22v-33.22H-13.29v-30.85H27.72v-27.88h100.03v-35.63h50.01v-13.43h54.01v-38.46l161.07-21.21,1.9,14.46-108.51,14.29,6.72,51.06,76.84-10.11,5.77,43.83,88.71-11.68,8.63,65.51,147.04-19.36h27.72v12.19h52.87v17.99h59.25v12.13h59.71v8.46h54.23v10.45h49.23v6.46h48.31v3.3h56.06v-3.63h20.51v34.86h48.86v42.35h60.53v-58.42h51.41v-52.63h19.69v47.47h60.53v-2.84h41.57v-7.05h35.73v-52.86l2.49-.18,2.6,37.12,10.77-.76v12.25h7.21l2.48,35.53,52.22-3.65-3.1-44.39h30.52v-7.05h52.5v-6.43h50.13v-18.79h56.51v-18.51h49.96v-16.92h44.66v-60.65h14.58v33.85h51.5v-87.44h-51.5v23.47h-29.18v3.33h-36.91v16.92h-50.59v18.51h-53.78v18.79h-56.51v6.43h-42.11v7.05h-45.21v12.51h-21.38l-.49-7.07-14.01.98-1.71-24.49-1.99.14-2.17-31-10.1.7-2.97-42.47-11.05.78-3.16-45.15-11.22.79-3.32-47.45-3.84.27-2.48-35.36-4.2.3-2.65-37.96-7.47.53-2.55-36.43-4.48.31-.93-13.32,1.84-.13-2.7-38.58-4.2.3-2.1-30-1.69.12-3.3-47.15-10.1.7-1.15-16.53,7.02-.49-3.02-43.17.69-.05-2.87-41.02,2.38-.17-3.56-50.81-12.78.9-2.25-17.15,15.73-1.1-2.84-40.56,1.97-.14-2.48-35.59,3.86-.27-3.19-45.54,6.24-.43-3.5-50.13,5.05-.35-3.58-51.28,7.24-.51-3.1-44.39,10.74-.75-3.1-44.39,7.28-.51-3.02-43.24-48.14,3.36,1.84,26.28-7.28.51,3.81,54.46-10.74.75,3.48,49.74-7.24.51,3.51,50.13-5.05.35,3.19,45.54-6.24.43,2.89,41.33-3.86.27,2.84,40.56-1.97.14,2.64,37.74-86.22,11.35,1.15,8.73-28.32,3.73-4.18-31.82-117.81,15.51,1.12,8.52-35.61,4.69-4.24-32.21-117.81,15.51.72,5.45-27.13,3.57-6.81-51.73-145.95,19.21,5.55,42.15-35.79,4.71-.73-5.56-106.79,14.06-2.24-17.02-145.95,19.21,8.09,61.48,106.79-14.06,2.24,17.02,106.8-14.06.73,5.56,145.95-19.22-5.55-42.15,30.97-4.07,6.81,51.73,117.81-15.51-.72-5.45,10.57-1.39,4.24,32.21,117.81-15.51-1.12-8.52,59.16-7.79,4.19,31.82,117.81-15.51-1.15-8.73,28.07-3.69.38,5.48-2.38.17,3.02,43.17-4.77.33,3.56,50.81,31.43-2.2,1.15,16.53-28.34,1.99,3.56,50.81,1.69-.12,2.44,34.9,4.2-.3,2.1,30,40.35-2.82.93,13.32-37.71,2.64,2.7,38.57,7.47-.53,2.55,36.43,4.21-.3,3.08,44.08,3.84-.27,2.95,42.1,11.22-.79,3.32,47.45,11.05-.78,2.94,41.94,10.1-.7,2.62,37.51,36.21-2.53.86,12.25-20.21,1.41.54,7.82h-31.65v7.05h-35.73v2.84h-56.15v16.92h-19.69v-11.76h-51.41v-1.16h-48.86v-4h-60.53v43.97h-20.51v-47.14h-48.31v-3.3h-42.38v-6.46h-54.23v-10.45h-59.71v-8.46h-56.27v-12.13h-8.73l-4.92-37.37-91.24,12.02-5.83-44.29-82.92,10.92-6.19-46.99-75.24,9.91-3.81-28.92-10.68,1.4-4.82-36.6-54.25,7.14-6.6-50.16-47.64,6.27-6.97-52.95-71.92,9.47-7.43-56.4-20.61,2.72-5.5-41.75-22.59,2.97-5.9-44.83-40.1,5.28-5.66-43.02-7.68,1.02-3.76-28.56-10.33,1.36-4.3-32.71-18.72,2.47-4.09-31.09,21.38-2.82-14.07-106.82-237.26,31.24-4.3-32.71-8.98,1.18-5.19-39.4,215.78-28.41-7.9-60.01-140.97,18.56-2.68-20.34,151.12-19.89-6.31-47.9,10.57-1.39-5.53-42.02,20.72-2.72-1.78-13.56,110.44-14.54-6.07-46.09,34.37-4.53-5.91-44.89-111.27,14.65-1.11-8.42,27.13-3.57-7.97-60.55,38.87-5.12-8.05-60.59-258.45,34.02,7.73,58.75-38.87,5.12,7.79,59.19-27.13,3.57,7.08,53.77-33.53,4.41,6.43,48.8-20.72,2.72,6.31,47.9-10.57,1.39,7.31,55.58,11.65-1.53,2.68,20.34-21.79,2.87,6.38,48.44-27.92,3.68,6.71,50.97-10.53,1.39,7.9,60,16.55-2.18,10.47,79.53,9.08-1.19,5.42,41.21,22.59-2.97,4.66,35.43,216.64-28.52,2.07,15.73-213.04,28.05,6.53,49.63,50.65-6.67,5.13,38.94,22.59-2.97,6.85,52.05,20.61-2.72,6.55,49.71,71.92-9.47,7.43,56.4,47.64-6.27,6.47,49.15,54.25-7.14,2.97,22.57h-24.31v13.43h-54.01v35.63H23.7v27.88h-56.5v30.85h-41.01v26.01h-36.01v60.16h-20.34v47.47h-19.69v-52.63h-60.53v8h-51.42v4h-48.86v6.8h-20.51v-3.63h-56.06v3.3h-48.31v6.46h-49.23v10.46h-54.23v8.46h-59.71v12.13h-59.25v17.99h-52.87v12.19h-43.32v80.62h51.51v-12.19h52.87v-17.99h52.87v-12.13h61.08v-8.46h59.71v-10.46h54.23v-6.46h42.38v-3.3h48.31v-47.14h20.51v43.97h60.53v-4h27.3l7.06,53.61,22.05-2.9,4.96,37.67-12.1,1.59,8.09,61.48,4.41-.58,2.99,22.72-8.1,1.06,5.46,41.44-6.85.91,8.09,61.48,37.52-4.94,4.49,34.13,26.76-3.52,3.25,24.7,22.39-2.95,2.12,16.11,37.86-4.99.66,4.99,42.61-5.61,1.39,10.62,47.3-6.22,1.22,9.23,44.02-5.79,2.49,18.95,51.52-6.78.9,6.78,48.33-6.36,2.99,22.71,15.56-2.05,4.75,36.06,15.22-2,4.78,36.33,1.74-.23,5.77,43.83-12.6,1.66,8.09,61.48,5.72-.75,5.05,38.37,52.54-6.92.48,3.67,89.01-11.72-.67-5.15,18.37-2.42-8.27-62.82,20.34-2.68-4.44-33.75,4.44-.58-4.78-36.35,6.46-.85-3.14-23.84,18.87-2.48-1.27-9.58,9.97-1.31,1.78,13.54,54.53-7.18-3.27-24.86,35.19-4.64-2.14-16.28,37.16-4.89-.15-1.15h38.25v-3.63h30.26v-23.83h42.44v11.42h39.76v14.13h36.08v8.73h35.42v4.45h41.1v-4.9h15.04v9.18h35.82v5.4h37.69v10.8h44.38v-71.09h9.12v64.11h49.7v-3.82h30.48v-9.51h26.2v-5.97h45.31v-16.89h31.81v-9.51h38.49v-8.68h36.76v-25.38h41.43v-24.99h36.62v-22.86h32.75v-81.91h10.69v45.71h37.76v-32.37h32.42v-38.67l-.02.03ZM529.58,1315.48l-30.26,3.98,2.14,16.28-40.07,5.27,3.27,24.86-17.39,2.29-2.15-16.37-54.53,7.18,1.63,12.4-24.84,3.27,3.14,23.84-18.87,2.48,9.09,69.02-6.46.85,4.44,33.75-25.94,3.42,8.09,61.48,33.36-4.4,5.08,38.58-68.08,8.96-2.48-18.77-25.64,3.38-6.4-48.62,17.54-2.31-8.09-61.48-1.74.23-6.66-50.58-15.22,2-4.78-36.33-15.56,2.05-4.75-36.06-48.33,6.36-1.45-11.03-44.53,5.86-2.43-18.46-51,6.71-3.86-29.32-47.3,6.22-.66-4.99-42.61,5.61-1.07-8.12-37.86,4.99-.18-1.36-22.39,2.95-2.12-16.11-26.76,3.52-3.25-24.7-37.52,4.94-1.86-14.08,6.85-.91-6.49-49.29,8.1-1.06-8.09-61.48-4.41.58-3.6-27.34,12.1-1.59-8.09-61.48-22.05,2.9-4.13-31.36h17.65v-11.76h19.69v16.92h56.15v2.83h35.73v7.05H7.66v-3.08h15.86v7.5h43.39v12.51h45.22v7.05h42.11v6.43h56.51v18.79h53.78v18.51h50.59v16.92h36.91v3.33h29.17v23.47h38.11v27.68h53.95v33.51h56.32v73.73h0Z"/>
  <path class="st0" d="M1103.77,1389.45l-28.23-31.24-4.54,4.1-31.86-35.25-111.32,100.6,34.12,37.76,28.23-25.51,27.76,30.72,28.69-25.93,21.96,24.3,24.02-21.7,23.3,25.79,23.52-21.25,14.34,15.87,3.34-3.02,18.14,20.08,16.96-15.33,24.87,27.52,18.54-16.76,26.43,29.25,18.83-17.02,27.78,30.74,6.44-5.82,20.7,22.91,7.06-6.38,22.22,24.59,25.03-22.62,17.57,19.44-4.98,4.5,17.92,19.83,7.4-6.69,11.2,12.4-3.43,3.1,22.58,24.99,2.84-2.56,31.17,34.49,16.96-15.33,6.11,6.76-11.79,10.65,25.27,27.96-1.16,1.05,24.01,26.57-4.01,3.62,29.75,32.93,44.06-39.82,10.08,11.16-47.23,42.68,23.75,26.28-3.3,2.98,20.84,23.06-8.71,7.87,26.66,29.5-10.57,9.55,29.35,32.48-6.15,5.56,30.92,34.21,30.27-27.36,29.12,32.23,8.04-7.26,6.36,7.04-82.25,74.33,30.85,34.14-52.88,47.79,38.5,42.61-15.87,14.34,29.64,32.8-17.78,16.07,34.53,38.21,25.11-22.69,9.78,10.82-45,40.66,29.95,33.14-12.55,11.34,33.49,37.06-13.73,12.41,37.89,41.93-13.94,12.6,33.61,37.19-4.77,4.31,35.2,38.96-5.23,4.72,29.09,32.19-9.28,8.38,30.8,34.08,46.86-42.35,10.63,11.77-50.14,45.31,23.96,26.51-5.23,4.72,14.23,15.75-24.65,22.27-24.14-26.72-22.89,20.68-27.49-30.42-20.69,18.69-67.07-74.22-26.44,23.89-33.53-37.11-9.96,9-36.21-40.07-28.53,25.78-123.73-105.29,9.46-11.11,83.35,70.93,33.38-39.23-59.02-50.23,28.65-33.67-68.14-57.98,42.82-50.32-112.95-96.12-18.58-20.56,9.04-8.17-35.44-39.22,13.35-12.06-39.72-43.96,9-8.13-40.03-44.3,6.28-5.67-36.36-40.24,7.76-7.01-33-36.52,4.8-4.33-32.39-35.84,2.45-2.21-37.59-41.59-2.69,2.43-13.75-15.22,25.86-23.37-32.76-36.25,31.42-28.39-40.58-44.91-43.34,39.17-34.47-38.14-39.05,35.29-13.2-14.61,35.22-31.83-40.58-44.91-2.1,1.9-27.87-30.84-5.23,4.72-23.96-26.51-39.22,35.44-1.8-1.73,25.8-26.81-7.78-7.48,9.09-8.21-4.84-5.35,24.7-25.66-37.72-36.3-30.85,32.06-20.47-22.65-5.23,4.72-35.2-38.96-4.77,4.31-33.61-37.19-13.94,12.6-37.89-41.93-13.73,12.41-33.49-37.06-12.55,11.34-29.95-33.14-45,40.66-9.78-10.82,25.11-22.69-34.53-38.21-64.88,58.63,34.53,38.21,17.41-15.73,19.56,21.65,2.47-2.24,24.75,27.39,12.55-11.34,33.92,37.54,13.73-12.41,36.06,39.9,13.94-12.6,37.89,41.93,4.77-4.31,28.24,31.25,5.23-4.72,30.31,33.54,9.28-8.38,14.34,15.86-4.91,5.1,10.12,9.74-17.03,17.69,1.43,1.38-21.54,22.39,7.3,7.03-29.52,30.68,7.98,7.68-31.38,32.62,8.11,7.8-32.98,34.28,2.77,2.67-24.58,25.55,3.04,2.92-26.39,27.42,5.4,5.19-25.32,26.32,3.24,3.11-9.26,9.62-1.33-1.28-26.81,27.87,3.04,2.92-20.85,21.67,1.22,1.17-32.77,34.06,7.3,7.03-11.49,11.94-5.07-4.88-30,31.18-.5-.48-28.51,29.64-1.72-1.66-35.32,36.71,9.23,8.88-11.21,13.17-11.36-10.93-28.19,29.3-1.42-1.37-24.74,25.7-2.79-2.68-31.65,32.9-4.51-4.34-34.85,36.21-3.65-3.51-35.64,37.04-5.23-5.03-30.85,32.06-7.76-7.47-30.85,32.06-5.26-5.06-30.06,31.23,34.77,33.46,18.27-18.99,5.26,5.06,37.86-39.34,7.76,7.47,34.57-35.93,5.23,5.03,34.84-36.22,3.65,3.51,31.65-32.9,4.51,4.34,28.73-29.86,2.79,2.68,28.19-29.3,1.42,1.37,26.23-27.26,66.23,56.36,5.71-6.7,21.75,18.51-20.8,24.44,90.49,77.01,5.57-6.54,27.36,23.28-21.06,24.74,90.49,77.01,3.56-4.19,20.84,17.73-33.82,39.73,112.11,95.41,27.55-32.38,27.49,23.39-3.64,4.27,82.03,69.81-11.12,13.08,112.11,95.41,40.19-47.22-82.03-69.81,11.12-13.08-82.04-69.82,3.64-4.27-112.12-95.4-27.55,32.38-23.78-20.24,33.82-39.73-90.49-77.01-3.56,4.19-8.12-6.9,21.06-24.74-90.49-77.01-5.57,6.54-45.44-38.68,20.79-24.44-90.49-77.01-5.71,6.7-21.56-18.35,3.81-3.95,1.72,1.66,30-31.18,3.45,3.32,35.32-36.71-22.7-21.84,11.49-11.94,20.48,19.7,35.32-36.71-1.22-1.17,24.26-25.21-3.04-2.92,20.85-21.67-29.14-28.05,9.26-9.62,27.24,26.21,26.81-27.86-5.4-5.19,25.32-26.32-3.04-2.93,30.64-31.84-2.77-2.67,29.26-30.41-8.11-7.8,32.98-34.28-7.98-7.68,29.15-30.3-7.3-7.03,26.07-27.09-26.16-25.17,8.51-8.85,14.6,14.05,5.44-5.65,21.22,23.48,5.23-4.72,23.96,26.51,2.1-1.9,37.65,41.66,12.55-11.34,13.2,14.61-8.72,7.88,34.47,38.14-.86.78,32.76,36.25-2.97,2.68,40.58,44.91,32.62-29.48,13.75,15.22-34.97,31.61,32.39,35.84-2.45,2.21,28.42,31.45-4.8,4.33,36.36,40.24-7.76,7.01,40.03,44.3-6.28,5.67,37.73,41.75-9,8.13,5.85,6.48-24.42,28.71,70.09,59.64-28.95,34.02,63.69,54.2-30.72,36.1,57.8,49.18-18.9,22.21,8.2,6.98-23.92,28.12,41.67,35.46-32.79,38.53,36.59,31.14-34.61,40.67,55.24,47.01-36.87,43.33,15.84,13.47-27.29,32.07,17.35,14.77-29.3,34.44,30.81,26.21-28.12,33.04,5.91,5.02-18.67,21.94,7.94,6.76-21.39,25.13,14.38,12.24-20.32,23.88-16.43-13.97-69.82,82.06,182.25,155.09-21.39,25.13,6.9,5.87-25.75,30.27-165.75-141.05-39.23,46.1,108.29,92.15-13.29,15.62-116.08-98.79-31.31,36.79-8.12-6.91-27.47,32.28-15.91-13.54-8.86,10.41-84.83-72.19-30.12,35.4-26.4-22.46-29.35,34.49,85.47,72.74-5.51,6.47-20.84-17.73-39.58,46.51-29.86-25.41-39.55,46.6,198.53,168.94,38.4-45.12,29.86,25.41,38.69-45.47,20.84,17.73,35.14-41.31,25.76,21.92,31.9-37.49,15.91,13.54,31.31-36.79,8.12,6.91,36.33-42.69-8.95-7.61,13.29-15.62,16.74,14.24,31.66-37.21,21.45,18.25,33.32-39.16,8.09,6.88,39.22-46.09-12.71-10.82,51.98-61.09-6.97-5.94,26.94-31.65-17.35-14.77,23.16-27.21-166.41-141.61,10.28-12.08,163.65,139.26,32.45-38.12-38.91-33.11,25.45-29.91-17.35-14.77,34.02-39.98-15.84-13.47,32.49-38.19-55.24-47.01,36.87-43.33-36.59-31.14,32.13-37.76-41.67-35.46,14.75-17.34,16.3,18.04,9.96-9,36.21,40.07,26.44-23.89,62.72,69.4,20.69-18.69,37.88,41.92,22.89-20.68,27.49,30.42,19.3-17.44,24.14,26.72,44.64-40.34,13.64,15.09,35.22-31.83,13.2,14.61-39.05,35.29,40.58,44.91,5.93-5.36,34.47,38.15,2.97-2.68,32.76,36.25,5.04-4.56,13.75,15.22-2.69,2.43,37.59,41.59,2.45-2.21,32.39,35.84,4.8-4.33,33,36.52,7.76-7.02,36.36,40.24,6.28-5.67,40.03,44.3,9-8.13,39.72,43.96,13.35-12.06,35.44,39.22,9.04-8.17,29.04,32.14,59.81-54.05-34.53-38.22-9.04,8.17-35.44-39.22-13.35,12.06-35.44-39.22-9,8.13-40.95-45.31-6.28,5.67-40.03-44.3-7.76,7.02-36.36-40.24-4.8,4.33-28.42-31.45-2.45,2.21-32.39-35.84-34.97,31.61-13.75-15.22,32.62-29.48-40.58-44.91-2.97,2.68-18.3-20.26,35.05-41.18-16.94-14.42,24.63-28.94,9.29,7.91,40.19-47.22-3.39-2.88,14.85-17.45,6.22,5.3,27.09-31.83,5.27,4.48,40.19-47.22-28.82-24.52,22.31-26.21-20.55-17.49,16.14-18.97-17.2-14.63,10.53-12.38-29.08-24.74,3.26-3.83-32.73-27.86,6.95-8.16-36.33-30.92,6.03-7.09-33.81-28.78,12.39-14.56-39.57-33.68,4.43-5.21-37.13-31.59,14.84-17.45-11.96-10.17,23.57-27.7-11.69-9.95,23.75-27.91-1.34-1.13,28.65-33.67,9.68,8.23,40.19-47.22-4.39-3.74,25.08-29.48-40.36-34.34,2.4-2.81-68.38-58.18-3.37,3.96-14.11-12.01-41.07,48.25-15.62-13.29-22.06,25.92-3.41-2.91-23.76,27.92-4.96-4.22-15.58,18.31-14.49-12.33-6.26,7.36-7.65-6.51,8.85-10.4-41.88-35.64-16.25,19.1-27.03-23-10.64,12.51-28.54-24.28-.75.88-25.65-28.38-2.69,2.43-20.29-22.45-17.68,15.98-28.45-31.49,8.48-7.66-26.66-29.5,10.48-9.47-24.19-26.77,6.48-5.85-23.75-26.28,3.3-2.98-27.56-30.49-3.64,3.29-10.08-11.16,6.81-6.16-24.01-26.57,4.01-3.62-25.27-27.96,8.01-7.24-29.75-32.93-52.74,47.66-6.11-6.76,47.57-42.99-33.32-36.87-2.84,2.56-20.43-22.61-7.06,6.38-17.57-19.44-4.43,4-30.38-33.62-12.53,11.33-21.33-23.6-7.06,6.38-25.81-28.56-6.44,5.82-24.65-27.27-18.83,17.02-27.78-30.74-18.54,16.76-24.55-27.17-16.96,15.33-21.96-24.3-60.77,54.92-7.17-7.93,33.91-30.65-25.31-28.01-24.02,21.7-21.73-24.05-28.69,25.93h.03ZM1791.22,1970.83l23.24,19.78,10.64-12.51,30.78,26.2,16.25-19.1,13.36,11.37-10.7,12.57,41.88,35.64,8.11-9.53,19.08,16.24,15.58-18.31,14.49,12.33,45.11-53.02,4.96,4.22,22.06-25.92,19.93,16.96,40.19-47.22-25.63-21.8,25.22-29.63,52.29,44.5-12.26,14.42,19.7,16.76-31.78,37.34-13.47-11.46-40.19,47.22,1.34,1.13-33.07,38.86,11.69,9.95-23.75,27.91,11.96,10.17-23.57,27.7,37.13,31.59-7.21,8.47,34.21,29.11-12.07,14.18,39.18,33.34-19.17,22.52,36.33,30.92-3.26,3.83,32.73,27.86-5.3,6.24,29.08,24.74-.89,1.04,17.2,14.63-10.53,12.38,20.55,17.49-16.14,18.97,28.82,24.52-9.21,10.82-5.27-4.48-32.22,37.87-6.22-5.3-40.19,47.22,3.39,2.88-17.87,21-9.29-7.91-40.19,47.22,16.94,14.42-20.5,24.09-11.83-13.09-8.72,7.88-13.2-14.61,12.55-11.34-37.65-41.66,2.1-1.89-23.96-26.51,5.23-4.72-30.8-34.08-2.29,2.07-10.63-11.77,5.56-5.03-29.09-32.19,9.28-8.38-30.32-33.55,5.23-4.72-28.24-31.25,4.77-4.31-37.89-41.93,13.94-12.6-36.06-39.9,13.73-12.41-33.92-37.54,12.55-11.34-24.75-27.39,2.47-2.24-19.56-21.64,17.41-15.73-25.55-28.27,20.54-18.56-36.18-40.03,24.86-22.47-37.76-41.79,54.7-49.43h0Z"/>
</svg>