<?xml version="1.0" encoding="UTF-8"?>
<svg id="Ebene_1" xmlns="http://www.w3.org/2000/svg" version="1.1" viewBox="0 0 165.47 156.43">
  <!-- Generator: Adobe Illustrator 29.5.0, SVG Export Plug-In . SVG Version: 2.1.0 Build 137)  -->
  <defs>
    <style>
      .st0 {
        fill: #fe5200;
      }
    </style>
  </defs>
  <path class="st0" d="M85.35,74.79c.56.43,2.42-4.88,2.68-5.39,14.58-28.05,46.61-30.71,60.55-.59,8.81,19.03,6.72,42.77-6.01,59.5-13.11,17.22-34.82,19.73-49.34,2.58-2.27-2.68-3.67-5.79-5.91-8.45-6.64,22.03-26.15,37.11-48.81,24.62C8.39,130.45,2.63,72.52,29.07,50.17c21.96-18.57,49.02,1.91,56.28,24.62M44.72,46.14c-22.81,2.87-29.78,34.84-27.84,53.65,2.12,20.64,17.11,52.79,42.52,47.67,21.44-4.31,27.9-33.03,26.73-51.6-1.32-20.91-16.11-52.9-41.41-49.72M135.57,130.57c15.67-15.68,18.32-46.56,7.14-65.35-12.3-20.69-34.85-19.97-47.86-.4-2.03,3.06-7.14,13.51-7.16,16.85-.01,2.01,1.56,6.96,1.91,9.52.8,5.87.86,11.75.46,17.65-.49,7.2-1.86,6.85,1.9,13.85,9.45,17.56,28.75,22.74,43.61,7.87"/>
  <path class="st0" d="M21.59,36.11c.97-7.7,10.03-21.84,17.21-24.91,1.72-.74,12.97-4.08,13.86-3.22,1.17,6.92,4.02,13.75,3.37,20.86-6.14,2.22-12.92,2.41-19.09,4.92-5.16,2.1-10.07,5.93-14.55,9.08l-.8-.42c.18-2-.25-4.36,0-6.3"/>
  <path class="st0" d="M133.35,42.21c-3.81-1.58-6.71-4.59-10.52-6.21-6.38-2.7-13.26-2.39-19.61-4.81l3.86-13.1c.47-1.02,1.51-3.78,2.78-3.76.75.01,9.48,4.59,10.77,5.37,8.21,4.95,13,12.76,12.72,22.51"/>
  <path class="st0" d="M49.43,86.41c7.44-1.55,10.63,10.37,10.74,15.87.12,5.54-3.06,17.89-10.91,13.26-7.66-4.51-8.52-27.32.17-29.13M46.89,93.52c-2.41,2-1.75,9.03,2.76,7.67,4.09-1.23,1.07-10.85-2.76-7.67"/>
  <path class="st0" d="M102.41,85.67c6.49-6.33,11.25,5.34,11.66,10.69.36,4.74-1.55,16.77-8.55,14.46-7.34-2.42-8.28-20.11-3.11-25.15M103.73,89.54c-4.27.88-2.86,10.22,1.82,7.75,3.2-1.69,1.96-8.53-1.82-7.75"/>
</svg>