<?xml version="1.0" encoding="UTF-8"?>
<svg id="Ebene_1" xmlns="http://www.w3.org/2000/svg" version="1.1" viewBox="0 0 1447.89 1137.84">
  <!-- Generator: Adobe Illustrator 29.5.0, SVG Export Plug-In . SVG Version: 2.1.0 Build 137)  -->
  <defs>
    <style>
      .st0 {
        fill: #fff;
      }
    </style>
  </defs>
  <path class="st0" d="M27.12,697.66c10.54,40.26,22.86,58.99,63.2,73.37,29.09,10.37,84.48,23.03,114.98,24.05,47.14,1.58,62.19-25.13,85.62-59.15,19.81-28.77,57.64-78.15,53.64-114.21-1.56-14.02-9.73-28.98-18.78-42.34-1.28,0-2.58-.02-3.91-.06-.9-.03-1.82-.07-2.76-.12.94.05,1.86.09,2.76.12,22.34.75,37.47-4.86,49.7-14.59,5.31,18.75,11.39,32.5,21.35,43.3-.06-.06-.12-.12-.18-.19-16.38,41.32-15.55,62.89-3.42,109.24,10.54,40.26,22.86,58.99,63.2,73.37,7.82,2.79,17.56,5.74,28.2,8.59-1.07,17.77,2.17,35.69,8.79,60.97,10.54,40.26,22.86,58.99,63.2,73.37,20.58,7.34,54.34,15.82,83.13,20.51.82,3.38,1.7,6.88,2.66,10.56,10.54,40.26,22.86,58.99,63.2,73.37,29.09,10.37,84.48,23.03,114.98,24.05,31.83,1.07,49.02-10.78,64.05-29.05,0,0,0,0,0,0,9.77,19.03,24.23,30.77,51.52,40.5,29.09,10.37,84.48,23.03,114.98,24.05,38.69,1.3,55.77-16.48,73.61-41.7,8.4,6.9,19.13,12.51,33.34,17.57,29.09,10.37,84.48,23.03,114.98,24.05,47.14,1.58,62.19-25.13,85.62-59.15,19.81-28.77,57.64-78.15,53.64-114.21-2.37-21.32-20.01-44.79-32.8-61.55-24.52-32.16-45.76-47.78-83.27-63.07-25.32-10.31-56.88-22.48-82.94-30.06-38.23-11.13-51.96-2.07-71.36,30.21-5.41,9.01-10.74,18.97-15.88,29.27,0,0,0,0,0,0-14.39-11.87-30.44-20.66-51.74-29.34-25.32-10.31-56.88-22.48-82.94-30.06-38.23-11.13-51.96-2.07-71.36,30.21-2.15,3.58-4.28,7.31-6.4,11.15-19.54-21.66-39.3-34.34-69.86-46.79-15.16-6.18-32.55-13.01-49.67-19.13,0,0,0,0,0,0-5.29-8.09-11.04-15.69-16.05-22.25-21.44-28.11-40.37-43.59-69.85-57.25,0,0,0,0,0,0,2.29-8.43,3.3-16.58,2.46-24.14-2.37-21.32-20.01-44.79-32.8-61.55-5.28-6.92-10.4-13.07-15.57-18.62,16.39-25.45,31.59-54.66,28.98-78.19-2.17-19.52-17.15-40.85-29.48-57.18,19.38,3.98,38.44,6.86,52.33,7.33,25.35.85,41.41-6.49,54.49-18.74,0,0,0,0,0,0,10.44,39.01,22.99,57.4,62.72,71.56,29.09,10.37,84.48,23.03,114.98,24.05,47.14,1.58,62.19-25.13,85.62-59.15,19.81-28.77,57.64-78.15,53.64-114.21-2.37-21.32-20.01-44.79-32.8-61.55-24.52-32.16-45.77-47.78-83.27-63.07-25.32-10.31-56.88-22.48-82.94-30.06-33.27-9.68-47.98-4.08-64.02,18.81-.66-.87-1.31-1.72-1.95-2.56-24.52-32.16-45.76-47.78-83.27-63.07-25.32-10.31-56.88-22.48-82.94-30.06-38.23-11.13-51.96-2.07-71.36,30.21-.79,1.31-1.57,2.65-2.36,4.01,0,0,0,0,0,0-2.55-3.48-5.07-6.79-7.42-9.87-24.52-32.16-45.77-47.78-83.27-63.07-25.32-10.32-56.88-22.48-82.94-30.06-38.23-11.13-51.96-2.07-71.36,30.21-14.75,24.54-28.9,56.12-40.14,82.62-18.7,44.13-19.81,65.57-9.22,108.76,0,0,0,0,0,0-6.98-2.35-13.81-4.53-20.29-6.41-38.23-11.13-51.96-2.07-71.36,30.21-14.75,24.54-28.9,56.12-40.14,82.62-17.59,41.53-19.61,62.97-10.97,101.35-33.81-8.49-47.11,1.24-65.47,31.8-14.75,24.54-28.9,56.12-40.14,82.62-19.95,47.1-19.88,68.35-6.93,117.79ZM168.6,533.21c.16.16.33.33.49.49-.17-.16-.33-.32-.49-.49ZM207.2,558.23c-7.54-1.71-17.9-6.97-23.8-11.97-2.16-1.83-3.8-3.47-5.02-4.93-.02-.01-.04-.03-.06-.04,7.61,5.3,16.92,9.82,28.58,13.98,3.59,1.28,7.58,2.59,11.87,3.92-1.03-.32-2.05-.64-3.05-.95-2.95,1.41-5.11.77-8.53,0ZM170.29,534.84s.04.04.06.06c-.02-.02-.04-.04-.06-.06ZM173.05,537.27c.15.13.3.25.45.38-.15-.13-.3-.25-.45-.38ZM174.85,538.73c.15.12.3.23.45.35-.15-.12-.3-.23-.45-.35ZM252.46,677.19c-4.62-17.91,25.86-35.35,39.08-22.83,1.38,1.31,3.05,3.65,3.44,5.51,4.85,23.37-37.21,37.89-42.51,17.32ZM219.72,559.47c.72.22,1.44.44,2.18.66-.74-.22-1.46-.44-2.18-.66ZM223.12,560.49c.67.2,1.34.4,2.02.59-.68-.2-1.35-.4-2.02-.59ZM226.47,561.47c.66.19,1.33.38,2,.57-.67-.19-1.34-.38-2-.57ZM229.87,562.43c.67.19,1.34.37,2.02.56-.68-.19-1.35-.37-2.02-.56ZM233.33,563.39c.7.19,1.41.38,2.11.57-.71-.19-1.41-.38-2.11-.57ZM236.84,564.33c.83.22,1.67.44,2.51.66-.84-.22-1.68-.44-2.51-.66ZM240.59,565.31c1.09.28,2.19.56,3.3.84-1.11-.28-2.21-.56-3.3-.84ZM245.52,566.55c.67.17,1.33.33,2,.49-.67-.16-1.33-.33-2-.49ZM249.33,567.48c.62.15,1.24.3,1.86.45-.62-.15-1.24-.3-1.86-.45ZM253.06,568.37c.61.14,1.22.28,1.82.42-.61-.14-1.22-.28-1.82-.42ZM256.81,569.23c.59.14,1.19.27,1.78.4-.59-.13-1.19-.27-1.78-.4ZM303.18,586.41l-1.22,1.22c-7.26,2.4-26.11-7.66-33.92-15.94,11.84,2.46,23.6,4.53,34.18,5.9-1.09-.14-2.2-.29-3.32-.45,2.16,1.99,3.75,3.91,4.22,5.5.37,1.24.32,2.52.06,3.77ZM260.57,570.08c.59.13,1.18.26,1.77.39-.59-.13-1.18-.26-1.77-.39ZM264.31,570.89c.59.13,1.19.25,1.78.38-.59-.13-1.19-.25-1.78-.38ZM316.24,579.02c.65.05,1.28.08,1.91.12-.63-.04-1.26-.08-1.91-.12ZM303.41,577.73c.72.09,1.43.18,2.14.26-.7-.08-1.42-.17-2.14-.26ZM306.87,578.14c.64.07,1.28.14,1.91.21-.63-.07-1.27-.14-1.91-.21ZM310.13,578.49c.61.06,1.22.12,1.82.17-.6-.06-1.21-.11-1.82-.17ZM313.25,578.78c.61.05,1.21.1,1.8.15-.6-.05-1.19-.09-1.8-.15ZM333.56,341.76c-3.64,2.29-5.9,1.57-9.79.69-7.54-1.71-17.9-6.97-23.8-11.96-16.27-13.77-4.19-17.23,10.69-10.69.43.19,1,.47,1.68.81,0,0,0,0-.01-.01,4.78,4.27,10.35,8.05,16.97,11.51,0,0,0,0,0,0,3.68,3.46,5.93,6.99,4.27,9.66ZM292.7,291.56c.11.28.23.56.34.83-.11-.27-.23-.55-.34-.83ZM293.76,294.06c.12.28.24.55.37.83-.12-.27-.25-.55-.37-.83ZM294.89,296.55c.09.2.19.39.28.59-.09-.2-.19-.39-.28-.59ZM298.03,302.65c.09.16.19.33.28.49-.09-.16-.19-.33-.28-.49ZM299.26,304.75c.1.17.21.34.31.51-.11-.17-.21-.34-.31-.51ZM300.59,306.88c.05.08.1.15.15.23-.05-.08-.1-.15-.15-.23ZM304.51,312.31c.04.05.08.1.12.15-.04-.05-.08-.1-.12-.15ZM305.91,314.02c.08.09.16.18.24.28-.08-.09-.16-.18-.24-.28ZM307.5,315.83s.03.03.04.04c-.01-.02-.03-.03-.04-.04ZM344.67,338.9c1.06.4,2.13.8,3.24,1.19.82.29,1.66.59,2.52.88-.86-.3-1.71-.59-2.52-.88-1.1-.39-2.18-.79-3.24-1.19ZM335.38,335.07c.24.11.48.22.72.32-.24-.11-.48-.22-.72-.32ZM337.91,336.18c.79.34,1.6.68,2.42,1.01-.82-.34-1.62-.67-2.42-1.01ZM341.51,337.67c.7.28,1.41.56,2.12.83-.72-.28-1.43-.55-2.12-.83ZM646,447.45l-1.22,1.22c-8.67,2.87-33.85-12.03-37.05-20.44-.42-1.09-.97-2.05-.55-3.29,1.48-4.71,13.37-.21,16.48,1.18,5.34,2.38,20.65,12.02,22.29,17.56.37,1.24.32,2.52.06,3.77ZM634.35,515.41c1.38,1.31,3.05,3.65,3.44,5.51,3.41,16.42-16.32,28.46-30.21,27.05-3.16-2.07-10.83-7.81-12.68-11.92-1.77-17.1,26.78-32.66,39.45-20.64ZM714.86,839.54c-4.62-17.91,25.86-35.35,39.08-22.83,1.38,1.31,3.05,3.65,3.44,5.51,4.85,23.37-37.21,37.89-42.51,17.32ZM757.39,892.43c-.42.59-.83,1.18-1.23,1.76.41-.58.82-1.17,1.23-1.76ZM755.88,894.59c-.34.49-.68.98-1.01,1.46.33-.48.67-.97,1.01-1.46ZM754.54,896.51c-.41.6-.82,1.19-1.22,1.77.4-.58.81-1.17,1.22-1.77ZM692.31,706.81c-1.38-.52-3.24-1.4-5.32-2.52,0,0,0,0,0,0,2.25-3.9,4.4-7.84,6.41-11.79,0,0,0,0,0,0,7.12,4.42,13.12,9.7,13.64,13.48.9,6.49-11.64,1.99-14.72.83ZM679.38,719.88c-1.01.64-1.91,1.03-2.78,1.27,1.02-1.58,2.05-3.17,3.06-4.77.41,1.26.37,2.45-.28,3.5ZM655.8,751.5c.81-1.16,1.64-2.35,2.49-3.56-.85,1.21-1.68,2.4-2.49,3.56ZM659.59,956.94s-.09,0-.13-.01c.04,0,.09,0,.13.01ZM656.53,956.66c-.08,0-.15-.01-.23-.02.08,0,.15.01.23.02ZM653.33,956.33c-.09-.01-.19-.02-.28-.03.09.01.19.02.28.03ZM653.13,755.34c.79-1.15,1.62-2.34,2.47-3.56-.85,1.22-1.67,2.41-2.47,3.56ZM614.67,696.6c-4.62-17.91,25.86-35.35,39.08-22.83,1.38,1.31,3.05,3.65,3.44,5.51,4.85,23.37-37.21,37.89-42.51,17.32ZM411.19,520.69c-.13,7.17-5.02,23.42-10.07,28.62-6.57,6.77-9.32.62-10.08-5.57,5.38-7.2,10.67-15.17,16.46-23.58,2.38-3.46,5.02-7.21,7.82-11.2-1.57,2.25-3.1,4.42-4.56,6.51.33,1.82.45,3.69.43,5.22ZM421.91,359.02l-.15-.03.15.03ZM417.88,358.27c-.06-.01-.12-.02-.18-.03.06.01.12.02.18.03ZM425.89,359.74s-.04,0-.07-.01c.02,0,.04,0,.07.01ZM512.43,349.68c8.59,4.23,17.38,10.35,18.13,15.14,1.16,7.32-15.34.86-18.33-.45-3.21-1.4-7.94-4.07-12-7.03,4.42-2.13,8.46-4.69,12.21-7.66ZM594.91,536.05c.03.3.07.6.12.9-.05-.3-.09-.6-.12-.9ZM595.28,538.23c.09.36.2.7.31,1.03-.11-.33-.22-.68-.31-1.03ZM595.71,539.59c.08.22.17.44.26.66-.09-.21-.18-.43-.26-.66ZM596.12,540.59c.09.2.19.39.28.58-.1-.19-.19-.38-.28-.58ZM596.58,541.5c.11.19.22.38.34.56-.12-.18-.23-.37-.34-.56ZM597.09,542.33c.15.23.31.44.48.66-.17-.21-.33-.43-.48-.66ZM597.66,543.1c.2.25.41.48.62.71-.22-.23-.42-.46-.62-.71ZM598.46,543.99c.16.16.32.32.49.47-.17-.15-.33-.31-.49-.47ZM599.2,544.68c.16.13.31.26.48.39-.16-.12-.32-.25-.48-.39ZM599.95,545.27c.17.12.34.24.52.35-.18-.11-.35-.23-.52-.35ZM600.73,545.79c.22.13.44.26.66.38-.22-.12-.44-.25-.66-.38ZM601.54,546.25c.28.15.57.29.87.42-.3-.13-.59-.27-.87-.42ZM602.57,546.73c.24.1.49.2.74.29-.25-.09-.5-.19-.74-.29ZM603.59,547.12c.22.07.44.14.66.21-.22-.06-.44-.13-.66-.21ZM604.56,547.41c.22.06.45.12.68.17-.23-.05-.46-.11-.68-.17ZM605.53,547.65c.26.06.53.1.8.15-.27-.04-.54-.09-.8-.15ZM606.53,547.83c.35.05.7.1,1.05.14-.35-.04-.7-.08-1.05-.14ZM559.8,418.57c-3.64,2.29-5.9,1.57-9.79.69-7.54-1.71-17.9-6.97-23.8-11.97-16.27-13.77-4.19-17.23,10.69-10.69,4.9,2.15,27.23,14.97,22.9,21.97ZM461.42,412.17c0-.25,0-.49,0-.74,0,.25,0,.49,0,.74ZM499.58,581.9c3.72,22.96-39.82,33.61-44.16,13.27-5.15-24.16,40.67-34.77,44.16-13.27ZM460.54,421.68c.01-.08.02-.15.04-.23-.01.08-.02.15-.04.23ZM460.83,419.76c.02-.18.05-.36.07-.54-.02.18-.04.36-.07.54ZM461.07,417.84c.02-.22.04-.44.07-.66-.02.22-.04.44-.07.66ZM461.25,415.94c.02-.24.04-.48.05-.71-.02.24-.03.47-.05.71ZM461.37,414.05c.01-.25.02-.49.03-.74,0,.25-.02.49-.03.74ZM461.41,410.28c0-.23,0-.47-.02-.7,0,.23.01.47.02.7ZM461.34,408.34c-.01-.2-.02-.4-.03-.59.01.2.02.4.03.59ZM459.29,427.76c-.02.08-.04.17-.06.25.02-.08.04-.17.06-.25ZM458.76,429.79c-.03.11-.06.22-.09.33.03-.11.06-.22.09-.33ZM458.19,431.85c-.03.11-.07.23-.1.34.03-.11.07-.23.1-.34ZM457.55,433.95c-.03.1-.06.2-.09.3.03-.1.06-.2.09-.3ZM456.85,436.1c-.02.06-.04.12-.06.19.02-.06.04-.12.06-.19ZM452.19,453.63c-1.18,2.9-5.42,10.9-9.84,13.77,0,0,0,.01-.01.02,5.46-9.61,10.3-19.45,13.74-29.07-.61,5.46-2.16,11.05-3.89,15.28ZM547.86,812.76c-1.07-.14-2.15-.28-3.25-.44,1.09.15,2.18.3,3.25.44ZM543.13,812.11c-.65-.09-1.3-.19-1.95-.28.66.1,1.3.19,1.95.28ZM539.4,811.55c-.57-.09-1.13-.17-1.7-.26.57.09,1.14.18,1.7.26ZM551.18,813.17c-.67-.08-1.35-.16-2.03-.25.68.08,1.36.17,2.03.25ZM572.73,405.5c-6.21-2.34-22.25-11.94-23.84-18.51-.45-1.85-.13-3.3,1.86-3.91.71-.21,1.58-.28,2.57-.22,8.07,9.46,18.81,16.72,34.13,23-.81,4.67-11.85.71-14.72-.38ZM573.3,297.47c-.13,7.17-5.02,23.42-10.07,28.62-8.49,8.75-10.61-4.08-10.27-10.68.33-6.47,5.7-24.22,10.52-28.5,7.64-6.77,9.93,4.52,9.82,10.56ZM572.05,270.71c.06-.09.11-.18.17-.27-.06.09-.11.18-.17.27ZM567.85,277.06s.07-.1.1-.15c-.03.05-.07.1-.1.15ZM569.91,273.96c.06-.1.13-.2.19-.29-.06.1-.13.2-.19.29ZM563.7,283.17s.07-.1.1-.14c-.03.05-.07.1-.1.14ZM552.25,299.61c.46-.65.92-1.31,1.39-1.98-.47.67-.93,1.33-1.39,1.98ZM559.56,289.17c.05-.07.09-.13.14-.2-.05.07-.09.13-.14.2ZM561.59,286.24c.06-.08.11-.17.17-.25-.06.08-.11.17-.17.25ZM548.6,304.86c.47-.68.95-1.37,1.43-2.07-.49.7-.97,1.39-1.43,2.07ZM550.32,302.37c.47-.68.96-1.37,1.44-2.07-.49.7-.97,1.39-1.44,2.07ZM510.05,246.25c-4.62-17.91,25.86-35.35,39.08-22.83,1.38,1.31,3.05,3.66,3.44,5.51,4.85,23.37-37.21,37.89-42.51,17.32ZM530.72,330.32c.43,1.69.87,3.41,1.33,5.17.74,2.83,1.49,5.54,2.26,8.16-3.73-1.39-7.46-2.76-11.19-4.11,2.61-2.89,5.12-5.97,7.61-9.23ZM409.53,356.61c4.86,3.47,9.33,7.41,10.17,10.26.37,1.24.32,2.52.06,3.77l-1.22,1.22c-8.67,2.87-33.85-12.03-37.05-20.44-.19-.5-.41-.97-.55-1.46,9.19,2.37,18.92,4.64,28.6,6.65ZM413.62,357.44s.09.02.14.03c-.05,0-.09-.02-.14-.03ZM440.52,470.57c-.05.09-.11.18-.16.27.05-.09.11-.18.16-.27ZM438.53,473.93l-.12.21.12-.21ZM434.5,480.46s-.03.04-.04.07c.01-.02.03-.04.04-.07ZM432.52,483.58c-.06.09-.11.17-.17.26.06-.09.11-.17.17-.26ZM430.43,486.81c-.04.06-.07.11-.11.17.04-.06.07-.11.11-.17ZM426.36,492.94c-.04.07-.09.13-.13.2.04-.07.09-.13.13-.2ZM424.34,495.93c-.07.11-.15.21-.22.32.07-.11.15-.21.22-.32ZM422.26,498.98c-.05.08-.11.16-.16.24.05-.08.11-.16.16-.24ZM420.23,501.92s-.02.03-.04.05c.01-.02.02-.04.04-.05ZM418.41,504.54c-.11.17-.23.33-.34.49.11-.16.23-.33.34-.49ZM416.54,507.22c-.26.37-.52.74-.77,1.1.26-.37.51-.74.77-1.1ZM408.12,438.6c1.38,1.31,3.05,3.65,3.44,5.51,4.85,23.37-37.21,37.89-42.51,17.32-4.62-17.91,25.86-35.35,39.08-22.83ZM350.94,341.15c.84.29,1.69.57,2.56.86-.87-.29-1.72-.57-2.56-.86ZM354,342.17c.79.26,1.59.52,2.4.78-.81-.26-1.61-.52-2.4-.78ZM356.88,343.1c.88.28,1.78.56,2.69.84-.91-.28-1.81-.56-2.69-.84ZM360.38,344.19c.9.28,1.81.55,2.74.83-.93-.28-1.84-.55-2.74-.83ZM363.8,345.22c.75.22,1.52.45,2.29.67-.77-.22-1.53-.45-2.29-.67ZM367.1,346.19c.89.26,1.79.51,2.7.77-.91-.26-1.81-.51-2.7-.77ZM370.97,347.28c.69.19,1.39.39,2.1.58-.7-.19-1.4-.39-2.1-.58ZM374.53,348.26c.77.21,1.54.41,2.31.62-.77-.21-1.54-.41-2.31-.62ZM378.21,349.25c.89.23,1.79.47,2.69.7-.9-.23-1.8-.47-2.69-.7ZM386.49,549.59c-.07.09-.14.17-.22.26.07-.09.14-.17.22-.26ZM384.24,552.29c-.13.16-.27.31-.41.47.14-.16.27-.31.41-.47ZM374.14,562.59c.1-.08.19-.17.29-.26-.1.09-.19.17-.29.26ZM376.64,560.32c.14-.13.27-.26.41-.39-.14.13-.27.26-.41.39ZM379.07,557.94c.15-.16.31-.31.46-.47-.15.16-.31.32-.46.47ZM381.92,554.92c-.15.17-.31.33-.46.5.15-.17.31-.33.46-.5ZM395,610.18c-.09-.09-.19-.19-.28-.28.09.09.19.19.28.28ZM394.87,636.92c.62-5.91,2.93-7.69,4.24-11.29.52-1.41-.25-2.75.11-3.86.39-1.18,1.49-3.34,2.9-5.43,0,0,0,0,0,0,3.04,2.3,6.37,4.45,10.03,6.48-.88,10.06-5.44,23.23-10.3,27.16-7.59,6.14-7.42-8.96-6.99-13.06ZM405.35,679.12c-6.02-7.19-1.52-18.15,0-26.45l1.61.83c-1.95-5.34,8.39-22.49,12.83-13.24,2.77,5.78.16,17.7-1.88,23.76-1.38,4.11-6.74,17.93-12.56,15.1ZM430.58,679.05c-.13,7.17-5.02,23.42-10.07,28.62-8.49,8.75-10.61-4.08-10.27-10.68.33-6.47,5.7-24.22,10.52-28.5,7.64-6.77,9.93,4.52,9.82,10.56ZM421.37,627.39c.28.12.55.25.83.37-.28-.12-.56-.25-.83-.37ZM423.98,628.53c.43.18.87.36,1.3.54-.44-.18-.87-.36-1.3-.54ZM426.85,629.71c.59.24,1.19.47,1.8.7-.6-.23-1.21-.47-1.8-.7ZM429.91,630.89c1.06.4,2.13.79,3.23,1.18-1.1-.39-2.17-.79-3.23-1.18ZM474.81,753.54c-5.15-24.16,40.67-34.77,44.16-13.27,3.72,22.96-39.82,33.61-44.16,13.27ZM535.8,810.98c-.54-.09-1.08-.18-1.63-.27.55.09,1.09.18,1.63.27ZM532.18,810.38c-.52-.09-1.04-.18-1.56-.27.52.09,1.04.18,1.56.27ZM528.53,809.74c-.47-.08-.95-.17-1.43-.26.48.09.95.17,1.43.26ZM524.85,809.07c-.33-.06-.65-.12-.98-.19.33.06.65.12.98.19ZM491.93,801.92s-.02,0-.03,0c0,0,.02,0,.03,0ZM505.54,822.06c-4-4.77-3.36-11.2-2.03-17.41,4.77,1.08,9.57,2.1,14.34,3.06-1.7,4.8-6.8,17.03-12.31,14.35ZM530.77,821.99c-.13,7.17-5.02,23.42-10.07,28.62-8.49,8.75-10.61-4.08-10.27-10.68.33-6.47,5.7-24.22,10.52-28.5,7.64-6.77,9.93,4.52,9.82,10.56ZM552.56,813.32c.62.07,1.25.14,1.86.2-.61-.06-1.24-.13-1.86-.2ZM564.75,814.37c.94.05,1.86.09,2.75.12-.9-.03-1.82-.07-2.75-.12ZM555.78,813.67c.61.06,1.21.12,1.81.17-.6-.06-1.2-.11-1.81-.17ZM558.89,813.96c.61.05,1.21.1,1.81.15-.6-.05-1.2-.09-1.81-.15ZM561.88,814.19c.65.05,1.28.08,1.92.12-.63-.04-1.27-.08-1.92-.12ZM575,896.48c-5.15-24.16,40.67-34.77,44.16-13.27,3.72,22.96-39.82,33.61-44.16,13.27ZM639.51,954.48c-.05,0-.1-.02-.16-.02.05,0,.1.02.16.02ZM650.03,955.94c-.11-.01-.22-.03-.32-.04.11.01.22.03.32.04ZM646.61,955.5c-.1-.01-.21-.03-.31-.04.1.01.21.03.31.04ZM643.1,955.02c-.09-.01-.17-.03-.26-.04.09.01.17.03.26.04ZM662.51,957.16c1.47.1,2.89.18,4.26.23-1.79.97-3.19.73-4.26-.23ZM673.46,725.93s.01-.02.02-.03c0,.01-.01.02-.02.03ZM723.99,1000.91c-5.15-24.15,40.67-34.76,44.16-13.26,3.72,22.96-39.82,33.61-44.16,13.26ZM757.89,891.71c.25-.35.5-.71.75-1.07-.25.36-.5.71-.75,1.07ZM828.37,824.32c-3.64,2.29-5.9,1.57-9.79.69-5.17-1.17-11.67-4.02-17.14-7.3,1.9-5.14,3.41-10.23,4.42-15.19,0,0,0,0,0,0,5.56,2.58,26.75,14.96,22.52,21.79ZM863.85,943.99c-4.62-17.91,25.86-35.35,39.08-22.83,1.38,1.31,3.05,3.66,3.44,5.51,4.85,23.37-37.21,37.89-42.51,17.32ZM899.75,1006.45c.84-1.23,1.69-2.47,2.56-3.73-.86,1.25-1.71,2.49-2.56,3.73ZM1094.4,979.48c-4.62-17.91,25.86-35.35,39.08-22.83,1.38,1.31,3.05,3.66,3.44,5.51,4.85,23.37-37.21,37.89-42.51,17.32ZM1145.07,884.92c.37,1.24.32,2.52.06,3.77l-1.22,1.22c-8.67,2.87-33.85-12.03-37.05-20.44-.42-1.09-.97-2.05-.55-3.29,1.48-4.71,13.37-.21,16.48,1.18,5.34,2.38,20.65,12.02,22.29,17.56ZM1144.81,851.37c.53.63,1.06,1.26,1.6,1.91-.53-.64-1.07-1.28-1.6-1.91ZM1130.07,1042.3c.92-1.35,1.85-2.7,2.79-4.08-.95,1.37-1.87,2.73-2.79,4.08ZM1316.32,979.4c-4.62-17.91,25.86-35.35,39.08-22.83,1.38,1.31,3.05,3.65,3.44,5.51,4.85,23.37-37.21,37.89-42.51,17.32ZM1366.99,884.84c.37,1.24.32,2.52.06,3.77l-1.22,1.22c-8.67,2.87-33.85-12.03-37.05-20.44-.42-1.09-.97-2.05-.55-3.29,1.48-4.71,13.37-.21,16.48,1.18,5.34,2.38,20.65,12.02,22.29,17.56ZM1296.5,816.04c2.45-3.62,18.17,3.98,21.32,5.76,3.28,1.86,9.18,5.95,11.54,8.78,12.77,15.29-13.99,3.89-19.36.66-3.02-1.82-16.14-11.3-13.5-15.21ZM1271.8,824.25c7.85-2.37,35.54,13.28,36.7,21.59.9,6.49-11.64,1.99-14.72.83-6.21-2.34-22.25-11.94-23.84-18.51-.45-1.85-.13-3.3,1.86-3.91ZM1280.85,859.74c-3.64,2.29-5.9,1.57-9.79.69-7.54-1.71-17.9-6.97-23.8-11.96-16.27-13.78-4.19-17.23,10.69-10.69,4.9,2.15,27.23,14.97,22.9,21.97ZM1218.8,785.84c7.58.29,31.53,12.1,32.8,20.14,1.16,7.32-15.34.86-18.33-.45-5.54-2.42-15.62-8.62-18.96-13.56-3.35-4.96-.52-6.34,4.49-6.14ZM1220.62,1023.06c3.72,22.96-39.82,33.61-44.16,13.27-5.15-24.16,40.67-34.77,44.16-13.27ZM1182.45,908.46c-.07-.17-.13-.35-.2-.52.07.17.13.35.2.52ZM1186.5,924.01c-.07-.66-.16-1.32-.26-1.99.1.67.19,1.33.26,1.99ZM1186.11,921.27c-.07-.42-.14-.84-.22-1.25.08.42.15.84.22,1.25ZM1185.68,919.05c-.07-.35-.14-.69-.22-1.04.08.35.15.69.22,1.04ZM1185.18,916.9c-.08-.3-.15-.6-.23-.9.08.3.15.6.23.9ZM1184.61,914.78c-.08-.27-.15-.53-.23-.8.08.27.15.53.23.8ZM1183.96,912.67c-.08-.23-.15-.47-.23-.7.08.23.15.47.23.7ZM1183.24,910.56c-.07-.2-.14-.41-.22-.61.08.2.14.41.22.61ZM1176.53,895.93s.02.03.02.04c0-.02-.02-.03-.02-.04ZM1177.59,897.92s.04.08.06.12c-.02-.04-.04-.08-.06-.12ZM1178.62,899.91c.03.06.06.12.09.19-.03-.06-.06-.12-.09-.19ZM1179.6,901.9c.04.09.08.18.13.27-.04-.09-.08-.18-.13-.27ZM1180.53,903.91c.05.12.1.23.15.35-.05-.12-.1-.23-.15-.35ZM1181.42,905.92c.06.15.12.29.18.44-.06-.15-.12-.29-.18-.44ZM1176.51,867.98c2.01,6.81.29,16.67-2.23,24.01-3.81-6.48-8.12-12.74-12.36-18.56,0,0,.01.02.02.03,2.68-5.91,11.85-14.64,14.57-5.47ZM1162.33,837.42c6.79,1.65,1.67,22.49-.24,27.54-.41,1.08-1.3,3.09-2.49,5.32,0,0,0,0,0,0-2.03-2.73-4.02-5.35-5.91-7.82-1.91-2.51-3.81-4.91-5.69-7.22,2.35-6.64,7.99-19.35,14.32-17.82ZM1139.58,827.37l1.56.78c-2.81-5.59,10.25-22.73,13.45-12.23,2.03,6.63-1.39,20.24-4.36,26.61-.78,1.67-3.04,5.72-5.63,8.6-2.96-3.49-5.91-6.75-8.88-9.83,0,0,0,0,0,0,.74-5.24,2.52-10.7,3.85-13.93ZM1132.65,838.2c-.19-.19-.38-.37-.57-.56.19.19.38.37.57.56ZM1125.76,831.79c-.11-.1-.23-.2-.34-.29.11.1.23.2.34.29ZM1129.05,834.75l-.02-.02.02.02ZM1074.58,816.13c2.45-3.62,18.17,3.98,21.32,5.76,3.28,1.86,9.18,5.95,11.54,8.78,12.77,15.29-13.99,3.89-19.36.66-3.02-1.82-16.14-11.3-13.5-15.21ZM1049.88,824.33c7.85-2.37,35.54,13.28,36.7,21.59.9,6.49-11.64,1.99-14.72.83-6.21-2.34-22.25-11.94-23.84-18.51-.45-1.85-.13-3.3,1.86-3.91ZM1058.92,859.82c-3.64,2.29-5.9,1.57-9.79.69-7.54-1.71-17.9-6.97-23.8-11.96-16.27-13.78-4.19-17.23,10.69-10.69,4.9,2.15,27.23,14.97,22.9,21.97ZM996.88,785.92c7.58.29,31.53,12.1,32.8,20.14,1.16,7.32-15.34.86-18.33-.45-5.54-2.42-15.62-8.62-18.96-13.56-3.35-4.96-.52-6.34,4.49-6.14ZM998.7,1023.15c3.72,22.96-39.82,33.61-44.16,13.26-5.15-24.15,40.67-34.76,44.16-13.26ZM954.59,868.06c1.19,4.03,1.07,9.14.25,14.16t0,0c-1.38-5.82-3.73-11.73-6.65-17.56,0,0,0,0,0,0,2.65-1.23,5.18-.73,6.4,3.39ZM955.53,885.65c-.03-.17-.06-.34-.09-.51.03.17.06.34.09.51ZM940.41,837.5c4.32,1.05,3.82,9.87,2.39,17.44,0,0,0,0,0,.01-2.92-4.84-6.09-9.54-9.28-14.02,2.09-2.49,4.43-4.03,6.88-3.43ZM932.67,816.01c1.53,4.99-.03,13.93-2.16,20.76h0c-2.54-3.45-5.04-6.74-7.38-9.81-1.16-1.53-2.32-3-3.47-4.46h0c2.63-6.68,10.59-14.37,12.99-6.49ZM917.23,819.46s-.06-.07-.09-.11c.03.04.06.07.09.11ZM912.42,813.74c-.09-.1-.18-.21-.27-.32.09.1.18.21.27.32ZM914.84,816.57c-.07-.09-.15-.18-.22-.26.07.09.15.18.22.26ZM914.51,849.42c.37,1.24.32,2.52.06,3.77l-1.22,1.22c-8.67,2.87-33.85-12.03-37.05-20.44-.42-1.09-.97-2.05-.55-3.29,1.48-4.71,13.37-.21,16.48,1.18,5.34,2.38,20.65,12.02,22.29,17.56ZM844.03,780.63c2.45-3.62,18.17,3.98,21.32,5.76,3.28,1.86,9.18,5.95,11.54,8.78,12.77,15.29-13.99,3.89-19.36.66-3.02-1.82-16.14-11.3-13.5-15.21ZM819.32,788.84c7.85-2.37,35.54,13.28,36.7,21.59.9,6.49-11.64,1.99-14.72.83-6.21-2.34-22.25-11.94-23.84-18.51-.45-1.85-.13-3.3,1.86-3.91ZM806.93,795.56c.01-.1.02-.19.03-.29,0,.1-.02.19-.03.29ZM807.13,793.23c0-.06,0-.12.01-.18,0,.06,0,.12-.01.18ZM807.24,790.82s0-.09,0-.13c0,.04,0,.09,0,.13ZM807.24,788.77c0-.19,0-.39-.01-.58,0,.19.01.38.01.58ZM807.17,786.67c-.01-.2-.02-.39-.03-.59.01.2.02.39.03.59ZM802.06,766.42c.1.23.19.46.28.69-.09-.23-.19-.46-.28-.69ZM803.02,768.8c.09.22.17.44.26.67-.08-.22-.17-.44-.26-.67ZM803.99,771.46c.04.11.08.22.12.33-.04-.11-.08-.22-.12-.33ZM804.86,774.12c.05.18.1.36.15.53-.05-.18-.1-.36-.15-.53ZM805.5,776.4c.07.26.13.52.2.78-.06-.26-.13-.52-.2-.78ZM806.06,778.71c.06.27.12.54.17.81-.06-.27-.11-.54-.17-.81ZM806.53,781.1c.04.24.09.48.12.72-.04-.24-.08-.48-.12-.72ZM796.19,754.57c-.06-.11-.12-.21-.18-.32.06.11.12.21.18.32ZM801.28,764.63c-.08-.17-.15-.35-.23-.52.08.17.15.35.23.52ZM798.76,759.35c-.03-.06-.07-.13-.1-.19.03.06.07.12.1.19ZM797.53,757c-.07-.13-.14-.27-.22-.4.07.13.14.27.22.4ZM765.52,744.98c.37,1.24.32,2.52.06,3.77l-1.22,1.22c-8.67,2.87-33.85-12.03-37.05-20.44-.42-1.09-.97-2.05-.55-3.29,1.48-4.71,13.37-.21,16.48,1.18,5.34,2.38,20.65,12.02,22.29,17.56ZM716.36,681.95c3.28,1.86,9.18,5.95,11.54,8.78,12.77,15.29-13.99,3.89-19.36.66-1.78-1.07-7.07-4.81-10.58-8.5,0,0,0,0,0,0,1.06-2.42,2.06-4.84,2.97-7.25v.02c5.62,1.3,13.33,5.09,15.43,6.28ZM701.81,673.23c.04-.12.08-.24.13-.36-.04.12-.08.24-.13.36ZM665.33,602.04c.37,1.24.32,2.52.06,3.77l-1.22,1.22c-6.06,2.01-20.2-4.68-29.25-11.76-.4.58-.79,1.15-1.18,1.71,2.68-3.89,5.69-8.16,8.88-12.72,0,.01-.02.02-.02.03.16.07.32.14.45.2,5.34,2.38,20.65,12.02,22.29,17.56ZM644.54,581.49s-.07.09-.1.14c.03-.05.07-.09.1-.14ZM656.37,564.07s.02-.03.03-.05c-.01.02-.02.03-.03.05ZM648.39,575.95s0,0,0,0c0,0,0,0,0,0ZM650.35,573.07s.02-.04.04-.05c-.01.02-.02.04-.04.05ZM757.4,315.02c-4.62-17.91,25.86-35.35,39.08-22.83,1.38,1.31,3.05,3.65,3.44,5.51,4.85,23.37-37.21,37.89-42.51,17.32ZM780.72,395.54c-.13.18-.26.35-.39.53.13-.18.26-.35.39-.53ZM778.24,398.85c-.12.16-.25.33-.37.49.12-.16.25-.33.37-.49ZM767.38,411.58c.09-.1.19-.19.28-.29-.09.1-.19.19-.28.29ZM770.28,408.51c-.06.06-.12.13-.18.19.06-.06.12-.13.18-.19ZM795.42,402.97c-8.49,8.75-10.61-4.08-10.27-10.68.05-.98.22-2.21.47-3.62,3.31-4.76,6.68-9.75,10.24-14.92,2.22-3.23,4.67-6.71,7.26-10.41-.04.05-.08.11-.11.16,1.88,2.62,2.54,7.52,2.49,10.84-.13,7.17-5.02,23.42-10.07,28.62ZM806.37,358.69s-.04.06-.06.09c.02-.03.04-.06.06-.09ZM804.45,225.8c.28,0,.55-.01.81-.04-.26.02-.53.03-.81.04ZM805.52,225.73c.2-.02.39-.04.57-.08-.18.04-.38.06-.57.08ZM989.58,391.9c-4.62-17.91,25.86-35.35,39.08-22.83,1.38,1.31,3.05,3.65,3.44,5.51,4.85,23.37-37.21,37.89-42.51,17.32ZM1040.24,297.34c.37,1.24.32,2.52.06,3.77l-1.22,1.22c-8.67,2.87-33.85-12.03-37.05-20.44-.42-1.09-.97-2.05-.55-3.29,1.48-4.71,13.37-.21,16.48,1.18,5.34,2.38,20.65,12.02,22.29,17.56ZM969.76,228.54c2.45-3.62,18.17,3.98,21.32,5.76,3.28,1.86,9.18,5.95,11.54,8.78,12.77,15.29-13.99,3.89-19.36.66-3.02-1.82-16.14-11.3-13.5-15.21ZM945.05,236.75c7.85-2.37,35.54,13.28,36.7,21.59.9,6.49-11.64,1.99-14.72.82-6.21-2.34-22.25-11.94-23.84-18.51-.45-1.85-.13-3.3,1.86-3.9ZM954.1,272.24c-3.64,2.29-5.9,1.57-9.79.69-7.54-1.71-17.9-6.97-23.8-11.97-16.27-13.77-4.19-17.23,10.69-10.69,4.9,2.15,27.23,14.97,22.9,21.97ZM892.06,198.34c7.58.29,31.53,12.1,32.8,20.14,1.16,7.32-15.34.86-18.33-.45-5.54-2.42-15.62-8.62-18.96-13.56-3.35-4.96-.52-6.34,4.49-6.14ZM893.88,435.56c3.72,22.96-39.82,33.61-44.16,13.27-5.15-24.16,40.67-34.77,44.16-13.27ZM846.49,307.29c-1.71,4.2-9.81,19.06-15.62,13.63-.03-.03-.05-.06-.08-.09,0,0,0,0,0,.01,8.13-14.34,14.88-29.18,17.65-43.04.53.63.99,1.5,1.33,2.67,2.29,7.72-.24,19.38-3.28,26.81ZM849.21,273.15s.01-.1.02-.15c0,.05-.01.1-.02.15ZM849.47,270.96c.01-.11.02-.23.03-.34-.01.11-.02.23-.03.34ZM849.67,268.56s0-.08,0-.12c0,.04,0,.08,0,.12ZM849.77,266.26c0-.09,0-.18,0-.27,0,.09,0,.18,0,.27ZM849.78,264.21c0-.2,0-.4-.01-.59,0,.2.01.4.01.59ZM849.7,262.12c-.01-.2-.02-.39-.03-.59.01.19.02.39.03.59ZM849.24,257.59c.1.65.19,1.31.26,1.96-.07-.65-.16-1.3-.26-1.96ZM848.47,253.64c.09.4.17.79.25,1.19-.08-.4-.16-.79-.25-1.19ZM848.89,255.62c.08.44.16.87.23,1.31-.07-.44-.14-.87-.23-1.31ZM827.66,212.78c-.2-.28-.4-.56-.59-.84.2.28.4.56.59.84ZM848.27,252.79c-.09-.38-.19-.76-.29-1.13.1.38.19.76.29,1.13ZM847.73,250.78c-.11-.37-.21-.74-.32-1.12.11.37.22.75.32,1.12ZM847.13,248.78c-.12-.37-.23-.74-.36-1.11.12.37.24.74.36,1.11ZM846.47,246.78c-.13-.37-.26-.74-.39-1.11.14.37.26.74.39,1.11ZM845.74,244.77c-.14-.37-.28-.73-.42-1.1.15.37.29.73.42,1.1ZM844.95,242.77c-.15-.37-.3-.74-.46-1.1.16.37.31.74.46,1.1ZM844.11,240.76c-.16-.37-.32-.74-.49-1.1.17.37.33.74.49,1.1ZM843.21,238.77c-.17-.37-.34-.74-.52-1.1.18.37.35.74.52,1.1ZM842.27,236.77c-.18-.37-.36-.74-.55-1.11.18.37.37.74.55,1.11ZM841.27,234.78c-.19-.37-.38-.74-.58-1.12.19.37.39.74.58,1.12ZM840.24,232.81c-.2-.38-.41-.76-.61-1.13.21.38.41.76.61,1.13ZM839.17,230.83c-.21-.38-.43-.76-.64-1.14.22.38.43.76.64,1.14ZM838.06,228.87c-.22-.39-.45-.77-.68-1.16.23.39.45.77.68,1.16ZM836.92,226.92c-.24-.4-.48-.8-.73-1.2.24.4.49.8.73,1.2ZM835.74,224.98c-.26-.43-.53-.86-.8-1.29.27.43.54.86.8,1.29ZM834.55,223.05c-.34-.53-.67-1.06-1.01-1.59.34.53.68,1.06,1.01,1.59ZM833.13,220.84c-.34-.52-.68-1.05-1.03-1.57.34.52.69,1.04,1.03,1.57ZM831.59,218.49c-.24-.36-.49-.73-.73-1.09.24.36.49.73.73,1.09ZM830.24,216.5c-.22-.32-.43-.63-.65-.95.22.31.43.63.65.95ZM828.95,214.63c-.21-.3-.41-.6-.62-.89.21.3.41.6.62.89ZM819.92,202.24l-.22-.29c.07.1.15.19.22.29ZM826.36,210.96c-.19-.26-.38-.52-.56-.78.19.26.37.52.56.78ZM825.06,209.15c-.17-.24-.34-.47-.51-.71.17.23.34.47.51.71ZM823.76,207.39c-.16-.22-.32-.43-.48-.65.16.21.32.43.48.65ZM822.48,205.66c-.14-.19-.28-.38-.42-.57.14.19.28.38.42.57ZM821.19,203.93c-.11-.15-.22-.29-.33-.43.11.14.22.29.33.43ZM807.7,219.59c-.12-.24-.25-.49-.41-.74-1.29,2.27-2.57,4.57-3.84,6.91.32.02.64.03.94.03-10.23.06-31.61-13.08-34.54-20.79-.42-1.09-.97-2.05-.55-3.29,1.48-4.71,13.37-.21,16.48,1.18,5.07,2.26,19.13,11.07,21.93,16.69ZM808.06,220.46c-.07-.23-.17-.47-.28-.71.11.24.21.48.28.71ZM737.57,151.66c2.45-3.62,18.17,3.98,21.32,5.76,3.28,1.86,9.18,5.95,11.54,8.78,12.77,15.29-13.99,3.89-19.36.66-3.02-1.82-16.14-11.3-13.5-15.21ZM712.87,159.87c7.85-2.37,35.54,13.28,36.7,21.59.9,6.49-11.64,1.99-14.72.82-6.21-2.34-22.25-11.94-23.84-18.51-.45-1.85-.13-3.3,1.86-3.91ZM721.92,195.36c-3.64,2.29-5.9,1.57-9.79.69-7.54-1.71-17.9-6.97-23.8-11.97-16.27-13.77-4.19-17.23,10.69-10.69,4.9,2.15,27.23,14.97,22.9,21.97ZM659.87,121.46c7.58.29,31.53,12.1,32.8,20.14,1.16,7.32-15.34.86-18.33-.44-5.54-2.42-15.62-8.62-18.96-13.56-3.35-4.96-.52-6.34,4.49-6.14ZM661.69,358.68c3.72,22.96-39.82,33.61-44.16,13.27-5.15-24.16,40.67-34.77,44.16-13.27ZM617.58,203.6c2.28,7.72-.24,19.38-3.28,26.81-1.71,4.2-9.81,19.06-15.62,13.63-4.9-4.58-1.06-22.39,1.44-28.23l2.34-5.29c1.58-5.72,12.16-16.88,15.11-6.93ZM574.21,267.35s0-.01.01-.02c0,0,0,.01-.01.02ZM578.24,260.89c.05-.09.11-.18.16-.27-.05.09-.11.18-.16.27ZM580.27,257.52c.06-.1.12-.2.18-.3-.06.1-.12.2-.18.3ZM582.3,254.06c.03-.06.07-.11.1-.17-.03.06-.07.11-.1.17ZM586.1,247.28s.05-.1.08-.14c-.03.05-.05.1-.08.14ZM587.87,243.92l.16-.3-.16.3ZM589.65,240.43c.04-.09.09-.18.13-.27-.04.09-.09.18-.13.27ZM591.37,236.88s0-.01,0-.02c0,0,0,.01,0,.02ZM594.37,230.15c.04-.09.07-.17.11-.26-.04.09-.07.17-.11.26ZM595.76,226.72c.04-.1.08-.21.12-.31-.04.1-.08.21-.12.31ZM597.07,223.22c.02-.06.04-.13.07-.19-.02.06-.04.13-.07.19ZM599.25,216.49c.02-.05.03-.11.05-.16-.02.05-.03.11-.05.16ZM603.4,173.03c6.79,1.65,1.67,22.49-.24,27.54-.24.62-.63,1.54-1.14,2.64.5-4.28.58-8.44.13-12.43-.58-5.19-2.07-10.52-4.17-15.84,0,0,0,0,0,0,1.7-1.54,3.52-2.36,5.41-1.9ZM600.14,213.22c.03-.11.05-.21.08-.32-.03.11-.05.21-.08.32ZM600.92,209.85c.02-.1.04-.2.06-.3-.02.1-.04.2-.06.3ZM601.56,206.47s0-.04,0-.06c0,.02,0,.04,0,.06ZM596.43,171.25s.04.08.05.12c-.02-.04-.04-.08-.05-.12ZM595.67,151.54c1.2,3.92.49,10.28-.9,16.14-2.55-5.19-5.55-10.32-8.75-15.27,0,0,0,0,0,0,3.42-4.19,7.94-6.48,9.65-.87ZM579.18,142.42c-.08-.11-.15-.21-.23-.32.08.11.15.21.23.32ZM583.89,149.2c-.08-.12-.16-.25-.25-.37.08.12.16.25.25.37ZM581.57,145.8c-.1-.14-.19-.28-.29-.41.1.14.19.28.29.41ZM560.71,151.69c.37,1.24.32,2.52.06,3.77l-1.22,1.22c-8.67,2.87-33.85-12.03-37.05-20.44-.42-1.09-.97-2.05-.55-3.29,1.48-4.71,13.37-.21,16.48,1.18,5.34,2.38,20.65,12.02,22.29,17.56ZM490.23,82.89c2.45-3.62,18.17,3.98,21.32,5.76,3.28,1.86,9.18,5.95,11.54,8.78,12.77,15.29-13.99,3.89-19.36.66-3.02-1.82-16.14-11.3-13.5-15.21ZM465.53,91.1c7.85-2.37,35.54,13.28,36.7,21.59.9,6.49-11.64,1.99-14.72.83-6.21-2.34-22.25-11.94-23.84-18.51-.45-1.85-.13-3.3,1.86-3.9ZM474.57,126.59c-3.64,2.29-5.9,1.57-9.79.69-7.54-1.71-17.9-6.97-23.8-11.96-16.27-13.78-4.19-17.23,10.69-10.69,4.9,2.15,27.23,14.97,22.9,21.97ZM412.53,52.69c7.58.29,31.53,12.1,32.8,20.14,1.16,7.32-15.34.86-18.33-.45-5.54-2.42-15.62-8.62-18.96-13.56-3.35-4.96-.52-6.34,4.49-6.14ZM414.35,289.91c3.72,22.96-39.82,33.61-44.16,13.27-5.15-24.16,40.67-34.77,44.16-13.27ZM370.24,134.83c2.28,7.72-.24,19.38-3.28,26.81-1.71,4.2-9.81,19.06-15.62,13.63-4.9-4.58-1.06-22.39,1.44-28.23l1.59.81c.92-2.04.21-4.13.75-6.1,1.58-5.72,12.16-16.89,15.11-6.93ZM356.06,104.27c6.79,1.65,1.67,22.49-.24,27.54-1.51,3.98-9.39,20.2-15.05,15.01-3.89-3.57-1.28-17.63.23-22.51,1.66-5.36,7.92-21.76,15.06-20.04ZM333.31,94.22l1.56.78c-2.81-5.59,10.25-22.73,13.46-12.23,2.03,6.63-1.39,20.24-4.36,26.61-1.54,3.31-8.93,15.98-13.09,10.34-4.15-5.63-.06-19.47,2.43-25.5ZM325.96,228.7c-.13,7.17-5.02,23.42-10.07,28.62-8.49,8.75-10.61-4.08-10.27-10.68.33-6.47,5.7-24.22,10.52-28.5,7.64-6.77,9.93,4.52,9.82,10.56ZM315.17,189.91c2.77,5.78.16,17.7-1.88,23.76-1.38,4.11-6.74,17.93-12.56,15.1-6.02-7.19-1.53-18.15,0-26.45l1.61.83c-1.95-5.34,8.39-22.49,12.83-13.24ZM290.26,186.57c.62-5.91,2.93-7.69,4.24-11.29.52-1.41-.25-2.75.11-3.86,1.17-3.55,8.7-15.89,12.01-8.73,3.63,7.85-2.58,31.44-9.38,36.94-7.59,6.14-7.42-8.96-6.99-13.06ZM283.53,262.14c-.07-.27-.13-.53-.2-.8.07.27.13.53.2.8ZM284.71,266.72c.29,1.09.57,2.16.86,3.22-.29-1.06-.58-2.13-.86-3.22-.18-.7-.35-1.37-.53-2.05.18.68.35,1.35.53,2.05ZM271.52,267.87c3.11.12,8.98,2.18,14.9,5.12,0-.02-.01-.05-.02-.07,1.74,6.13,3.56,11.73,5.58,16.86-2.7-.85-5.04-1.8-6-2.21-5.54-2.42-15.62-8.62-18.96-13.56-3.35-4.96-.52-6.34,4.49-6.14ZM273.34,505.09c3.72,22.96-39.82,33.61-44.16,13.27-5.15-24.16,40.67-34.77,44.16-13.27ZM229.22,350.01c2.28,7.72-.24,19.38-3.28,26.81-1.71,4.2-9.81,19.06-15.62,13.63-4.9-4.58-1.06-22.39,1.44-28.23l1.59.81c.92-2.04.21-4.13.75-6.1,1.58-5.72,12.16-16.89,15.11-6.93ZM215.05,319.44c6.79,1.65,1.67,22.49-.24,27.54-1.51,3.97-9.39,20.2-15.04,15.01-3.89-3.57-1.28-17.63.23-22.51,1.66-5.36,7.92-21.76,15.06-20.04ZM192.3,309.4l1.56.78c-2.81-5.59,10.25-22.73,13.45-12.23,2.03,6.63-1.39,20.24-4.36,26.61-1.54,3.31-8.93,15.98-13.09,10.34-4.15-5.63-.06-19.47,2.43-25.5ZM184.95,443.88c-.13,7.17-5.02,23.42-10.07,28.62-3.75,3.87-6.25,3.52-7.85,1.36.98,1.32,2.29,1.95,4.02,1.37-1.35-.47-2.68-.92-4.02-1.37-2.02-2.73-2.6-8.35-2.42-12.04.33-6.47,5.7-24.22,10.52-28.5,7.64-6.77,9.93,4.52,9.82,10.56ZM167.45,532.04s-.04-.05-.07-.07c.02.02.04.05.07.07ZM165.12,529.45c-.16-.19-.32-.37-.48-.56.16.19.32.37.48.56ZM174.16,405.08c2.77,5.78.16,17.7-1.88,23.76-1.38,4.11-6.74,17.93-12.56,15.1-6.02-7.19-1.53-18.15,0-26.45l1.61.82c-1.95-5.34,8.39-22.49,12.83-13.23ZM163.66,527.7c-.16-.2-.32-.41-.48-.61.16.2.32.41.48.61ZM161.51,524.87c-.14-.2-.29-.4-.43-.6.14.2.29.4.43.6ZM160.24,523.05c-.18-.26-.35-.52-.52-.79.17.26.35.53.52.79ZM158.93,521.04c-.19-.3-.37-.6-.55-.9.18.3.36.6.55.9ZM157.17,518.1c-.19-.33-.37-.65-.55-.98.18.33.37.66.55.98ZM149.24,401.74c.62-5.91,2.93-7.69,4.24-11.29.52-1.41-.25-2.75.11-3.86,1.17-3.55,8.7-15.89,12.01-8.73,3.63,7.85-2.58,31.44-9.38,36.94-7.59,6.14-7.42-8.96-6.99-13.06ZM155.96,515.91c-.2-.38-.4-.76-.59-1.14.2.38.39.76.59,1.14ZM154.49,513c-.23-.46-.45-.93-.67-1.4.22.47.45.94.67,1.4ZM153.28,510.42c-.2-.44-.4-.89-.6-1.34.2.45.4.9.6,1.34ZM152.2,507.97c-.32-.75-.64-1.52-.95-2.29.31.78.63,1.54.95,2.29ZM150.85,504.64c-.21-.55-.43-1.1-.64-1.66.21.56.42,1.11.64,1.66ZM149.81,501.88c-.25-.7-.51-1.4-.76-2.11.25.71.5,1.42.76,2.11ZM143.69,481.89c.29,1.12.59,2.22.88,3.3-.3-1.09-.59-2.18-.88-3.3-.38-1.47-.76-2.91-1.12-4.33.36,1.42.73,2.86,1.12,4.33ZM148.75,498.92c-.28-.82-.56-1.65-.84-2.5.28.84.55,1.68.84,2.5ZM147.6,495.42c-.23-.72-.46-1.45-.69-2.18.23.73.46,1.46.69,2.18ZM146.65,492.41c-.3-.99-.6-1.99-.89-3.01.3,1.02.59,2.02.89,3.01ZM145.54,488.64c-.24-.83-.48-1.68-.71-2.53.24.85.47,1.7.71,2.53ZM156.76,720.86c3.72,22.96-39.82,33.61-44.16,13.27-5.15-24.16,40.67-34.77,44.16-13.27ZM112.65,565.78c2.28,7.72-.24,19.38-3.28,26.81-1.71,4.2-9.81,19.06-15.62,13.63-4.9-4.58-1.06-22.39,1.44-28.23l1.59.81c.92-2.04.21-4.13.75-6.1,1.58-5.72,12.16-16.88,15.11-6.93ZM98.47,535.21c6.79,1.65,1.67,22.49-.24,27.54-1.51,3.97-9.39,20.2-15.04,15.01-3.89-3.57-1.28-17.63.23-22.51,1.66-5.36,7.92-21.76,15.06-20.04ZM75.72,525.17l1.56.78c-2.81-5.59,10.25-22.73,13.45-12.23,2.03,6.63-1.39,20.24-4.36,26.61-1.54,3.31-8.93,15.98-13.09,10.34-4.15-5.63-.06-19.47,2.43-25.5ZM68.37,659.64c-.13,7.17-5.02,23.42-10.07,28.62-8.49,8.75-10.61-4.08-10.27-10.68.33-6.47,5.7-24.22,10.52-28.5,7.64-6.77,9.93,4.52,9.82,10.56ZM57.58,620.85c2.77,5.78.16,17.7-1.88,23.76-1.38,4.11-6.74,17.93-12.56,15.1-6.02-7.19-1.53-18.15,0-26.45l1.61.82c-1.95-5.34,8.39-22.49,12.83-13.23ZM32.67,617.51c.62-5.91,2.93-7.69,4.24-11.29.52-1.41-.25-2.75.11-3.86,1.17-3.55,8.7-15.89,12.01-8.73,3.63,7.85-2.58,31.44-9.38,36.94-7.59,6.14-7.42-8.96-6.99-13.06Z"/>
</svg>