<?xml version="1.0" encoding="UTF-8"?>
<svg id="Ebene_1" xmlns="http://www.w3.org/2000/svg" version="1.1" viewBox="0 0 1447.89 1137.84">
  <!-- Generator: Adobe Illustrator 29.5.0, SVG Export Plug-In . SVG Version: 2.1.0 Build 137)  -->
  <defs>
    <style>
      .st0 {
        fill: #fff;
      }
    </style>
  </defs>
  <path class="st0" d="M1399.7,431.33c-10.54-40.26-22.86-58.99-63.2-73.37-29.09-10.37-84.48-23.03-114.98-24.05-47.14-1.58-62.19,25.13-85.62,59.15-19.81,28.77-57.64,78.15-53.64,114.21,1.56,14.02,9.73,28.98,18.78,42.34,1.28,0,2.58.02,3.91.06.9.03,1.82.07,2.76.12-.94-.05-1.86-.09-2.76-.12-22.34-.75-37.47,4.86-49.7,14.59-5.31-18.75-11.39-32.5-21.35-43.3.06.06.12.12.18.19,16.38-41.32,15.55-62.89,3.42-109.24-10.54-40.26-22.86-58.99-63.2-73.37-7.82-2.79-17.56-5.74-28.2-8.59,1.07-17.77-2.17-35.69-8.79-60.97-10.54-40.26-22.86-58.99-63.2-73.37-20.58-7.34-54.34-15.82-83.13-20.51-.82-3.38-1.7-6.88-2.66-10.56-10.54-40.26-22.86-58.99-63.2-73.37-29.09-10.37-84.48-23.03-114.98-24.05-31.83-1.07-49.02,10.78-64.05,29.05h0c-9.77-19.03-24.23-30.77-51.52-40.5-29.09-10.37-84.48-23.03-114.98-24.05-38.69-1.3-55.77,16.48-73.61,41.7-8.4-6.9-19.13-12.51-33.34-17.57-29.09-10.37-84.48-23.03-114.98-24.05-47.14-1.58-62.19,25.13-85.62,59.15-19.81,28.77-57.64,78.15-53.64,114.21,2.37,21.32,20.01,44.79,32.8,61.55,24.52,32.16,45.76,47.78,83.27,63.07,25.32,10.31,56.88,22.48,82.94,30.06,38.23,11.13,51.96,2.07,71.36-30.21,5.41-9.01,10.74-18.97,15.88-29.27h0c14.39,11.87,30.44,20.66,51.74,29.34,25.32,10.31,56.88,22.48,82.94,30.06,38.23,11.13,51.96,2.07,71.36-30.21,2.15-3.58,4.28-7.31,6.4-11.15,19.54,21.66,39.3,34.34,69.86,46.79,15.16,6.18,32.55,13.01,49.67,19.13h0c5.29,8.09,11.04,15.69,16.05,22.25,21.44,28.11,40.37,43.59,69.85,57.25h0c-2.29,8.43-3.3,16.58-2.46,24.14,2.37,21.32,20.01,44.79,32.8,61.55,5.28,6.92,10.4,13.07,15.57,18.62-16.39,25.45-31.59,54.66-28.98,78.19,2.17,19.52,17.15,40.85,29.48,57.18-19.38-3.98-38.44-6.86-52.33-7.33-25.35-.85-41.41,6.49-54.49,18.74h0c-10.44-39.01-22.99-57.4-62.72-71.56-29.09-10.37-84.48-23.03-114.98-24.05-47.14-1.58-62.19,25.13-85.62,59.15-19.81,28.77-57.64,78.15-53.64,114.21,2.37,21.32,20.01,44.79,32.8,61.55,24.52,32.16,45.77,47.78,83.27,63.07,25.32,10.31,56.88,22.48,82.94,30.06,33.27,9.68,47.98,4.08,64.02-18.81.66.87,1.31,1.72,1.95,2.56,24.52,32.16,45.76,47.78,83.27,63.07,25.32,10.31,56.88,22.48,82.94,30.06,38.23,11.13,51.96,2.07,71.36-30.21.79-1.31,1.57-2.65,2.36-4.01h0c2.55,3.48,5.07,6.79,7.42,9.87,24.52,32.16,45.77,47.78,83.27,63.07,25.32,10.32,56.88,22.48,82.94,30.06,38.23,11.13,51.96,2.07,71.36-30.21,14.75-24.54,28.9-56.12,40.14-82.62,18.7-44.13,19.81-65.57,9.22-108.76h0c6.98,2.35,13.81,4.53,20.29,6.41,38.23,11.13,51.96,2.07,71.36-30.21,14.75-24.54,28.9-56.12,40.14-82.62,17.59-41.53,19.61-62.97,10.97-101.35,33.81,8.49,47.11-1.24,65.47-31.8,14.75-24.54,28.9-56.12,40.14-82.62,19.95-47.1,19.88-68.35,6.93-117.79h-.01ZM1258.22,595.78c-.16-.16-.33-.33-.49-.49.17.16.33.32.49.49ZM1219.62,570.76c7.54,1.71,17.9,6.97,23.8,11.97,2.16,1.83,3.8,3.47,5.02,4.93.02.01.04.03.06.04-7.61-5.3-16.92-9.82-28.58-13.98-3.59-1.28-7.58-2.59-11.87-3.92,1.03.32,2.05.64,3.05.95,2.95-1.41,5.11-.77,8.53,0h-.01ZM1256.53,594.15s-.04-.04-.06-.06c.02.02.04.04.06.06ZM1253.77,591.72c-.15-.13-.3-.25-.45-.38.15.13.3.25.45.38ZM1251.97,590.26c-.15-.12-.3-.23-.45-.35.15.12.3.23.45.35ZM1174.36,451.8c4.62,17.91-25.86,35.35-39.08,22.83-1.38-1.31-3.05-3.65-3.44-5.51-4.85-23.37,37.21-37.89,42.51-17.32h.01,0ZM1207.1,569.52c-.72-.22-1.44-.44-2.18-.66.74.22,1.46.44,2.18.66ZM1203.7,568.5c-.67-.2-1.34-.4-2.02-.59.68.2,1.35.4,2.02.59ZM1200.35,567.52c-.66-.19-1.33-.38-2-.57.67.19,1.34.38,2,.57ZM1196.95,566.56c-.67-.19-1.34-.37-2.02-.56.68.19,1.35.37,2.02.56ZM1193.49,565.6c-.7-.19-1.41-.38-2.11-.57.71.19,1.41.38,2.11.57ZM1189.98,564.66c-.83-.22-1.67-.44-2.51-.66.84.22,1.68.44,2.51.66ZM1186.23,563.68c-1.09-.28-2.19-.56-3.3-.84,1.11.28,2.21.56,3.3.84ZM1181.3,562.44c-.67-.17-1.33-.33-2-.49.67.16,1.33.33,2,.49ZM1177.49,561.51c-.62-.15-1.24-.3-1.86-.45.62.15,1.24.3,1.86.45ZM1173.76,560.62c-.61-.14-1.22-.28-1.82-.42.61.14,1.22.28,1.82.42ZM1170.01,559.76c-.59-.14-1.19-.27-1.78-.4.59.13,1.19.27,1.78.4ZM1123.64,542.58l1.22-1.22c7.26-2.4,26.11,7.66,33.92,15.94-11.84-2.46-23.6-4.53-34.18-5.9,1.09.14,2.2.29,3.32.45-2.16-1.99-3.75-3.91-4.22-5.5-.37-1.24-.32-2.52-.06-3.77h0ZM1166.25,558.91l-1.77-.39,1.77.39ZM1162.51,558.1c-.59-.13-1.19-.25-1.78-.38.59.13,1.19.25,1.78.38ZM1110.58,549.97c-.65-.05-1.28-.08-1.91-.12.63.04,1.26.08,1.91.12ZM1123.41,551.26c-.72-.09-1.43-.18-2.14-.26.7.08,1.42.17,2.14.26ZM1119.95,550.85c-.64-.07-1.28-.14-1.91-.21.63.07,1.27.14,1.91.21ZM1116.69,550.5c-.61-.06-1.22-.12-1.82-.17.6.06,1.21.11,1.82.17ZM1113.57,550.21c-.61-.05-1.21-.1-1.8-.15.6.05,1.19.09,1.8.15ZM1093.26,787.23c3.64-2.29,5.9-1.57,9.79-.69,7.54,1.71,17.9,6.97,23.8,11.96,16.27,13.77,4.19,17.23-10.69,10.69-.43-.19-1-.47-1.68-.81h.01c-4.78-4.26-10.35-8.04-16.97-11.5h0c-3.68-3.46-5.93-6.99-4.27-9.66h0ZM1134.12,837.43c-.11-.28-.23-.56-.34-.83.11.27.23.55.34.83ZM1133.06,834.93c-.12-.28-.24-.55-.37-.83.12.27.25.55.37.83ZM1131.93,832.44c-.09-.2-.19-.39-.28-.59.09.2.19.39.28.59ZM1128.79,826.34c-.09-.16-.19-.33-.28-.49.09.16.19.33.28.49ZM1127.56,824.24c-.1-.17-.21-.34-.31-.51.11.17.21.34.31.51ZM1126.23,822.11c-.05-.08-.1-.15-.15-.23.05.08.1.15.15.23ZM1122.31,816.68s-.08-.1-.12-.15c.04.05.08.1.12.15ZM1120.91,814.97c-.08-.09-.16-.18-.24-.28.08.09.16.18.24.28ZM1119.32,813.16l-.04-.04s.03.03.04.04ZM1082.15,790.09c-1.06-.4-2.13-.8-3.24-1.19-.82-.29-1.66-.59-2.52-.88.86.3,1.71.59,2.52.88,1.1.39,2.18.79,3.24,1.19ZM1091.44,793.92c-.24-.11-.48-.22-.72-.32.24.11.48.22.72.32ZM1088.91,792.81c-.79-.34-1.6-.68-2.42-1.01.82.34,1.62.67,2.42,1.01ZM1085.31,791.32c-.7-.28-1.41-.56-2.12-.83.72.28,1.43.55,2.12.83ZM780.82,681.54l1.22-1.22c8.67-2.87,33.85,12.03,37.05,20.44.42,1.09.97,2.05.55,3.29-1.48,4.71-13.37.21-16.48-1.18-5.34-2.38-20.65-12.02-22.29-17.56-.37-1.24-.32-2.52-.06-3.77h.01ZM792.47,613.58c-1.38-1.31-3.05-3.65-3.44-5.51-3.41-16.42,16.32-28.46,30.21-27.05,3.16,2.07,10.83,7.81,12.68,11.92,1.77,17.1-26.78,32.66-39.45,20.64ZM711.96,289.45c4.62,17.91-25.86,35.35-39.08,22.83-1.38-1.31-3.05-3.65-3.44-5.51-4.85-23.37,37.21-37.89,42.51-17.32h.01ZM669.43,236.56c.42-.59.83-1.18,1.23-1.76-.41.58-.82,1.17-1.23,1.76ZM670.94,234.4c.34-.49.68-.98,1.01-1.46-.33.48-.67.97-1.01,1.46ZM672.28,232.48c.41-.6.82-1.19,1.22-1.77-.4.58-.81,1.17-1.22,1.77ZM734.51,422.18c1.38.52,3.24,1.4,5.32,2.52h0c-2.25,3.9-4.4,7.84-6.41,11.79h0c-7.12-4.42-13.12-9.7-13.64-13.48-.9-6.49,11.64-1.99,14.72-.83h.01ZM747.44,409.11c1.01-.64,1.91-1.03,2.78-1.27-1.02,1.58-2.05,3.17-3.06,4.77-.41-1.26-.37-2.45.28-3.5h0ZM771.02,377.49c-.81,1.16-1.64,2.35-2.49,3.56.85-1.21,1.68-2.4,2.49-3.56ZM767.23,172.05s.09,0,.13,0c-.04,0-.09,0-.13,0ZM770.29,172.33c.08,0,.15,0,.23.02-.08,0-.15,0-.23-.02ZM773.49,172.66c.09,0,.19.02.28.03-.09,0-.19-.02-.28-.03ZM773.69,373.65c-.79,1.15-1.62,2.34-2.47,3.56.85-1.22,1.67-2.41,2.47-3.56ZM812.15,432.39c4.62,17.91-25.86,35.35-39.08,22.83-1.38-1.31-3.05-3.65-3.44-5.51-4.85-23.37,37.21-37.89,42.51-17.32h.01ZM1015.63,608.3c.13-7.17,5.02-23.42,10.07-28.62,6.57-6.77,9.32-.62,10.08,5.57-5.38,7.2-10.67,15.17-16.46,23.58-2.38,3.46-5.02,7.21-7.82,11.2,1.57-2.25,3.1-4.42,4.56-6.51-.33-1.82-.45-3.69-.43-5.22h0ZM1004.91,769.97l.15.03-.15-.03ZM1008.94,770.72l.18.03-.18-.03ZM1000.93,769.25s.04,0,.07.01c-.02,0-.04,0-.07-.01ZM914.39,779.31c-8.59-4.23-17.38-10.35-18.13-15.14-1.16-7.32,15.34-.86,18.33.45,3.21,1.4,7.94,4.07,12,7.03-4.42,2.13-8.46,4.69-12.21,7.66h.01ZM831.91,592.94c-.03-.3-.07-.6-.12-.9.05.3.09.6.12.9ZM831.54,590.76c-.09-.36-.2-.7-.31-1.03.11.33.22.68.31,1.03ZM831.11,589.4c-.08-.22-.17-.44-.26-.66.09.21.18.43.26.66ZM830.7,588.4c-.09-.2-.19-.39-.28-.58.1.19.19.38.28.58ZM830.24,587.49c-.11-.19-.22-.38-.34-.56.12.18.23.37.34.56ZM829.73,586.66c-.15-.23-.31-.44-.48-.66.17.21.33.43.48.66ZM829.16,585.89c-.2-.25-.41-.48-.62-.71.22.23.42.46.62.71ZM828.36,585c-.16-.16-.32-.32-.49-.47.17.15.33.31.49.47ZM827.62,584.31c-.16-.13-.31-.26-.48-.39.16.12.32.25.48.39ZM826.87,583.72c-.17-.12-.34-.24-.52-.35.18.11.35.23.52.35ZM826.09,583.2c-.22-.13-.44-.26-.66-.38.22.12.44.25.66.38ZM825.28,582.74c-.28-.15-.57-.29-.87-.42.3.13.59.27.87.42ZM824.25,582.26c-.24-.1-.49-.2-.74-.29.25.09.5.19.74.29ZM823.23,581.87c-.22-.07-.44-.14-.66-.21.22.06.44.13.66.21ZM822.26,581.58c-.22-.06-.45-.12-.68-.17.23.05.46.11.68.17ZM821.29,581.34c-.26-.06-.53-.1-.8-.15.27.04.54.09.8.15ZM820.29,581.16c-.35-.05-.7-.1-1.05-.14.35.04.7.08,1.05.14ZM867.02,710.42c3.64-2.29,5.9-1.57,9.79-.69,7.54,1.71,17.9,6.97,23.8,11.97,16.27,13.77,4.19,17.23-10.69,10.69-4.9-2.15-27.23-14.97-22.9-21.97h0ZM965.4,716.82v.74-.74ZM927.24,547.09c-3.72-22.96,39.82-33.61,44.16-13.27,5.15,24.16-40.67,34.77-44.16,13.27ZM966.28,707.31c-.01.08-.02.15-.04.23.01-.08.02-.15.04-.23ZM965.99,709.23c-.02.18-.05.36-.07.54.02-.18.04-.36.07-.54ZM965.75,711.15c-.02.22-.04.44-.07.66.02-.22.04-.44.07-.66ZM965.57,713.05c-.02.24-.04.48-.05.71.02-.24.03-.47.05-.71ZM965.45,714.94c-.01.25-.02.49-.03.74,0-.25.02-.49.03-.74ZM965.41,718.71c0,.23,0,.47.02.7,0-.23-.01-.47-.02-.7ZM965.48,720.65c.01.2.02.4.03.59-.01-.2-.02-.4-.03-.59ZM967.53,701.23c.02-.08.04-.17.06-.25-.02.08-.04.17-.06.25ZM968.06,699.2c.03-.11.06-.22.09-.33-.03.11-.06.22-.09.33ZM968.63,697.14c.03-.11.07-.23.1-.34-.03.11-.07.23-.1.34ZM969.27,695.04c.03-.1.06-.2.09-.3-.03.1-.06.2-.09.3ZM969.97,692.89c.02-.06.04-.12.06-.19-.02.06-.04.12-.06.19ZM974.63,675.36c1.18-2.9,5.42-10.9,9.84-13.77,0,0,0-.01.01-.02-5.46,9.61-10.3,19.45-13.74,29.07.61-5.46,2.16-11.05,3.89-15.28h0ZM878.96,316.23c1.07.14,2.15.28,3.25.44-1.09-.15-2.18-.3-3.25-.44ZM883.69,316.88c.65.09,1.3.19,1.95.28-.66-.1-1.3-.19-1.95-.28ZM887.42,317.44c.57.09,1.13.17,1.7.26-.57-.09-1.14-.18-1.7-.26ZM875.64,315.82c.67.08,1.35.16,2.03.25-.68-.08-1.36-.17-2.03-.25ZM854.09,723.49c6.21,2.34,22.25,11.94,23.84,18.51.45,1.85.13,3.3-1.86,3.91-.71.21-1.58.28-2.57.22-8.07-9.46-18.81-16.72-34.13-23,.81-4.67,11.85-.71,14.72.38v-.02h0ZM853.52,831.52c.13-7.17,5.02-23.42,10.07-28.62,8.49-8.75,10.61,4.08,10.27,10.68-.33,6.47-5.7,24.22-10.52,28.5-7.64,6.77-9.93-4.52-9.82-10.56ZM854.77,858.28c-.06.09-.11.18-.17.27.06-.09.11-.18.17-.27ZM858.97,851.93s-.07.1-.1.15c.03-.05.07-.1.1-.15ZM856.91,855.03c-.06.1-.13.2-.19.29.06-.1.13-.2.19-.29ZM863.12,845.82s-.07.1-.1.14c.03-.05.07-.1.1-.14ZM874.57,829.38c-.46.65-.92,1.31-1.39,1.98.47-.67.93-1.33,1.39-1.98ZM867.26,839.82c-.05.07-.09.13-.14.2.05-.07.09-.13.14-.2ZM865.23,842.75c-.06.08-.11.17-.17.25.06-.08.11-.17.17-.25ZM878.22,824.13c-.47.68-.95,1.37-1.43,2.07.49-.7.97-1.39,1.43-2.07ZM876.5,826.62c-.47.68-.96,1.37-1.44,2.07.49-.7.97-1.39,1.44-2.07ZM916.77,882.74c4.62,17.91-25.86,35.35-39.08,22.83-1.38-1.31-3.05-3.66-3.44-5.51-4.85-23.37,37.21-37.89,42.51-17.32h.01ZM896.1,798.67c-.43-1.69-.87-3.41-1.33-5.17-.74-2.83-1.49-5.54-2.26-8.16,3.73,1.39,7.46,2.76,11.19,4.11-2.61,2.89-5.12,5.97-7.61,9.23h.01ZM1017.29,772.38c-4.86-3.47-9.33-7.41-10.17-10.26-.37-1.24-.32-2.52-.06-3.77l1.22-1.22c8.67-2.87,33.85,12.03,37.05,20.44.19.5.41.97.55,1.46-9.19-2.37-18.92-4.64-28.6-6.65h.01,0ZM1013.2,771.55s-.09-.02-.14-.03c.05,0,.09.02.14.03ZM986.3,658.42c.05-.09.11-.18.16-.27-.05.09-.11.18-.16.27ZM988.29,655.06l.12-.21-.12.21ZM992.32,648.53s.03-.04.04-.07c-.01.02-.03.04-.04.07ZM994.3,645.41c.06-.09.11-.17.17-.26-.06.09-.11.17-.17.26ZM996.39,642.18c.04-.06.07-.11.11-.17-.04.06-.07.11-.11.17ZM1000.46,636.05c.04-.07.09-.13.13-.2-.04.07-.09.13-.13.2ZM1002.48,633.06c.07-.11.15-.21.22-.32-.07.11-.15.21-.22.32ZM1004.56,630.01c.05-.08.11-.16.16-.24-.05.08-.11.16-.16.24ZM1006.59,627.07s.02-.03.04-.05c-.01.02-.02.04-.04.05ZM1008.41,624.45c.11-.17.23-.33.34-.49-.11.16-.23.33-.34.49ZM1010.28,621.77c.26-.37.52-.74.77-1.1-.26.37-.51.74-.77,1.1ZM1018.7,690.39c-1.38-1.31-3.05-3.65-3.44-5.51-4.85-23.37,37.21-37.89,42.51-17.32,4.62,17.91-25.86,35.35-39.08,22.83h.01ZM1075.88,787.84c-.84-.29-1.69-.57-2.56-.86.87.29,1.72.57,2.56.86ZM1072.82,786.82c-.79-.26-1.59-.52-2.4-.78.81.26,1.61.52,2.4.78ZM1069.94,785.89c-.88-.28-1.78-.56-2.69-.84.91.28,1.81.56,2.69.84ZM1066.44,784.8c-.9-.28-1.81-.55-2.74-.83.93.28,1.84.55,2.74.83ZM1063.02,783.77c-.75-.22-1.52-.45-2.29-.67.77.22,1.53.45,2.29.67ZM1059.72,782.8c-.89-.26-1.79-.51-2.7-.77.91.26,1.81.51,2.7.77ZM1055.85,781.71c-.69-.19-1.39-.39-2.1-.58.7.19,1.4.39,2.1.58ZM1052.29,780.73c-.77-.21-1.54-.41-2.31-.62.77.21,1.54.41,2.31.62ZM1048.61,779.74c-.89-.23-1.79-.47-2.69-.7.9.23,1.8.47,2.69.7ZM1040.33,579.4c.07-.09.14-.17.22-.26-.07.09-.14.17-.22.26ZM1042.58,576.7c.13-.16.27-.31.41-.47-.14.16-.27.31-.41.47ZM1052.68,566.4c-.1.08-.19.17-.29.26.1-.09.19-.17.29-.26ZM1050.18,568.67c-.14.13-.27.26-.41.39.14-.13.27-.26.41-.39ZM1047.75,571.05c-.15.16-.31.31-.46.47.15-.16.31-.32.46-.47ZM1044.9,574.07c.15-.17.31-.33.46-.5-.15.17-.31.33-.46.5ZM1031.82,518.81c.09.09.19.19.28.28-.09-.09-.19-.19-.28-.28ZM1031.95,492.07c-.62,5.91-2.93,7.69-4.24,11.29-.52,1.41.25,2.75-.11,3.86-.39,1.18-1.49,3.34-2.9,5.43h0c-3.04-2.3-6.37-4.45-10.03-6.48.88-10.06,5.44-23.23,10.3-27.16,7.59-6.14,7.42,8.96,6.99,13.06h-.01ZM1021.47,449.87c6.02,7.19,1.52,18.15,0,26.45l-1.61-.83c1.95,5.34-8.39,22.49-12.83,13.24-2.77-5.78-.16-17.7,1.88-23.76,1.38-4.11,6.74-17.93,12.56-15.1h0ZM996.24,449.94c.13-7.17,5.02-23.42,10.07-28.62,8.49-8.75,10.61,4.08,10.27,10.68-.33,6.47-5.7,24.22-10.52,28.5-7.64,6.77-9.93-4.52-9.82-10.56ZM1005.45,501.6c-.28-.12-.55-.25-.83-.37.28.12.56.25.83.37ZM1002.84,500.46c-.43-.18-.87-.36-1.3-.54.44.18.87.36,1.3.54ZM999.97,499.28c-.59-.24-1.19-.47-1.8-.7.6.23,1.21.47,1.8.7ZM996.91,498.1c-1.06-.4-2.13-.79-3.23-1.18,1.1.39,2.17.79,3.23,1.18ZM952.01,375.45c5.15,24.16-40.67,34.77-44.16,13.27-3.72-22.96,39.82-33.61,44.16-13.27h0ZM891.02,318.01c.54.09,1.08.18,1.63.27-.55-.09-1.09-.18-1.63-.27ZM894.64,318.61c.52.09,1.04.18,1.56.27-.52-.09-1.04-.18-1.56-.27ZM898.29,319.25c.47.08.95.17,1.43.26-.48-.09-.95-.17-1.43-.26ZM901.97,319.92c.33.06.65.12.98.19-.33-.06-.65-.12-.98-.19ZM934.89,327.07h.03-.03ZM921.28,306.93c4,4.77,3.36,11.2,2.03,17.41-4.77-1.08-9.57-2.1-14.34-3.06,1.7-4.8,6.8-17.03,12.31-14.35h0ZM896.05,307c.13-7.17,5.02-23.42,10.07-28.62,8.49-8.75,10.61,4.08,10.27,10.68-.33,6.47-5.7,24.22-10.52,28.5-7.64,6.77-9.93-4.52-9.82-10.56ZM874.26,315.67c-.62-.07-1.25-.14-1.86-.2.61.06,1.24.13,1.86.2ZM862.07,314.62c-.94-.05-1.86-.09-2.75-.12.9.03,1.82.07,2.75.12ZM871.04,315.32c-.61-.06-1.21-.12-1.81-.17.6.06,1.2.11,1.81.17ZM867.93,315.03c-.61-.05-1.21-.1-1.81-.15.6.05,1.2.09,1.81.15ZM864.94,314.8c-.65-.05-1.28-.08-1.92-.12.63.04,1.27.08,1.92.12ZM851.82,232.51c5.15,24.16-40.67,34.77-44.16,13.27-3.72-22.96,39.82-33.61,44.16-13.27ZM787.31,174.51s.1.02.16.02c-.05,0-.1-.02-.16-.02ZM776.79,173.05c.11,0,.22.03.32.04-.11,0-.22-.03-.32-.04ZM780.21,173.49c.1,0,.21.03.31.04-.1,0-.21-.03-.31-.04ZM783.72,173.97c.09,0,.17.03.26.04-.09,0-.17-.03-.26-.04ZM764.31,171.83c-1.47-.1-2.89-.18-4.26-.23,1.79-.97,3.19-.73,4.26.23ZM753.36,403.06s-.01.02-.02.03c0-.01.01-.02.02-.03ZM702.83,128.08c5.15,24.15-40.67,34.76-44.16,13.26-3.72-22.96,39.82-33.61,44.16-13.26ZM668.93,237.28c-.25.35-.5.71-.75,1.07.25-.36.5-.71.75-1.07ZM598.45,304.67c3.64-2.29,5.9-1.57,9.79-.69,5.17,1.17,11.67,4.02,17.14,7.3-1.9,5.14-3.41,10.23-4.42,15.19h0c-5.56-2.58-26.75-14.96-22.52-21.79h.01ZM562.97,185c4.62,17.91-25.86,35.35-39.08,22.83-1.38-1.31-3.05-3.66-3.44-5.51-4.85-23.37,37.21-37.89,42.51-17.32h.01ZM527.07,122.54c-.84,1.23-1.69,2.47-2.56,3.73.86-1.25,1.71-2.49,2.56-3.73ZM332.42,149.51c4.62,17.91-25.86,35.35-39.08,22.83-1.38-1.31-3.05-3.66-3.44-5.51-4.85-23.37,37.21-37.89,42.51-17.32h0ZM281.75,244.07c-.37-1.24-.32-2.52-.06-3.77l1.22-1.22c8.67-2.87,33.85,12.03,37.05,20.44.42,1.09.97,2.05.55,3.29-1.48,4.71-13.37.21-16.48-1.18-5.34-2.38-20.65-12.02-22.29-17.56h.01ZM282.01,277.62c-.53-.63-1.06-1.26-1.6-1.91.53.64,1.07,1.28,1.6,1.91ZM296.75,86.69c-.92,1.35-1.85,2.7-2.79,4.08.95-1.37,1.87-2.73,2.79-4.08ZM110.5,149.59c4.62,17.91-25.86,35.35-39.08,22.83-1.38-1.31-3.05-3.65-3.44-5.51-4.85-23.37,37.21-37.89,42.51-17.32h.01ZM59.83,244.15c-.37-1.24-.32-2.52-.06-3.77l1.22-1.22c8.67-2.87,33.85,12.03,37.05,20.44.42,1.09.97,2.05.55,3.29-1.48,4.71-13.37.21-16.48-1.18-5.34-2.38-20.65-12.02-22.29-17.56h.01ZM130.32,312.95c-2.45,3.62-18.17-3.98-21.32-5.76-3.28-1.86-9.18-5.95-11.54-8.78-12.77-15.29,13.99-3.89,19.36-.66,3.02,1.82,16.14,11.3,13.5,15.21h0ZM155.02,304.74c-7.85,2.37-35.54-13.28-36.7-21.59-.9-6.49,11.64-1.99,14.72-.83,6.21,2.34,22.25,11.94,23.84,18.51.45,1.85.13,3.3-1.86,3.91h0ZM145.97,269.25c3.64-2.29,5.9-1.57,9.79-.69,7.54,1.71,17.9,6.97,23.8,11.96,16.27,13.78,4.19,17.23-10.69,10.69-4.9-2.15-27.23-14.97-22.9-21.97h0ZM208.02,343.15c-7.58-.29-31.53-12.1-32.8-20.14-1.16-7.32,15.34-.86,18.33.45,5.54,2.42,15.62,8.62,18.96,13.56,3.35,4.96.52,6.34-4.49,6.14h0ZM206.2,105.93c-3.72-22.96,39.82-33.61,44.16-13.27,5.15,24.16-40.67,34.77-44.16,13.27h0ZM244.37,220.53c.07.17.13.35.2.52-.07-.17-.13-.35-.2-.52ZM240.32,204.98c.07.66.16,1.32.26,1.99-.1-.67-.19-1.33-.26-1.99ZM240.71,207.72c.07.42.14.84.22,1.25-.08-.42-.15-.84-.22-1.25ZM241.14,209.94c.07.35.14.69.22,1.04-.08-.35-.15-.69-.22-1.04ZM241.64,212.09c.08.3.15.6.23.9-.08-.3-.15-.6-.23-.9ZM242.21,214.21c.08.27.15.53.23.8-.08-.27-.15-.53-.23-.8ZM242.86,216.32c.08.23.15.47.23.7-.08-.23-.15-.47-.23-.7ZM243.58,218.43c.07.2.14.41.22.61-.08-.2-.14-.41-.22-.61ZM250.29,233.06s-.02-.03-.02-.04c0,.02.02.03.02.04ZM249.23,231.07s-.04-.08-.06-.12c.02.04.04.08.06.12ZM248.2,229.08c-.03-.06-.06-.12-.09-.19.03.06.06.12.09.19ZM247.22,227.09c-.04-.09-.08-.18-.13-.27.04.09.08.18.13.27ZM246.29,225.08c-.05-.12-.1-.23-.15-.35.05.12.1.23.15.35ZM245.4,223.07c-.06-.15-.12-.29-.18-.44.06.15.12.29.18.44ZM250.31,261.01c-2.01-6.81-.29-16.67,2.23-24.01,3.81,6.48,8.12,12.74,12.36,18.56,0,0-.01-.02-.02-.03-2.68,5.91-11.85,14.64-14.57,5.47h0ZM264.49,291.57c-6.79-1.65-1.67-22.49.24-27.54.41-1.08,1.3-3.09,2.49-5.32h0c2.03,2.73,4.02,5.35,5.91,7.82,1.91,2.51,3.81,4.91,5.69,7.22-2.35,6.64-7.99,19.35-14.32,17.82h-.01,0ZM287.24,301.62l-1.56-.78c2.81,5.59-10.25,22.73-13.45,12.23-2.03-6.63,1.39-20.24,4.36-26.61.78-1.67,3.04-5.72,5.63-8.6,2.96,3.49,5.91,6.75,8.88,9.83h0c-.74,5.24-2.52,10.7-3.85,13.93h-.01,0ZM294.17,290.79c.19.19.38.37.57.56-.19-.19-.38-.37-.57-.56ZM301.06,297.2c.11.1.23.2.34.29-.11-.1-.23-.2-.34-.29ZM297.77,294.24l.02.02-.02-.02ZM352.24,312.86c-2.45,3.62-18.17-3.98-21.32-5.76-3.28-1.86-9.18-5.95-11.54-8.78-12.77-15.29,13.99-3.89,19.36-.66,3.02,1.82,16.14,11.3,13.5,15.21h0ZM376.94,304.66c-7.85,2.37-35.54-13.28-36.7-21.59-.9-6.49,11.64-1.99,14.72-.83,6.21,2.34,22.25,11.94,23.84,18.51.45,1.85.13,3.3-1.86,3.91h0ZM367.9,269.17c3.64-2.29,5.9-1.57,9.79-.69,7.54,1.71,17.9,6.97,23.8,11.96,16.27,13.78,4.19,17.23-10.69,10.69-4.9-2.15-27.23-14.97-22.9-21.97h0ZM429.94,343.07c-7.58-.29-31.53-12.1-32.8-20.14-1.16-7.32,15.34-.86,18.33.45,5.54,2.42,15.62,8.62,18.96,13.56,3.35,4.96.52,6.34-4.49,6.14h0ZM428.12,105.84c-3.72-22.96,39.82-33.61,44.16-13.26,5.15,24.15-40.67,34.76-44.16,13.26ZM472.23,260.93c-1.19-4.03-1.07-9.14-.25-14.16q.37-2.23,0,0c1.38,5.82,3.73,11.73,6.65,17.56h0c-2.65,1.23-5.18.73-6.4-3.39h0ZM471.29,243.34l.09.51-.09-.51ZM486.41,291.49c-4.32-1.05-3.82-9.87-2.39-17.44h0c2.92,4.83,6.09,9.53,9.28,14.01-2.09,2.49-4.43,4.03-6.88,3.43h-.01,0ZM494.15,312.98c-1.53-4.99.03-13.93,2.16-20.76h0c2.54,3.45,5.04,6.74,7.38,9.81,1.16,1.53,2.32,3,3.47,4.46h0c-2.63,6.68-10.59,14.37-12.99,6.49h-.02ZM509.59,309.53s.06.07.09.11c-.03-.04-.06-.07-.09-.11ZM514.4,315.25c.09.1.18.21.27.32-.09-.1-.18-.21-.27-.32ZM511.98,312.42c.07.09.15.18.22.26-.07-.09-.15-.18-.22-.26ZM512.31,279.57c-.37-1.24-.32-2.52-.06-3.77l1.22-1.22c8.67-2.87,33.85,12.03,37.05,20.44.42,1.09.97,2.05.55,3.29-1.48,4.71-13.37.21-16.48-1.18-5.34-2.38-20.65-12.02-22.29-17.56h.01ZM582.79,348.36c-2.45,3.62-18.17-3.98-21.32-5.76-3.28-1.86-9.18-5.95-11.54-8.78-12.77-15.29,13.99-3.89,19.36-.66,3.02,1.82,16.14,11.3,13.5,15.21h0ZM607.5,340.15c-7.85,2.37-35.54-13.28-36.7-21.59-.9-6.49,11.64-1.99,14.72-.83,6.21,2.34,22.25,11.94,23.84,18.51.45,1.85.13,3.3-1.86,3.91h0ZM619.89,333.43c-.01.1-.02.19-.03.29,0-.1.02-.19.03-.29ZM619.69,335.76c0,.06,0,.12-.01.18,0-.06,0-.12.01-.18ZM619.58,338.17v.13-.13ZM619.58,340.22c0,.19,0,.39.01.58,0-.19-.01-.38-.01-.58ZM619.65,342.32c.01.2.02.39.03.59-.01-.2-.02-.39-.03-.59ZM624.76,362.57c-.1-.23-.19-.46-.28-.69.09.23.19.46.28.69ZM623.8,360.19c-.09-.22-.17-.44-.26-.67.08.22.17.44.26.67ZM622.83,357.53c-.04-.11-.08-.22-.12-.33.04.11.08.22.12.33ZM621.96,354.87c-.05-.18-.1-.36-.15-.53.05.18.1.36.15.53ZM621.32,352.59c-.07-.26-.13-.52-.2-.78.06.26.13.52.2.78ZM620.76,350.28c-.06-.27-.12-.54-.17-.81.06.27.11.54.17.81ZM620.29,347.89c-.04-.24-.09-.48-.12-.72.04.24.08.48.12.72ZM630.63,374.42c.06.11.12.21.18.32-.06-.11-.12-.21-.18-.32ZM625.54,364.36c.08.17.15.35.23.52-.08-.17-.15-.35-.23-.52ZM628.06,369.64c.03.06.07.13.1.19-.03-.06-.07-.12-.1-.19ZM629.29,371.99c.07.13.14.27.22.4-.07-.13-.14-.27-.22-.4ZM661.3,384.01c-.37-1.24-.32-2.52-.06-3.77l1.22-1.22c8.67-2.87,33.85,12.03,37.05,20.44.42,1.09.97,2.05.55,3.29-1.48,4.71-13.37.21-16.48-1.18-5.34-2.38-20.65-12.02-22.29-17.56h.01ZM710.46,447.04c-3.28-1.86-9.18-5.95-11.54-8.78-12.77-15.29,13.99-3.89,19.36-.66,1.78,1.07,7.07,4.81,10.58,8.5h0c-1.06,2.42-2.06,4.84-2.97,7.25v-.02c-5.62-1.3-13.33-5.09-15.43-6.28h0ZM725.01,455.76c-.04.12-.08.24-.13.36.04-.12.08-.24.13-.36ZM761.49,526.95c-.37-1.24-.32-2.52-.06-3.77l1.22-1.22c6.06-2.01,20.2,4.68,29.25,11.76.4-.58.79-1.15,1.18-1.71-2.68,3.89-5.69,8.16-8.88,12.72,0-.01.02-.02.02-.03-.16-.07-.32-.14-.45-.2-5.34-2.38-20.65-12.02-22.29-17.56h.01ZM782.28,547.5s.07-.09.1-.14c-.03.05-.07.09-.1.14ZM770.45,564.92s-.02.03-.03.05c.01-.02.02-.03.03-.05ZM778.43,553.04h0ZM776.47,555.92s-.02.04-.04.05c.01-.02.02-.04.04-.05ZM669.42,813.97c4.62,17.91-25.86,35.35-39.08,22.83-1.38-1.31-3.05-3.65-3.44-5.51-4.85-23.37,37.21-37.89,42.51-17.32h.01ZM646.1,733.45c.13-.18.26-.35.39-.53-.13.18-.26.35-.39.53ZM648.58,730.14c.12-.16.25-.33.37-.49-.12.16-.25.33-.37.49ZM659.44,717.41c-.09.1-.19.19-.28.29.09-.1.19-.19.28-.29ZM656.54,720.48c.06-.06.12-.13.18-.19-.06.06-.12.13-.18.19ZM631.4,726.02c8.49-8.75,10.61,4.08,10.27,10.68-.05.98-.22,2.21-.47,3.62-3.31,4.76-6.68,9.75-10.24,14.92-2.22,3.23-4.67,6.71-7.26,10.41.04-.05.08-.11.11-.16-1.88-2.62-2.54-7.52-2.49-10.84.13-7.17,5.02-23.42,10.07-28.62h0ZM620.45,770.3s.04-.06.06-.09c-.02.03-.04.06-.06.09ZM622.37,903.19c-.28,0-.55,0-.81.04.26-.02.53-.03.81-.04ZM621.3,903.26c-.2.02-.39.04-.57.08.18-.04.38-.06.57-.08ZM437.24,737.09c4.62,17.91-25.86,35.35-39.08,22.83-1.38-1.31-3.05-3.65-3.44-5.51-4.85-23.37,37.21-37.89,42.51-17.32h.01ZM386.58,831.65c-.37-1.24-.32-2.52-.06-3.77l1.22-1.22c8.67-2.87,33.85,12.03,37.05,20.44.42,1.09.97,2.05.55,3.29-1.48,4.71-13.37.21-16.48-1.18-5.34-2.38-20.65-12.02-22.29-17.56h.01ZM457.06,900.45c-2.45,3.62-18.17-3.98-21.32-5.76-3.28-1.86-9.18-5.95-11.54-8.78-12.77-15.29,13.99-3.89,19.36-.66,3.02,1.82,16.14,11.3,13.5,15.21h0ZM481.77,892.24c-7.85,2.37-35.54-13.28-36.7-21.59-.9-6.49,11.64-1.99,14.72-.82,6.21,2.34,22.25,11.94,23.84,18.51.45,1.85.13,3.3-1.86,3.9h0ZM472.72,856.75c3.64-2.29,5.9-1.57,9.79-.69,7.54,1.71,17.9,6.97,23.8,11.97,16.27,13.77,4.19,17.23-10.69,10.69-4.9-2.15-27.23-14.97-22.9-21.97h0ZM534.76,930.65c-7.58-.29-31.53-12.1-32.8-20.14-1.16-7.32,15.34-.86,18.33.45,5.54,2.42,15.62,8.62,18.96,13.56,3.35,4.96.52,6.34-4.49,6.14h0ZM532.94,693.43c-3.72-22.96,39.82-33.61,44.16-13.27,5.15,24.16-40.67,34.77-44.16,13.27ZM580.33,821.7c1.71-4.2,9.81-19.06,15.62-13.63.03.03.05.06.08.09h0c-8.13,14.33-14.88,29.17-17.65,43.03-.53-.63-.99-1.5-1.33-2.67-2.29-7.72.24-19.38,3.28-26.81h0ZM577.61,855.84s-.01.1-.02.15c0-.05.01-.1.02-.15ZM577.35,858.03c-.01.11-.02.23-.03.34.01-.11.02-.23.03-.34ZM577.15,860.43v.12-.12ZM577.05,862.73v.27-.27ZM577.04,864.78c0,.2,0,.4.01.59,0-.2-.01-.4-.01-.59ZM577.12,866.87c.01.2.02.39.03.59-.01-.19-.02-.39-.03-.59ZM577.58,871.4c-.1-.65-.19-1.31-.26-1.96.07.65.16,1.3.26,1.96ZM578.35,875.35c-.09-.4-.17-.79-.25-1.19.08.4.16.79.25,1.19ZM577.93,873.37c-.08-.44-.16-.87-.23-1.31.07.44.14.87.23,1.31ZM599.16,916.21c.2.28.4.56.59.84-.2-.28-.4-.56-.59-.84ZM578.55,876.2c.09.38.19.76.29,1.13-.1-.38-.19-.76-.29-1.13ZM579.09,878.21c.11.37.21.74.32,1.12-.11-.37-.22-.75-.32-1.12ZM579.69,880.21c.12.37.23.74.36,1.11l-.36-1.11ZM580.35,882.21l.39,1.11c-.14-.37-.26-.74-.39-1.11ZM581.08,884.22c.14.37.28.73.42,1.1-.15-.37-.29-.73-.42-1.1ZM581.87,886.22c.15.37.3.74.46,1.1-.16-.37-.31-.74-.46-1.1ZM582.71,888.23c.16.37.32.74.49,1.1-.17-.37-.33-.74-.49-1.1ZM583.61,890.22c.17.37.34.74.52,1.1-.18-.37-.35-.74-.52-1.1ZM584.55,892.22c.18.37.36.74.55,1.11-.18-.37-.37-.74-.55-1.11ZM585.55,894.21c.19.37.38.74.58,1.12-.19-.37-.39-.74-.58-1.12ZM586.58,896.18c.2.38.41.76.61,1.13-.21-.38-.41-.76-.61-1.13ZM587.65,898.16c.21.38.43.76.64,1.14-.22-.38-.43-.76-.64-1.14ZM588.76,900.12c.22.39.45.77.68,1.16-.23-.39-.45-.77-.68-1.16ZM589.9,902.07c.24.4.48.8.73,1.2-.24-.4-.49-.8-.73-1.2ZM591.08,904.01c.26.43.53.86.8,1.29-.27-.43-.54-.86-.8-1.29ZM592.27,905.94c.34.53.67,1.06,1.01,1.59-.34-.53-.68-1.06-1.01-1.59ZM593.69,908.15c.34.52.68,1.05,1.03,1.57-.34-.52-.69-1.04-1.03-1.57ZM595.23,910.5c.24.36.49.73.73,1.09-.24-.36-.49-.73-.73-1.09ZM596.58,912.49c.22.32.43.63.65.95-.22-.31-.43-.63-.65-.95ZM597.87,914.36c.21.3.41.6.62.89-.21-.3-.41-.6-.62-.89ZM606.9,926.75l.22.29c-.07-.1-.15-.19-.22-.29ZM600.46,918.03c.19.26.38.52.56.78-.19-.26-.37-.52-.56-.78ZM601.76,919.84c.17.24.34.47.51.71-.17-.23-.34-.47-.51-.71ZM603.06,921.6c.16.22.32.43.48.65-.16-.21-.32-.43-.48-.65ZM604.34,923.33c.14.19.28.38.42.57-.14-.19-.28-.38-.42-.57ZM605.63,925.06c.11.15.22.29.33.43-.11-.14-.22-.29-.33-.43ZM619.12,909.4c.12.24.25.49.41.74,1.29-2.27,2.57-4.57,3.84-6.91-.32-.02-.64-.03-.94-.03,10.23-.06,31.61,13.08,34.54,20.79.42,1.09.97,2.05.55,3.29-1.48,4.71-13.37.21-16.48-1.18-5.07-2.26-19.13-11.07-21.93-16.69h.01ZM618.76,908.53c.07.23.17.47.28.71-.11-.24-.21-.48-.28-.71ZM689.25,977.33c-2.45,3.62-18.17-3.98-21.32-5.76-3.28-1.86-9.18-5.95-11.54-8.78-12.77-15.29,13.99-3.89,19.36-.66,3.02,1.82,16.14,11.3,13.5,15.21h0ZM713.95,969.12c-7.85,2.37-35.54-13.28-36.7-21.59-.9-6.49,11.64-1.99,14.72-.82,6.21,2.34,22.25,11.94,23.84,18.51.45,1.85.13,3.3-1.86,3.91h0ZM704.9,933.63c3.64-2.29,5.9-1.57,9.79-.69,7.54,1.71,17.9,6.97,23.8,11.97,16.27,13.77,4.19,17.23-10.69,10.69-4.9-2.15-27.23-14.97-22.9-21.97h0ZM766.95,1007.53c-7.58-.29-31.53-12.1-32.8-20.14-1.16-7.32,15.34-.86,18.33.44,5.54,2.42,15.62,8.62,18.96,13.56,3.35,4.96.52,6.34-4.49,6.14h0ZM765.13,770.31c-3.72-22.96,39.82-33.61,44.16-13.27,5.15,24.16-40.67,34.77-44.16,13.27ZM809.24,925.39c-2.28-7.72.24-19.38,3.28-26.81,1.71-4.2,9.81-19.06,15.62-13.63,4.9,4.58,1.06,22.39-1.44,28.23l-2.34,5.29c-1.58,5.72-12.16,16.88-15.11,6.93h-.01ZM852.61,861.64s0,.01-.01.02c0,0,0-.01.01-.02ZM848.58,868.1c-.05.09-.11.18-.16.27.05-.09.11-.18.16-.27ZM846.55,871.47c-.06.1-.12.2-.18.3.06-.1.12-.2.18-.3ZM844.52,874.93c-.03.06-.07.11-.1.17.03-.06.07-.11.1-.17ZM840.72,881.71s-.05.1-.08.14c.03-.05.05-.1.08-.14ZM838.95,885.07l-.16.3.16-.3ZM837.17,888.56c-.04.09-.09.18-.13.27.04-.09.09-.18.13-.27ZM835.45,892.11v.02-.02ZM832.45,898.84c-.04.09-.07.17-.11.26.04-.09.07-.17.11-.26ZM831.06,902.27c-.04.1-.08.21-.12.31.04-.1.08-.21.12-.31ZM829.75,905.77c-.02.06-.04.13-.07.19.02-.06.04-.13.07-.19ZM827.57,912.5s-.03.11-.05.16c.02-.05.03-.11.05-.16ZM823.42,955.96c-6.79-1.65-1.67-22.49.24-27.54.24-.62.63-1.54,1.14-2.64-.5,4.28-.58,8.44-.13,12.43.58,5.19,2.07,10.52,4.17,15.84h0c-1.7,1.54-3.52,2.36-5.41,1.9h-.01ZM826.68,915.77c-.03.11-.05.21-.08.32.03-.11.05-.21.08-.32ZM825.9,919.14c-.02.1-.04.2-.06.3.02-.1.04-.2.06-.3ZM825.26,922.52v.06-.06ZM830.39,957.74s-.04-.08-.05-.12c.02.04.04.08.05.12ZM831.15,977.45c-1.2-3.92-.49-10.28.9-16.14,2.55,5.19,5.55,10.32,8.75,15.27h0c-3.42,4.19-7.94,6.48-9.65.87ZM847.64,986.57c.08.11.15.21.23.32-.08-.11-.15-.21-.23-.32ZM842.93,979.79c.08.12.16.25.25.37-.08-.12-.16-.25-.25-.37ZM845.25,983.19c.1.14.19.28.29.41-.1-.14-.19-.28-.29-.41ZM866.11,977.3c-.37-1.24-.32-2.52-.06-3.77l1.22-1.22c8.67-2.87,33.85,12.03,37.05,20.44.42,1.09.97,2.05.55,3.29-1.48,4.71-13.37.21-16.48-1.18-5.34-2.38-20.65-12.02-22.29-17.56h.01ZM936.59,1046.1c-2.45,3.62-18.17-3.98-21.32-5.76-3.28-1.86-9.18-5.95-11.54-8.78-12.77-15.29,13.99-3.89,19.36-.66,3.02,1.82,16.14,11.3,13.5,15.21h0ZM961.29,1037.89c-7.85,2.37-35.54-13.28-36.7-21.59-.9-6.49,11.64-1.99,14.72-.83,6.21,2.34,22.25,11.94,23.84,18.51.45,1.85.13,3.3-1.86,3.9h0ZM952.25,1002.4c3.64-2.29,5.9-1.57,9.79-.69,7.54,1.71,17.9,6.97,23.8,11.96,16.27,13.78,4.19,17.23-10.69,10.69-4.9-2.15-27.23-14.97-22.9-21.97h0ZM1014.29,1076.3c-7.58-.29-31.53-12.1-32.8-20.14-1.16-7.32,15.34-.86,18.33.45,5.54,2.42,15.62,8.62,18.96,13.56,3.35,4.96.52,6.34-4.49,6.14h0ZM1012.47,839.08c-3.72-22.96,39.82-33.61,44.16-13.27,5.15,24.16-40.67,34.77-44.16,13.27h0ZM1056.58,994.16c-2.28-7.72.24-19.38,3.28-26.81,1.71-4.2,9.81-19.06,15.62-13.63,4.9,4.58,1.06,22.39-1.44,28.23l-1.59-.81c-.92,2.04-.21,4.13-.75,6.1-1.58,5.72-12.16,16.89-15.11,6.93h-.01ZM1070.76,1024.72c-6.79-1.65-1.67-22.49.24-27.54,1.51-3.98,9.39-20.2,15.05-15.01,3.89,3.57,1.28,17.63-.23,22.51-1.66,5.36-7.92,21.76-15.06,20.04h0ZM1093.51,1034.77l-1.56-.78c2.81,5.59-10.25,22.73-13.46,12.23-2.03-6.63,1.39-20.24,4.36-26.61,1.54-3.31,8.93-15.98,13.09-10.34,4.15,5.63.06,19.47-2.43,25.5h0ZM1100.86,900.29c.13-7.17,5.02-23.42,10.07-28.62,8.49-8.75,10.61,4.08,10.27,10.68-.33,6.47-5.7,24.22-10.52,28.5-7.64,6.77-9.93-4.52-9.82-10.56h0ZM1111.65,939.08c-2.77-5.78-.16-17.7,1.88-23.76,1.38-4.11,6.74-17.93,12.56-15.1,6.02,7.19,1.53,18.15,0,26.45l-1.61-.83c1.95,5.34-8.39,22.49-12.83,13.24h0ZM1136.56,942.42c-.62,5.91-2.93,7.69-4.24,11.29-.52,1.41.25,2.75-.11,3.86-1.17,3.55-8.7,15.89-12.01,8.73-3.63-7.85,2.58-31.44,9.38-36.94,7.59-6.14,7.42,8.96,6.99,13.06h-.01ZM1143.29,866.85c.07.27.13.53.2.8-.07-.27-.13-.53-.2-.8ZM1142.11,862.27c-.29-1.09-.57-2.16-.86-3.22.29,1.06.58,2.13.86,3.22.18.7.35,1.37.53,2.05-.18-.68-.35-1.35-.53-2.05ZM1155.3,861.12c-3.11-.12-8.98-2.18-14.9-5.12,0,.02.01.05.02.07-1.74-6.13-3.56-11.73-5.58-16.86,2.7.85,5.04,1.8,6,2.21,5.54,2.42,15.62,8.62,18.96,13.56,3.35,4.96.52,6.34-4.49,6.14h-.01ZM1153.48,623.9c-3.72-22.96,39.82-33.61,44.16-13.27,5.15,24.16-40.67,34.77-44.16,13.27ZM1197.6,778.98c-2.28-7.72.24-19.38,3.28-26.81,1.71-4.2,9.81-19.06,15.62-13.63,4.9,4.58,1.06,22.39-1.44,28.23l-1.59-.81c-.92,2.04-.21,4.13-.75,6.1-1.58,5.72-12.16,16.89-15.11,6.93h-.01ZM1211.77,809.55c-6.79-1.65-1.67-22.49.24-27.54,1.51-3.97,9.39-20.2,15.04-15.01,3.89,3.57,1.28,17.63-.23,22.51-1.66,5.36-7.92,21.76-15.06,20.04h.01ZM1234.52,819.59l-1.56-.78c2.81,5.59-10.25,22.73-13.45,12.23-2.03-6.63,1.39-20.24,4.36-26.61,1.54-3.31,8.93-15.98,13.09-10.34,4.15,5.63.06,19.47-2.43,25.5h-.01,0ZM1241.87,685.11c.13-7.17,5.02-23.42,10.07-28.62,3.75-3.87,6.25-3.52,7.85-1.36-.98-1.32-2.29-1.95-4.02-1.37,1.35.47,2.68.92,4.02,1.37,2.02,2.73,2.6,8.35,2.42,12.04-.33,6.47-5.7,24.22-10.52,28.5-7.64,6.77-9.93-4.52-9.82-10.56h0ZM1259.37,596.95s.04.05.07.07c-.02-.02-.04-.05-.07-.07ZM1261.7,599.54c.16.19.32.37.48.56-.16-.19-.32-.37-.48-.56ZM1252.66,723.91c-2.77-5.78-.16-17.7,1.88-23.76,1.38-4.11,6.74-17.93,12.56-15.1,6.02,7.19,1.53,18.15,0,26.45l-1.61-.82c1.95,5.34-8.39,22.49-12.83,13.23h0ZM1263.16,601.29c.16.2.32.41.48.61-.16-.2-.32-.41-.48-.61ZM1265.31,604.12c.14.2.29.4.43.6-.14-.2-.29-.4-.43-.6ZM1266.58,605.94c.18.26.35.52.52.79-.17-.26-.35-.53-.52-.79ZM1267.89,607.95c.19.3.37.6.55.9-.18-.3-.36-.6-.55-.9ZM1269.65,610.89c.19.33.37.65.55.98-.18-.33-.37-.66-.55-.98ZM1277.58,727.25c-.62,5.91-2.93,7.69-4.24,11.29-.52,1.41.25,2.75-.11,3.86-1.17,3.55-8.7,15.89-12.01,8.73-3.63-7.85,2.58-31.44,9.38-36.94,7.59-6.14,7.42,8.96,6.99,13.06h-.01ZM1270.86,613.08c.2.38.4.76.59,1.14-.2-.38-.39-.76-.59-1.14ZM1272.33,615.99c.23.46.45.93.67,1.4-.22-.47-.45-.94-.67-1.4ZM1273.54,618.57c.2.44.4.89.6,1.34-.2-.45-.4-.9-.6-1.34ZM1274.62,621.02c.32.75.64,1.52.95,2.29-.31-.78-.63-1.54-.95-2.29ZM1275.97,624.35c.21.55.43,1.1.64,1.66-.21-.56-.42-1.11-.64-1.66ZM1277.01,627.11c.25.7.51,1.4.76,2.11-.25-.71-.5-1.42-.76-2.11ZM1283.13,647.1c-.29-1.12-.59-2.22-.88-3.3.3,1.09.59,2.18.88,3.3.38,1.47.76,2.91,1.12,4.33-.36-1.42-.73-2.86-1.12-4.33ZM1278.07,630.07c.28.82.56,1.65.84,2.5-.28-.84-.55-1.68-.84-2.5ZM1279.22,633.57c.23.72.46,1.45.69,2.18-.23-.73-.46-1.46-.69-2.18ZM1280.17,636.58c.3.99.6,1.99.89,3.01-.3-1.02-.59-2.02-.89-3.01ZM1281.28,640.35c.24.83.48,1.68.71,2.53-.24-.85-.47-1.7-.71-2.53ZM1270.06,408.13c-3.72-22.96,39.82-33.61,44.16-13.27,5.15,24.16-40.67,34.77-44.16,13.27ZM1314.17,563.21c-2.28-7.72.24-19.38,3.28-26.81,1.71-4.2,9.81-19.06,15.62-13.63,4.9,4.58,1.06,22.39-1.44,28.23l-1.59-.81c-.92,2.04-.21,4.13-.75,6.1-1.58,5.72-12.16,16.88-15.11,6.93h-.01ZM1328.35,593.78c-6.79-1.65-1.67-22.49.24-27.54,1.51-3.97,9.39-20.2,15.04-15.01,3.89,3.57,1.28,17.63-.23,22.51-1.66,5.36-7.92,21.76-15.06,20.04h.01ZM1351.1,603.82l-1.56-.78c2.81,5.59-10.25,22.73-13.45,12.23-2.03-6.63,1.39-20.24,4.36-26.61,1.54-3.31,8.93-15.98,13.09-10.34,4.15,5.63.06,19.47-2.43,25.5h-.01,0ZM1358.45,469.35c.13-7.17,5.02-23.42,10.07-28.62,8.49-8.75,10.61,4.08,10.27,10.68-.33,6.47-5.7,24.22-10.52,28.5-7.64,6.77-9.93-4.52-9.82-10.56ZM1369.24,508.14c-2.77-5.78-.16-17.7,1.88-23.76,1.38-4.11,6.74-17.93,12.56-15.1,6.02,7.19,1.53,18.15,0,26.45l-1.61-.82c1.95,5.34-8.39,22.49-12.83,13.23h0ZM1394.15,511.48c-.62,5.91-2.93,7.69-4.24,11.29-.52,1.41.25,2.75-.11,3.86-1.17,3.55-8.7,15.89-12.01,8.73-3.63-7.85,2.58-31.44,9.38-36.94,7.59-6.14,7.42,8.96,6.99,13.06h-.01Z"/>
</svg>