<?xml version="1.0" encoding="UTF-8"?>
<svg id="Ebene_1" xmlns="http://www.w3.org/2000/svg" xmlns:xlink="http://www.w3.org/1999/xlink" version="1.1" viewBox="0 0 1333.48 560.1">
  <!-- Generator: Adobe Illustrator 29.5.0, SVG Export Plug-In . SVG Version: 2.1.0 Build 137)  -->
  <defs>
    <style>
      .st0 {
        fill: none;
      }

      .st1 {
        fill: #ff5000;
      }

      .st2 {
        clip-path: url(#clippath);
      }
    </style>
    <clipPath id="clippath">
      <polygon class="st0" points="4 3.13 1327.47 3.13 1333.47 560.1 0 560.1 4 3.13"/>
    </clipPath>
  </defs>
  <g class="st2">
    <g>
      <path class="st1" d="M1283.79,560.1c28.45,0,49.69-15.46,49.69-40.41,0-14.84-7.42-26.18-26.18-37.11l-29.69-17.32c-11.34-6.6-16.49-14.02-16.49-23.09,0-12.58,9.07-20.62,22.06-20.62,16.7,0,29.89,11.96,39.58,36.9l4.95-1.24-1.03-38.14c-9.9-4.12-22.27-8.87-37.73-8.87-28.86,0-47.01,16.29-47.01,37.93,0,13.4,6.8,25.15,22.47,34.02l32.99,18.76c11.34,6.39,17.11,13.81,17.11,24.53,0,12.99-8.25,22.06-22.68,22.06-18.14,0-38.55-14.02-46.59-44.74l-5.15.62-.62,39.17c11.13,11.13,26.18,17.52,44.33,17.52M1139.64,482.17v-58.35h4.74c28.45,0,43.09,9.28,43.09,28.45,0,15.67-13.81,29.89-40,29.89h-7.83ZM1101.29,551.65v5.57h59.17v-5.57c-10.51-1.86-20.82-5.36-20.82-23.3v-35.25h5.98c7.63,0,14.84,3.09,21.85,13.4l34.22,50.72h33.81v-4.95l-4.12-1.24c-23.09-7.01-36.9-51.75-56.7-62.47,17.11-4.74,33.4-20.62,33.4-38.14,0-25.98-28.04-37.52-61.44-37.52h-45.36v5.57c11.75,2.27,18.14,6.19,18.14,23.92v85.97c0,17.52-6.39,21.03-18.14,23.3M1022.2,560.1c28.45,0,54.22-21.03,54.22-53.6v-63.5c0-18.76,5.36-22.27,16.29-24.53v-5.57h-51.34v5.57c13.81,1.44,22.27,5.77,22.27,24.53v62.88c0,25.36-16.91,40.2-37.11,40.2-25.36,0-40.62-17.32-40.62-42.26v-60.82c0-16.7,8.87-23.09,23.92-24.53v-5.57h-62.26v5.57c11.75,2.27,18.14,7.83,18.14,24.53v63.91c0,34.22,26.39,53.19,56.49,53.19M819.6,478.05c0-31.13,21.03-56.9,47.01-56.9,24.33,0,57.31,22.27,57.31,70.51,0,31.54-21.03,57.31-47.01,57.31-28.04,0-57.31-30.93-57.31-70.92M871.77,560.1c41.03,0,73.81-34.22,73.81-75.25s-32.78-74.84-73.81-74.84-73.81,33.81-73.81,74.84,32.78,75.25,73.81,75.25M735.12,560.1c17.32,0,37.32-6.6,49.89-12.58l4.33-34.64-4.74-.82c-10.31,22.27-23.3,36.9-42.26,36.9-30.93,0-61.64-28.24-61.64-68.45,0-31.13,20.41-59.17,45.77-59.17,21.65,0,37.93,11.96,52.37,36.08l4.74-1.65-4.54-35.46c-12.58-5.98-30.31-10.31-47.62-10.31-41.03,0-73.4,34.22-73.4,75.25s33.81,74.84,77.11,74.84M571.92,482.17v-58.35h4.74c28.45,0,43.09,9.28,43.09,28.45,0,15.67-13.81,29.89-40,29.89h-7.83ZM533.57,551.65v5.57h59.17v-5.57c-10.51-1.86-20.82-5.36-20.82-23.3v-35.25h5.98c7.63,0,14.84,3.09,21.85,13.4l34.22,50.72h33.81v-4.95l-4.12-1.24c-23.09-7.01-36.9-51.75-56.7-62.47,17.11-4.74,33.4-20.62,33.4-38.14,0-25.98-28.04-37.52-61.44-37.52h-45.36v5.57c11.75,2.27,18.14,6.19,18.14,23.92v85.97c0,17.52-6.39,21.03-18.14,23.3M288.31,551.65v5.57h64.53v-5.57c-15.87-1.86-26.18-5.77-26.18-23.5v-104.32h5.77c31.75,0,46.59,11.75,46.59,33.61,0,20.62-13.4,35.87-36.49,38.55l.41,6.6c29.89-.21,57.11-19.38,57.11-47.01s-24.95-42.68-67.62-42.68h-44.12v5.57c11.75,2.27,18.14,6.19,18.14,23.92v85.77c0,17.73-6.39,21.24-18.14,23.5"/>
      <path class="st1" d="M813.33,280.59v-58.35h4.74c28.45,0,43.09,9.28,43.09,28.45,0,15.67-13.81,29.89-40,29.89h-7.83ZM774.98,350.06v5.57h59.17v-5.57c-10.51-1.86-20.82-5.36-20.82-23.3v-35.25h5.98c7.63,0,14.84,3.09,21.85,13.4l34.22,50.72h33.81v-4.95l-4.12-1.24c-23.09-7.01-36.9-51.75-56.7-62.47,17.11-4.74,33.4-20.62,33.4-38.14,0-25.98-28.04-37.52-61.44-37.52h-45.36v5.57c11.75,2.27,18.14,6.19,18.14,23.92v85.97c0,17.52-6.39,21.03-18.14,23.3M672.04,240.38v86.18c0,17.73-6.39,21.65-18.14,23.92v5.15h108.86l4.74-35.67-5.36-.82c-5.77,18.35-18.35,25.56-42.26,25.56-22.06,0-27.63-8.66-27.63-18.14v-39.58h17.94c17.73,0,22.06,7.83,23.92,20.2h5.57v-51.13h-5.57c-1.65,11.55-6.19,20-23.92,20h-17.94v-53.81h27.21c18.14,0,30.1,8.66,38.55,27.63l5.36-1.44-5.36-37.11h-104.11v5.15c11.75,2.27,18.14,6.19,18.14,23.92M547.1,325.53v-103.29h10.1c44.53,0,70.1,24.53,70.1,62.47,0,32.99-22.47,59.99-51.95,59.99-18.35,0-28.24-4.54-28.24-19.17M508.76,350.06v5.57h57.93c48.04,0,81.64-28.66,81.64-75.66s-34.22-68.65-86.38-68.65h-53.19v5.57c11.75,2.27,18.14,6.19,18.14,23.92v85.35c0,17.73-6.39,21.65-18.14,23.92M351.04,349.24v6.39h59.99v-5.57c-10.51-2.27-19.59-5.77-19.59-23.5v-104.32h17.32c20.82,0,28.66,16.49,33.4,33.4l5.77-.62-2.27-49.48h-5.98c-1.65,4.95-5.77,5.77-21.44,5.77h-75.05c-15.67,0-19.79-.82-21.44-5.77h-5.98l-2.27,49.48,5.77.62c4.74-16.91,12.58-33.4,33.4-33.4h18.56v104.32c0,17.73-8.45,20.41-20.2,22.68M256.58,358.52c28.45,0,49.69-15.46,49.69-40.41,0-14.84-7.42-26.18-26.18-37.11l-29.69-17.32c-11.34-6.6-16.49-14.02-16.49-23.09,0-12.58,9.07-20.62,22.06-20.62,16.7,0,29.89,11.96,39.58,36.9l4.95-1.24-1.03-38.14c-9.9-4.12-22.27-8.87-37.73-8.87-28.86,0-47.01,16.29-47.01,37.93,0,13.4,6.8,25.15,22.47,34.02l32.99,18.76c11.34,6.39,17.11,13.81,17.11,24.53,0,12.99-8.25,22.06-22.68,22.06-18.14,0-38.55-14.02-46.59-44.74l-5.15.62-.62,39.17c11.13,11.13,26.18,17.52,44.33,17.52M144.16,350.06v5.57h56.28v-5.57c-10.93-2.27-17.94-6.19-17.94-23.92v-85.35c0-17.73,7.01-21.65,17.94-23.92v-5.57h-56.28v5.57c11.75,2.27,18.14,6.19,18.14,23.92v85.35c0,17.73-6.39,21.65-18.14,23.92"/>
      <path class="st1" d="M1249.93,156.93c28.45,0,49.69-15.46,49.69-40.41,0-14.84-7.42-26.18-26.18-37.11l-29.69-17.32c-11.34-6.6-16.49-14.02-16.49-23.09,0-12.58,9.07-20.62,22.06-20.62,16.7,0,29.89,11.96,39.58,36.9l4.95-1.24-1.03-38.14c-9.9-4.12-22.27-8.87-37.73-8.87-28.86,0-47.01,16.29-47.01,37.93,0,13.4,6.8,25.15,22.47,34.02l32.99,18.76c11.34,6.39,17.11,13.81,17.11,24.53,0,12.99-8.25,22.06-22.68,22.06-18.14,0-38.55-14.02-46.59-44.74l-5.15.62-.62,39.17c11.13,11.13,26.18,17.52,44.33,17.52M1137.82,156.93c28.45,0,49.69-15.46,49.69-40.41,0-14.84-7.42-26.18-26.18-37.11l-29.69-17.32c-11.34-6.6-16.49-14.02-16.49-23.09,0-12.58,9.07-20.62,22.06-20.62,16.7,0,29.89,11.96,39.58,36.9l4.95-1.24-1.03-38.14c-9.9-4.12-22.27-8.87-37.73-8.87-28.86,0-47.01,16.29-47.01,37.93,0,13.4,6.8,25.15,22.47,34.02l32.99,18.76c11.34,6.39,17.11,13.81,17.11,24.53,0,12.99-8.25,22.06-22.68,22.06-18.14,0-38.55-14.02-46.59-44.74l-5.15.62-.62,39.17c11.13,11.13,26.18,17.52,44.33,17.52M983.88,38.8v86.18c0,17.73-6.39,21.65-18.14,23.92v5.15h108.86l4.74-35.67-5.36-.82c-5.77,18.35-18.35,25.56-42.26,25.56-22.06,0-27.63-8.66-27.63-18.14v-39.58h17.94c17.73,0,22.06,7.83,23.92,20.2h5.57v-51.13h-5.57c-1.65,11.55-6.19,20-23.92,20h-17.94V20.65h27.21c18.14,0,30.1,8.66,38.55,27.63l5.36-1.44-5.36-37.11h-104.11v5.15c11.75,2.27,18.14,6.19,18.14,23.92M845.11,154.04h107.83l4.33-44.53-5.77-.82c-7.63,23.92-17.52,34.43-36.49,34.43h-44.94L951.7,14.88l-2.27-5.15h-71.33c-15.67,0-20.41-.41-21.85-6.6h-5.77l-6.39,47.62,5.57.82c5.36-17.94,15.67-30.93,33.4-30.93h41.03l-81.64,128.03,2.68,5.36h-.02ZM602.11,79V20.65h4.74c28.45,0,43.09,9.28,43.09,28.45,0,15.67-13.81,29.89-40,29.89h-7.83ZM563.76,148.48v5.57h59.17v-5.57c-10.51-1.86-20.82-5.36-20.82-23.3v-35.25h5.98c7.63,0,14.84,3.09,21.85,13.4l34.22,50.72h33.81v-4.95l-4.12-1.24c-23.09-7.01-36.9-51.75-56.7-62.47,17.11-4.74,33.4-20.62,33.4-38.14,0-25.98-28.04-37.52-61.44-37.52h-45.36v5.57c11.75,2.27,18.14,6.19,18.14,23.92v85.97c0,17.52-6.39,21.03-18.14,23.3M450.95,148.48v5.57h64.53v-5.57c-15.87-1.86-26.18-5.77-26.18-23.5V20.65h5.77c31.75,0,46.59,11.75,46.59,33.61,0,20.62-13.4,35.87-36.49,38.55l.41,6.6c29.89-.21,57.11-19.38,57.11-47.01s-24.95-42.68-67.62-42.68h-44.12v5.57c11.75,2.27,18.14,6.19,18.14,23.92v85.77c0,17.73-6.39,21.24-18.14,23.5M304.57,79V20.65h4.74c28.45,0,43.09,9.28,43.09,28.45,0,15.67-13.81,29.89-40,29.89h-7.83ZM266.22,148.48v5.57h59.17v-5.57c-10.51-1.86-20.82-5.36-20.82-23.3v-35.25h5.98c7.63,0,14.84,3.09,21.85,13.4l34.22,50.72h33.81v-4.95l-4.12-1.24c-23.09-7.01-36.9-51.75-56.7-62.47,17.11-4.74,33.4-20.62,33.4-38.14,0-25.98-28.04-37.52-61.44-37.52h-45.36v5.57c11.75,2.27,18.14,6.19,18.14,23.92v85.97c0,17.52-6.39,21.03-18.14,23.3M163.28,38.8v86.18c0,17.73-6.39,21.65-18.14,23.92v5.15h108.86l4.74-35.67-5.36-.82c-5.77,18.35-18.35,25.56-42.26,25.56-22.06,0-27.63-8.66-27.63-18.14v-39.58h17.94c17.73,0,22.06,7.83,23.92,20.2h5.57v-51.13h-5.57c-1.65,11.55-6.19,20-23.92,20h-17.94V20.65h27.21c18.14,0,30.1,8.66,38.55,27.63l5.36-1.44-5.36-37.11h-104.11v5.15c11.75,2.27,18.14,6.19,18.14,23.92M38.35,123.94V20.65h10.1c44.53,0,70.1,24.53,70.1,62.47,0,32.99-22.47,59.99-51.95,59.99-18.35,0-28.24-4.54-28.24-19.17M0,148.48v5.57h57.93c48.04,0,81.64-28.66,81.64-75.66S105.35,9.73,53.19,9.73H0v5.57c11.75,2.27,18.14,6.19,18.14,23.92v85.35c0,17.73-6.39,21.65-18.14,23.92"/>
      <path class="st1" d="M832.24,83.68c0,5.86-4.75,10.62-10.62,10.62s-10.62-4.75-10.62-10.62,4.76-10.62,10.62-10.62,10.62,4.75,10.62,10.62"/>
      <path class="st1" d="M826.41,57.71c0,5.48-4.44,9.93-9.93,9.93s-9.92-4.44-9.92-9.93,4.44-9.93,9.92-9.93,9.93,4.44,9.93,9.93"/>
      <path class="st1" d="M811.04,35.75c0,5.13-4.16,9.28-9.28,9.28s-9.28-4.16-9.28-9.28,4.16-9.28,9.28-9.28,9.28,4.16,9.28,9.28"/>
      <path class="st1" d="M788.43,21.02c0,4.76-3.86,8.62-8.62,8.62s-8.62-3.86-8.62-8.62,3.86-8.62,8.62-8.62,8.62,3.86,8.62,8.62"/>
      <path class="st1" d="M761.75,15.88c0,4.38-3.56,7.94-7.94,7.94s-7.94-3.56-7.94-7.94,3.56-7.94,7.94-7.94,7.94,3.56,7.94,7.94"/>
      <path class="st1" d="M735.18,21.01c0,4.02-3.26,7.28-7.28,7.28s-7.28-3.26-7.28-7.28,3.26-7.28,7.28-7.28,7.28,3.26,7.28,7.28"/>
      <path class="st1" d="M712.54,35.75c0,3.66-2.97,6.63-6.63,6.63s-6.62-2.97-6.62-6.63,2.96-6.63,6.62-6.63,6.63,2.97,6.63,6.63"/>
      <path class="st1" d="M697.16,57.7c0,3.3-2.68,5.97-5.97,5.97s-5.97-2.68-5.97-5.97,2.68-5.97,5.97-5.97,5.97,2.68,5.97,5.97"/>
      <path class="st1" d="M691.38,83.66c0,2.93-2.38,5.31-5.31,5.31s-5.31-2.38-5.31-5.31,2.38-5.31,5.31-5.31,5.31,2.38,5.31,5.31"/>
      <path class="st1" d="M695.87,109.61c0,2.56-2.08,4.63-4.63,4.63s-4.64-2.07-4.64-4.63,2.08-4.63,4.64-4.63,4.63,2.07,4.63,4.63"/>
      <path class="st1" d="M709.89,131.57c0,2.19-1.77,3.96-3.96,3.96s-3.97-1.77-3.97-3.96,1.78-3.96,3.97-3.96,3.96,1.77,3.96,3.96"/>
      <path class="st1" d="M731.24,146.29c0,1.84-1.49,3.34-3.34,3.34s-3.34-1.49-3.34-3.34,1.49-3.34,3.34-3.34,3.34,1.49,3.34,3.34"/>
      <path class="st1" d="M756.53,151.39c0,1.47-1.19,2.66-2.66,2.66s-2.65-1.19-2.65-2.66,1.19-2.66,2.65-2.66,2.66,1.19,2.66,2.66"/>
      <path class="st1" d="M781.83,146.32c0,1.1-.9,2-2,2s-2-.9-2-2,.9-2,2-2,2,.9,2,2"/>
    </g>
  </g>
  <path class="st1" d="M420.5,478.61h13.92l5.91,13.1h-19.84v-13.1h0ZM443.14,478.61h15.33l5.91,13.1h-15.33l-5.91-13.1ZM467.19,478.61h15.33l5.91,13.1h-15.33l-5.91-13.1ZM491.23,478.61h19.84v13.1h-13.93l-5.91-13.1ZM432.72,452.41h66.12v13.1h-66.12v-13.1ZM420.5,426.21h13.92l5.91,13.1h-19.84v-13.1h0ZM443.14,426.21h15.33l5.91,13.1h-15.33l-5.91-13.1ZM467.19,426.21h15.33l5.91,13.1h-15.33l-5.91-13.1ZM491.23,426.21h19.84v13.1h-13.93l-5.91-13.1ZM498.84,409.17v3.94h-66.12v-3.94h-6.01v3.94h-12.22v39.3h12.22v13.1h-12.22v39.3h12.22v39.3h-6.02v13.1h18.04v-13.1h-6.01v-39.3h66.12v39.3h-6.01v13.1h18.03v-13.1h-6.01v-39.3h12.23v-39.3h-12.23v-13.1h12.23v-39.3h-12.23v-3.94h-6.01,0Z"/>
</svg>